<svg width="426" height="357" viewBox="0 0 426 357" fill="none" xmlns="http://www.w3.org/2000/svg">
<path fill-rule="evenodd" clip-rule="evenodd" d="M30.3899 273.934C25.0864 267.331 20.4044 260.473 16.4025 253.419L16.3952 253.406C16.2013 253.063 16.0081 252.72 15.8166 252.376L15.811 252.366C15.6195 252.021 15.4296 251.676 15.2413 251.332L15.2373 251.324C3.4464 229.699 -1.97313 206.289 0.650223 182.66C5.15365 142.093 32.4761 108.773 72.7286 88.0384C101.383 73.2777 130.846 70.745 159.874 52.0863C199.331 26.7234 227.53 -8.0221 295.742 1.66015C402.436 16.8051 456.752 148.672 407.285 247.392C396.703 268.512 383.287 286.47 367.695 301.352L367.632 301.412L367.176 301.845L366.966 302.044L366.463 302.517L366.358 302.615C366.21 302.753 366.062 302.892 365.915 303.029H365.914C360.797 307.787 355.451 312.221 349.903 316.333L349.918 316.335C341.472 322.595 332.552 328.109 323.236 332.887C247.037 371.966 141.718 361.038 70.1669 310.753C54.654 299.85 41.2354 287.421 30.4069 273.936L30.3899 273.934Z" fill="#F2FADA"/>
<path fill-rule="evenodd" clip-rule="evenodd" d="M82.2059 83.5762C107.855 72.5271 134.036 68.6943 159.872 52.0863C182.562 37.5015 201.531 19.8165 226.524 9.25827V356.369C176.285 357.707 124.445 344.504 82.2059 318.649V83.5762Z" fill="#73863A"/>
<path fill-rule="evenodd" clip-rule="evenodd" d="M174.218 351.46C174.218 351.46 176.393 334.625 180.744 300.955C178.204 300.885 176.112 301.072 174.471 301.515L174.701 296.835C144.564 302.584 129.496 305.458 129.496 305.458L134.924 337.545C134.322 337.795 133.724 338.065 133.131 338.356C134.317 341.371 134.909 342.879 134.909 342.879C146.726 346.833 159.78 350.07 174.074 352.589C174.076 352.589 174.123 352.212 174.218 351.46Z" fill="#1C304F"/>
<path fill-rule="evenodd" clip-rule="evenodd" d="M135.468 340.749C135.468 340.749 137.712 331.593 142.202 313.28C133.01 310.204 128.455 310.48 128.534 314.109C128.314 314.294 128.123 314.517 127.964 314.78C108.921 308.278 97.0948 305.57 92.4842 306.654C91.4067 306.318 90.2155 306.468 89.2385 307.105L89.2596 307.244L88.4506 306.657C89.998 317.986 90.7713 323.651 90.7713 323.651C105.916 331.898 120.629 338.307 134.911 342.879C134.911 342.879 135.096 342.169 135.468 340.749Z" fill="#304B73"/>
<path fill-rule="evenodd" clip-rule="evenodd" d="M191.441 192.922C192.553 190.818 191.85 188.997 189.687 184.546C184.337 173.535 177.519 159.83 166.518 156.61C160.204 154.762 154.361 157.117 151.116 163.353C144.611 175.856 151.225 191.55 157.143 204.435C159.72 210.046 160.836 211.653 163.892 211.196C172.087 209.969 187.782 199.85 191.441 192.922Z" fill="#85ACFF"/>
<path fill-rule="evenodd" clip-rule="evenodd" d="M101.25 311.302C123.646 318.152 148.079 318.927 169.591 309.793C186.614 302.565 185.471 300.524 183.428 283.288C181.1 263.661 176.143 228.704 169.418 178.311C169.334 162.239 161.79 152.252 146.785 148.348C146.785 148.348 135.561 151.891 113.113 158.977C98.2219 163.522 90.7762 165.794 90.7762 165.794C88.8085 218.858 87.8242 245.39 87.8242 245.39C86.3442 263.631 85.213 277.564 84.4316 287.191C82.8786 306.327 84.4665 306.17 101.25 311.302Z" fill="#4985DE"/>
<path fill-rule="evenodd" clip-rule="evenodd" d="M86.1413 241.876C133.042 250.482 155.598 258.183 153.81 264.98C109.076 249.946 116.109 306.652 85.8605 299.336C86.0472 261.029 86.1413 241.876 86.1413 241.876Z" fill="#275EB0"/>
<path fill-rule="evenodd" clip-rule="evenodd" d="M91.2833 168.815C96.1633 228.061 115.637 254.624 149.705 248.503C163.32 216.23 124.424 219.19 119.13 197.978C116.881 188.967 120.242 179.483 127.656 173.918C115.375 162.527 103.25 160.825 91.2833 168.815Z" fill="#275EB0"/>
<path fill-rule="evenodd" clip-rule="evenodd" d="M242.117 55.6937H366.41V60.9439H242.117V55.6937ZM242.117 69.9219H366.41V75.173H242.117V69.9219ZM242.117 84.0053H366.41V89.2555H242.117V84.0053ZM242.117 97.3177H366.41V102.569H242.117V97.3177ZM242.117 111.401H366.41V116.652H242.117V111.401ZM242.117 125.629H366.41V130.88H242.117V125.629ZM242.117 139.713H366.41V144.964H242.117V139.713ZM242.117 41.6103H366.41V46.8605H242.117V41.6103Z" fill="white"/>
<path fill-rule="evenodd" clip-rule="evenodd" d="M156.613 125.094C114.003 114.066 95.9231 127.62 102.372 165.759C104.712 175.456 123.606 183.571 135.122 172.351C140.572 167.042 150.089 168.202 156.457 165.448C159.43 164.163 161.075 161.708 163.951 160.754C166.84 159.797 169.498 158.754 170.073 155.512C171.043 150.05 168.399 145.757 164.647 141.53C161.32 137.782 157.618 133.277 156.613 125.094Z" fill="#6B4014"/>
<path fill-rule="evenodd" clip-rule="evenodd" d="M155.802 129.885C141.308 139.431 136.191 150.604 140.623 157.77C154.603 159.172 167.31 158.888 155.802 129.885Z" fill="#361D05"/>
<path fill-rule="evenodd" clip-rule="evenodd" d="M212.376 173.937C225.528 174.36 238.687 174.778 251.838 175.203C264.99 175.628 278.15 176.064 291.309 176.486C292.73 176.532 293.891 177.778 293.891 179.261C293.891 192.368 293.891 205.467 293.891 218.558C293.891 231.657 293.891 244.756 293.891 257.855C293.891 259.338 292.731 260.543 291.309 260.543C278.15 260.543 264.99 260.543 251.838 260.543C238.687 260.543 225.528 260.543 212.376 260.543C210.955 260.543 209.803 259.294 209.803 257.76C209.803 244.245 209.803 230.721 209.803 217.206C209.803 203.691 209.803 190.166 209.803 176.642C209.803 175.107 210.955 173.892 212.376 173.937Z" fill="#D4EF82"/>
<path fill-rule="evenodd" clip-rule="evenodd" d="M207.945 237.777C202.53 249.348 199.822 255.134 199.822 255.134C221.373 262.697 245.331 255.646 259.396 237.602C273.46 219.558 274.506 194.529 261.994 175.368C255.067 176.453 248.959 180.525 245.28 186.511C238.616 197.353 250.822 255.178 207.945 237.777Z" fill="#CAEB66"/>
<path fill-rule="evenodd" clip-rule="evenodd" d="M318.839 319.496L322.912 332.262C323.162 332.077 323.42 331.9 323.685 331.731C323.824 331.634 323.965 331.539 324.108 331.447C324.21 331.716 324.328 331.984 324.468 332.25C340.996 323.327 354.634 313.751 365.381 303.524C365.381 303.524 365.425 303.347 365.515 302.994L366.432 296.926C364.923 297.795 363.629 298.629 362.549 299.429C356.746 288.729 343.759 283.939 332.313 288.613C320.228 293.547 314.254 307.238 318.839 319.496Z" fill="black"/>
<path fill-rule="evenodd" clip-rule="evenodd" d="M325.334 330.915L328.614 302.626L325.378 300.763L266.194 299.788L269.282 351.061C269.288 351.389 269.291 351.552 269.291 351.552C289.771 347.325 308.447 340.742 325.32 331.804C325.32 331.804 325.324 331.506 325.334 330.915Z" fill="#1A1A1A"/>
<path fill-rule="evenodd" clip-rule="evenodd" d="M282.981 346.838C288.127 330.052 304.005 325.304 299.77 302.328L266.193 299.786L269.232 350.242C269.271 351.115 269.291 351.551 269.291 351.551C274.017 350.57 278.455 349.52 282.604 348.403C282.604 348.403 282.73 347.881 282.981 346.838Z" fill="#4D4D4D"/>
<path fill-rule="evenodd" clip-rule="evenodd" d="M301.311 255.595C304.631 255.136 306.47 255.494 306.959 256.422C307.552 257.546 305.933 259.544 302.182 263.265C293.474 271.901 291.914 273.766 302.036 278.596C318.009 289.373 326.402 281.884 331.068 268.587C338.335 263.315 352.727 252.894 369.083 241.071C380.031 233.157 389.263 225.916 389.964 215.286C390.213 211.527 388.739 206.083 386.582 200.257C382.785 190 376.866 178.556 374.483 173.034C374.483 173.034 361.685 178.214 336.089 188.572C343.004 199.876 346.462 205.527 346.462 205.527C350.373 212.174 349.047 217.303 340.527 226.132C324.158 243.094 315.974 251.575 315.974 251.575C305.55 243.753 292.826 257.238 301.311 255.595Z" fill="#FFC0A1"/>
<path fill-rule="evenodd" clip-rule="evenodd" d="M372.838 198.069C372.838 218.329 372.838 228.458 372.838 228.458C379.533 226.452 384.12 220.273 384.12 213.264C384.12 206.254 379.533 200.076 372.838 198.069Z" fill="#EE7B3E"/>
<path fill-rule="evenodd" clip-rule="evenodd" d="M294.351 130.356C316.041 123.633 325.921 118.619 325.921 118.619C323.293 114.938 322.255 109.963 323.599 104.97C317.844 95.2856 305.191 92.3271 294.689 97.5285C284.187 102.731 280.117 114.807 285.547 124.653C289.186 122.733 292.763 125.736 294.351 130.356Z" fill="#FFB38A"/>
<path fill-rule="evenodd" clip-rule="evenodd" d="M287.77 124.065C288.865 124.117 289.763 124.389 290.462 124.881C299.185 122.918 300.805 119.866 307.283 115.679C311.892 112.701 317.27 112.294 322.242 115.761C322.969 116.094 323.332 116.259 323.332 116.259C321.61 113.041 321.158 109.588 321.977 105.902C319.121 103.885 316.592 102.951 314.387 103.098C314.582 102.504 314.76 101.903 314.923 101.295C299.757 93.3024 292.063 93.4799 291.843 101.827C289.127 116.652 287.77 124.065 287.77 124.065Z" fill="#ED7433"/>
<path fill-rule="evenodd" clip-rule="evenodd" d="M287.77 124.065C288.101 124.066 288.57 124.139 289.175 124.282C298.1 117.697 298.909 107.736 312.359 107.267C301.864 98.8205 295.54 96.6306 293.387 100.695C289.643 116.275 287.77 124.065 287.77 124.065Z" fill="#DEA39A"/>
<path fill-rule="evenodd" clip-rule="evenodd" d="M270.611 80.0023C276.68 76.9819 283.936 77.7024 289.298 81.8576C294.66 86.0129 297.187 92.8742 295.808 99.5296C297.893 107.035 294.889 120.697 285.525 125.457C277.89 129.338 278.328 121.376 275.117 116.576C271.584 111.297 268.538 109.269 268.131 104.282C267.903 101.487 268.391 99.0078 268.651 96.2593C269.241 90.002 267.087 86.2189 270.611 80.0023Z" fill="#FFC0A1"/>
<path fill-rule="evenodd" clip-rule="evenodd" d="M294.091 96.497C295.707 92.8254 294.756 88.5269 291.743 85.8851C288.731 83.2441 284.359 82.8728 280.948 84.97C277.538 87.0671 275.881 91.1442 276.859 95.0357C280.544 98.8921 277.373 102.39 280.674 106.17C284.313 110.337 292.048 109.414 291.151 117.514C294.504 111.368 295.484 104.361 294.091 96.497Z" fill="#ED7433"/>
<path fill-rule="evenodd" clip-rule="evenodd" d="M269.803 89.1008C275.57 86.9133 278.151 87.4172 277.545 90.6134C277.545 90.6134 274.733 91.4862 269.109 93.23C268.613 92.6047 268.406 91.798 268.538 91.0099C268.671 90.2218 269.131 89.5282 269.803 89.1008Z" fill="#E7B7AC"/>
<path fill-rule="evenodd" clip-rule="evenodd" d="M280.501 96.8821C285.608 80.6169 289.829 79.6245 293.164 93.9033C293.628 97.2558 291.47 100.41 288.185 101.183C284.902 101.956 281.571 100.092 280.501 96.8821Z" fill="#DEA39A"/>
<path fill-rule="evenodd" clip-rule="evenodd" d="M211.815 173.937C201.794 174.36 191.767 174.778 181.746 175.203C171.726 175.628 161.699 176.064 151.671 176.486C150.589 176.532 149.705 177.778 149.705 179.261C149.705 192.368 149.705 205.467 149.705 218.558C149.705 231.657 149.705 244.756 149.705 257.855C149.705 259.338 150.589 260.543 151.671 260.543C161.698 260.543 171.725 260.543 181.746 260.543C191.767 260.543 201.793 260.543 211.815 260.543C212.897 260.543 213.775 259.294 213.775 257.76C213.775 244.245 213.775 230.721 213.775 217.206C213.775 203.691 213.775 190.166 213.775 176.642C213.775 175.107 212.897 173.892 211.815 173.937Z" fill="#ACC857"/>
<path fill-rule="evenodd" clip-rule="evenodd" d="M343.374 198.134C355.794 197.082 365.875 193.502 374.031 188.291C383.43 182.286 382.562 180.62 378.669 173.277C369.419 155.823 356.112 136.621 339.43 133.234C323.764 130.052 313.335 143.175 323.647 170.451C326.443 177.845 329.919 185.48 333.699 191.951C336.984 197.577 337.218 198.656 343.374 198.134Z" fill="#7367A9"/>
<path fill-rule="evenodd" clip-rule="evenodd" d="M290.669 90.4522C294.096 96.5043 295.809 99.5304 295.809 99.5304C299.057 105.471 305.962 107.279 313.072 107.273C325.468 107.261 326.631 103.29 330.458 91.0083C302.734 73.7873 282 67.8085 268.256 73.0725C265.365 80.367 271.672 81.3105 273.645 87.2365C275.366 92.4045 276.662 100.427 278.767 91.8745C280.299 85.6432 282.223 75.1982 290.669 90.4522Z" fill="#401C00"/>
<path fill-rule="evenodd" clip-rule="evenodd" d="M333.964 125.653C305.963 136.463 291.963 141.869 291.963 141.869C288.65 130.409 298.743 121.706 322.242 115.761C328.996 114.053 329.271 113.637 332.074 120.815C333.334 124.04 333.964 125.653 333.964 125.653Z" fill="#7367A9"/>
<path fill-rule="evenodd" clip-rule="evenodd" d="M276.023 150.999C261.631 233.634 261.248 268.627 261.248 268.627C261.248 268.627 262.205 271.531 263.038 285.887C263.723 296.624 264.458 306.462 284.945 307.521C301.383 308.263 324.61 309.056 343.935 306.77C366.322 304.65 369.564 297.551 371.805 273.643C374.584 243.999 382.703 198.005 373.983 168.019C368.43 148.927 355.119 138.989 339.698 127.479C339.445 111.189 280.776 145.956 276.023 150.999Z" fill="#3E317E"/>
<path fill-rule="evenodd" clip-rule="evenodd" d="M281.06 71.275C276.272 71.0381 272.004 71.6373 268.255 73.0725C265.365 80.367 271.671 81.3106 273.644 87.2365C273.998 88.3014 274.335 89.4875 274.664 90.624C274.495 83.652 276.773 76.7637 281.06 71.275Z" fill="#965E23"/>
<path fill-rule="evenodd" clip-rule="evenodd" d="M300.195 104.208C303.724 106.481 308.353 107.276 313.071 107.272C325.467 107.261 326.63 103.289 330.457 91.0083C320.913 85.0799 312.198 80.4842 304.311 77.2205C307.316 86.3792 305.731 96.4441 300.195 104.208Z" fill="#210600"/>
<path fill-rule="evenodd" clip-rule="evenodd" d="M277.298 63.1111C276.569 69.7616 276.205 73.0864 276.205 73.0864C244.406 74.1732 243.45 62.0055 277.298 63.1111Z" fill="#433876"/>
<path fill-rule="evenodd" clip-rule="evenodd" d="M275.117 61.2907C272.885 64.7979 271.758 67.8443 273.774 70.5822C275.817 73.355 281.416 77.0902 284.465 78.9773C297.94 87.3171 311.718 92.0495 321.526 92.4419C324.294 92.5527 330.332 92.7008 331.613 89.5901C337.711 74.2392 331.069 56.761 316.333 49.3794C301.597 41.9978 283.681 47.1756 275.117 61.2907Z" fill="#8176B2"/>
<path d="M269.109 88.544L283.411 83.9589L283.774 85.1092L269.109 89.8107V97.4797C269.109 98.061 268.635 98.5364 268.055 98.5364C267.476 98.5364 267.002 98.061 267.002 97.4797V84.646C267.002 84.0647 267.476 83.5893 268.055 83.5893C268.635 83.5893 269.109 84.0647 269.109 84.646V88.544Z" fill="white"/>
<path fill-rule="evenodd" clip-rule="evenodd" d="M283.538 82.3689C286.305 82.3689 288.801 86.3874 289.112 91.3453C289.422 96.3033 287.43 100.322 284.662 100.322C281.894 100.322 279.398 96.3024 279.088 91.3453C278.778 86.3882 280.77 82.3689 283.538 82.3689Z" fill="#FFCEB5"/>
<path fill-rule="evenodd" clip-rule="evenodd" d="M282.383 85.6245C283.94 85.6245 285.343 88.1857 285.517 91.3461C285.692 94.5057 284.571 97.0677 283.015 97.0677C281.458 97.0677 280.055 94.5065 279.88 91.3461C279.706 88.1857 280.826 85.6245 282.383 85.6245Z" fill="#ED7433"/>
<path fill-rule="evenodd" clip-rule="evenodd" d="M283.822 88.2297C284.651 88.2297 285.399 89.595 285.492 91.2786C285.586 92.9621 284.988 94.3274 284.158 94.3274C283.329 94.3274 282.581 92.9621 282.488 91.2786C282.395 89.5942 282.991 88.2297 283.822 88.2297Z" fill="#BF2401"/>
<path fill-rule="evenodd" clip-rule="evenodd" d="M305.506 87.3708C310.819 89.1725 315.742 90.1909 319.886 90.3562C322.405 90.4571 327.9 90.5915 329.065 87.7608C334.615 73.7906 328.57 57.8853 315.16 51.1672C310.642 48.904 305.795 47.9401 301.055 48.146C306.057 54.5515 309.04 62.621 309.04 71.3898C309.04 77.1024 307.773 82.5179 305.506 87.3708Z" fill="#403282"/>
<path fill-rule="evenodd" clip-rule="evenodd" d="M329 88.2086C330.325 88.0229 331.09 87.5809 331.697 86.3369C333.471 82.4365 332.903 78.2731 330.247 75.716C327.592 73.158 323.347 72.685 319.418 74.5095C315.488 76.3339 312.611 80.113 312.076 84.1518C311.806 85.4739 312.226 86.2685 313.743 86.7252C318.703 88.1125 324.356 88.8745 329 88.2086Z" fill="#210600"/>
<path fill-rule="evenodd" clip-rule="evenodd" d="M275.117 61.2899C272.885 64.7979 271.758 67.8435 273.774 70.5814C275.817 73.3534 281.416 77.0894 284.465 78.9765C290.176 82.5114 295.941 85.3974 301.436 87.5801C288.348 79.8517 293.197 69.2991 296.158 61.0424C297.876 56.2497 299.763 51.4228 299.34 46.158C289.642 47.0421 280.519 52.3867 275.117 61.2899Z" fill="#A49BCE"/>
<path fill-rule="evenodd" clip-rule="evenodd" d="M266.782 264.786C295.563 221.316 301.565 187.359 284.787 162.913C357.743 202.827 299.12 284.27 366.219 277.065C365.379 305.421 340.511 302.02 319.206 302.455C308.52 302.673 298.207 302.429 288.269 301.721C275.239 301.024 268.66 296.604 268.532 288.463C267.365 272.678 266.782 264.786 266.782 264.786Z" fill="#1C1253"/>
<path fill-rule="evenodd" clip-rule="evenodd" d="M267.319 272.053C293.483 217.578 306.566 190.34 306.566 190.34C308.752 236.889 316.938 286.163 268.533 288.463C268.18 283.702 267.775 278.232 267.319 272.053Z" fill="#0A0132"/>
<path fill-rule="evenodd" clip-rule="evenodd" d="M359.784 303.006C368.236 298.628 370.259 290.135 371.805 273.644C374.584 244 382.704 198.005 373.983 168.019C368.431 148.928 355.119 138.99 339.699 127.48C339.508 115.204 306.148 131.92 287.681 143.064C333.363 164.879 364.942 211.613 364.942 265.751C364.942 278.67 363.143 291.168 359.784 303.006Z" fill="#5D5198"/>
<path fill-rule="evenodd" clip-rule="evenodd" d="M211.815 173.937C201.794 174.36 191.767 174.778 181.746 175.203C171.726 175.628 161.699 176.064 151.671 176.486C150.589 176.532 149.705 177.778 149.705 179.261C149.705 204.085 149.705 228.91 149.705 253.735C149.827 253.355 149.759 252.849 150.067 252.594C175.277 231.811 169.193 186.545 213.757 176.275C213.631 174.918 212.809 173.895 211.815 173.937Z" fill="#DEF29F"/>
<path fill-rule="evenodd" clip-rule="evenodd" d="M209.803 254.651C195.672 258.68 184.396 259.959 175.976 258.489C175.976 258.489 171.329 258.429 162.02 258.309C186.069 251.937 178.333 217.695 209.803 211.85C209.803 240.384 209.803 254.651 209.803 254.651Z" fill="#CAEB66"/>
<path fill-rule="evenodd" clip-rule="evenodd" d="M189.037 248.045C192.376 249.488 193.884 250.856 193.819 251.993C193.74 253.369 191.12 254.313 185.555 255.655C172.64 258.77 170.149 259.623 176.844 269.807C185.644 288.807 197.626 286.579 209.397 276.862C219.092 276.059 238.283 274.489 260.082 272.722C274.673 271.54 287.294 270.016 293.891 260.542C296.223 257.192 297.901 251.309 299.157 244.684C301.369 233.023 302.275 219.066 303.152 212.597C303.152 212.597 288.373 210.199 258.815 205.403C258.912 219.79 258.961 226.984 258.961 226.984C258.874 235.357 254.773 239.371 241.924 242.771C217.241 249.302 204.898 252.567 204.898 252.567C199.596 239.437 180.24 244.793 189.037 248.045Z" fill="#FFC0A1"/>
<path fill-rule="evenodd" clip-rule="evenodd" d="M271.075 222.753C274.878 218.805 280.315 216.886 285.744 217.578C291.173 218.27 295.96 221.49 298.659 226.266C294.952 256.323 294.631 266.611 265.145 269.918C249.92 271.625 231.986 272.618 220.768 273.854C231.035 257.279 268.152 272.207 277.017 247.056C280.035 238.491 277.702 228.944 271.075 222.753Z" fill="#FFAD81"/>
<path fill-rule="evenodd" clip-rule="evenodd" d="M260.231 218.383C272.35 224.4 283.712 226.753 294.199 226.507C306.284 226.224 306.409 224.189 306.903 215.179C308.078 193.766 306.465 168.447 292.872 155.908C280.108 144.133 263.085 150.443 257.401 181.573C255.86 190.013 254.817 199.057 254.706 207.194C254.61 214.268 254.223 215.401 260.231 218.383Z" fill="#7367A9"/>
<path fill-rule="evenodd" clip-rule="evenodd" d="M298.729 222.739C301.557 222.419 303.122 220.76 303.426 217.762C304.867 190.096 301.048 170.493 291.97 158.954C305.771 186.671 266.628 187.531 271.812 219.665C280.768 222.541 289.741 223.565 298.729 222.739Z" fill="#4A3D89"/>
<path fill-rule="evenodd" clip-rule="evenodd" d="M294.404 157.433C293.911 156.907 293.401 156.397 292.872 155.909C280.108 144.134 263.085 150.444 257.401 181.574C255.86 190.013 254.817 199.058 254.706 207.195C254.623 213.245 254.329 214.949 258.006 217.181C256.562 177.95 290.186 182.005 294.404 157.433Z" fill="#A196D4"/>
<path fill-rule="evenodd" clip-rule="evenodd" d="M211.982 258.542C208.808 257.794 206.179 255.576 204.9 252.568C220.367 248.476 232.71 245.21 241.926 242.772C245.095 241.977 248.04 240.949 250.758 239.693C253.299 238.399 255.082 237.113 256.102 235.837C257.401 234.424 258.274 232.474 258.723 229.987C266.715 241.891 257.241 256.131 241.283 253.505C237.474 252.878 233.515 252.022 229.389 252.654C221.897 253.8 219.257 260.258 211.982 258.542Z" fill="#FFDBC9"/>
<path fill-rule="evenodd" clip-rule="evenodd" d="M176.816 175.144L187.935 174.829C188.643 174.809 189.223 175.375 189.223 176.086V226.425C189.223 227.136 188.643 227.735 187.935 227.755L176.816 228.069C176.108 228.089 175.528 227.524 175.528 226.812V176.472C175.529 175.762 176.108 175.163 176.816 175.144Z" fill="white"/>
<path fill-rule="evenodd" clip-rule="evenodd" d="M178.418 255.204C183.165 254.637 182.361 258.975 180.309 261.608C175.386 267.924 159.929 272.265 147.823 260.541C125.767 255.401 83.8312 254.053 77.3373 233.065C75.8865 228.376 75.0386 222.551 74.7943 215.591C96.5438 212.994 107.419 211.697 107.419 211.697C107.576 219.439 105.921 225.361 113.532 229.877C119.627 233.494 154.022 244.285 154.057 244.801C156.358 243.664 164.295 241.434 166.209 243.736C167.33 245.082 161.246 246.794 160.23 248C158.356 250.227 163.815 252.854 169.598 254.265C172.851 255.059 176.207 255.469 178.418 255.204Z" fill="#FFC8AB"/>
<path fill-rule="evenodd" clip-rule="evenodd" d="M107.588 212.993C109.522 211.612 109.707 209.667 109.761 204.716C109.896 192.467 109.921 177.15 101.525 169.326C96.7061 164.835 90.4305 164.313 84.7448 168.43C73.345 176.682 72.2488 193.687 71.7838 207.865C71.5818 214.04 71.8617 215.98 74.7975 216.944C82.6732 219.532 101.223 217.541 107.588 212.993Z" fill="#85ACFF"/>
<path fill-rule="evenodd" clip-rule="evenodd" d="M117.031 141.242L117.486 127.699C118.999 121.752 127.858 122.726 143.283 137.691C143.449 141.202 143.644 144.653 143.784 147.032C146.785 148.348 146.88 148.24 148.214 151.601C159.363 179.69 128.121 182.099 104.825 148.912L117.031 141.242Z" fill="#FFBB96"/>
<path fill-rule="evenodd" clip-rule="evenodd" d="M142.712 146.03C127.854 136.858 120.426 132.272 120.426 132.272C125.441 166.85 148.136 162.932 142.712 146.03Z" fill="#F08248"/>
<path fill-rule="evenodd" clip-rule="evenodd" d="M120.426 132.272C130.224 136.591 137.652 141.177 142.712 146.03C143.233 147.609 143.513 149.257 143.543 150.92C131.634 150.688 124.175 145.884 121.165 136.507C120.877 135.103 120.631 133.691 120.426 132.272Z" fill="#C73A1A"/>
<path fill-rule="evenodd" clip-rule="evenodd" d="M129.812 92.6886C115.351 108.044 111.201 118.367 117.361 123.657C121.339 136.104 123.475 140.246 131.692 143.06C138.136 145.267 149.191 149.77 151.202 140.287C153.143 135.529 155.968 130.564 156.837 125.501C157.346 122.54 156.774 119.89 155.789 116.538C155.399 115.228 155.385 113.498 155.931 111.331C156.414 109.61 155.548 106.313 153.331 101.439C148.035 87.7657 140.195 84.8479 129.812 92.6886Z" fill="#FFC8AB"/>
<path fill-rule="evenodd" clip-rule="evenodd" d="M143.327 146.068C147.054 146.225 150.216 144.939 151.202 140.287C153.144 135.529 155.968 130.564 156.837 125.501C157.346 122.54 156.774 119.89 155.789 116.538C155.399 115.228 155.385 113.498 155.931 111.331C156.414 109.61 155.548 106.313 153.331 101.44C150.548 94.2574 147.065 90.0444 142.88 88.7971C143.879 91.0132 144.776 93.3016 145.559 95.6601C151.266 112.844 150.007 130.673 143.327 146.068Z" fill="#FFDECC"/>
<path fill-rule="evenodd" clip-rule="evenodd" d="M119.08 122.037C108.314 116.155 109.868 109.573 123.744 102.291C127.113 94.4381 135.618 90.1486 143.91 92.122C136.908 98.7358 141.338 117.217 126.481 124.47C125.7 129.43 125.598 135.115 127.419 139.792C122.966 136.446 120.62 130.123 119.08 122.037Z" fill="#F08248"/>
<path fill-rule="evenodd" clip-rule="evenodd" d="M117.042 117.961C115.824 117.435 115.725 116.624 116.746 115.526C116.746 115.526 120.698 115.56 128.603 115.627C128.893 118.646 130.81 121.261 133.597 122.437C135.901 123.41 138.491 123.268 140.651 122.114C141.705 121.438 142.62 120.529 143.311 119.424C141.799 123.116 138.395 125.682 134.44 126.113C130.485 126.544 126.612 124.77 124.345 121.489C118.614 121.57 115.748 121.612 115.748 121.612C116.088 119.847 116.519 118.63 117.042 117.961Z" fill="#C73A1A"/>
<path fill-rule="evenodd" clip-rule="evenodd" d="M95.8662 164.579C90.9741 162.879 87.3268 158.821 88.6957 152.816C89.5752 148.954 92.3909 147.401 95.071 144.235C97.6173 141.227 100.04 136.764 100.564 127.483C100.769 123.857 100.704 119.702 100.38 114.93C99.8317 106.838 102.825 98.9084 108.58 93.2113C114.334 87.5141 122.277 84.6159 130.334 85.2745C135.759 83.9833 141.475 85.141 145.977 88.4398C150.479 91.7394 153.315 96.8504 153.739 102.428C150.496 95.3475 146.458 92.5177 143.698 92.2808C134.191 91.4658 127.772 121.915 116.12 119.656C117.242 125.028 118.107 134.131 117.376 142.836L117.378 142.835L117.368 142.925C115.009 170.585 141.777 165.998 134.799 172.658C129.747 174.762 125.113 174.323 120.894 171.34C116.259 169.874 112.634 166.372 110.938 161.949C107.596 165.544 102.752 166.972 95.8662 164.579Z" fill="#6B4014"/>
<path d="M141.432 106.379C141.744 106.508 142.101 106.36 142.23 106.047C142.359 105.733 142.211 105.375 141.899 105.245C140.6 104.703 139.206 104.533 137.86 104.717C136.511 104.901 135.212 105.438 134.106 106.308C133.84 106.516 133.792 106.902 134.001 107.17C134.209 107.437 134.593 107.485 134.86 107.276C135.796 106.54 136.89 106.086 138.024 105.932C139.159 105.778 140.337 105.921 141.432 106.379Z" fill="#7D2D17"/>
<path d="M150.333 104.88C150.006 104.963 149.808 105.298 149.89 105.627C149.973 105.955 150.307 106.154 150.634 106.071C151.52 105.842 152.435 105.83 153.306 106.018C154.178 106.207 155.006 106.595 155.719 107.169C155.983 107.381 156.367 107.339 156.579 107.074C156.79 106.809 156.748 106.424 156.484 106.211C155.619 105.515 154.617 105.044 153.564 104.816C152.511 104.588 151.405 104.603 150.333 104.88Z" fill="#7D2D17"/>
<path fill-rule="evenodd" clip-rule="evenodd" d="M137.822 113.694C137.121 113.694 136.553 114.505 136.553 115.507C136.553 116.508 137.121 117.318 137.822 117.318C138.522 117.318 139.09 116.507 139.09 115.507C139.09 114.506 138.523 113.694 137.822 113.694Z" fill="#1A1A1A"/>
<path fill-rule="evenodd" clip-rule="evenodd" d="M140.162 110.922C139.133 110.922 138.3 111.758 138.3 112.791C138.3 113.823 139.134 114.66 140.162 114.66C141.191 114.66 142.025 113.823 142.025 112.791C142.025 111.758 141.191 110.922 140.162 110.922Z" fill="white"/>
<path fill-rule="evenodd" clip-rule="evenodd" d="M155.085 110.922C154.056 110.922 153.222 111.758 153.222 112.791C153.222 113.823 154.056 114.66 155.085 114.66C156.114 114.66 156.947 113.823 156.947 112.791C156.948 111.758 156.114 110.922 155.085 110.922Z" fill="white"/>
<path fill-rule="evenodd" clip-rule="evenodd" d="M95.0703 144.236C99.8593 138.879 101.629 129.111 100.379 114.931C99.8309 106.839 102.824 98.9084 108.579 93.2121C114.333 87.5149 122.276 84.6175 130.333 85.2753C133.013 84.637 135.8 84.5898 138.5 85.1369C118.027 83.8115 125.933 113.063 110.453 116.161C114.621 123.829 116.705 127.663 116.705 127.663C116.407 140.668 102.836 137.799 95.0703 144.236Z" fill="#361D05"/>
<path d="M131.244 110.527C132.529 109.237 134.305 108.439 136.267 108.439C138.229 108.439 140.006 109.237 141.291 110.527C142.576 111.816 143.371 113.598 143.371 115.567C143.371 117.535 142.576 119.317 141.291 120.607C140.006 121.897 138.229 122.694 136.267 122.694C134.305 122.694 132.529 121.897 131.244 120.607C129.958 119.317 129.163 117.535 129.163 115.567C129.163 113.598 129.958 111.816 131.244 110.527ZM149.693 111.384C150.664 110.315 152.005 109.655 153.483 109.655C154.96 109.655 156.3 110.316 157.271 111.384C158.253 112.464 158.861 113.96 158.861 115.616C158.861 117.271 158.253 118.766 157.271 119.847C156.3 120.915 154.959 121.576 153.483 121.576C152.006 121.576 150.665 120.915 149.693 119.847C148.711 118.766 148.104 117.271 148.104 115.616C148.104 113.96 148.711 112.464 149.693 111.384ZM136.267 107.517C134.051 107.517 132.045 108.418 130.594 109.875C129.303 111.17 128.45 112.904 128.276 114.835L114.165 114.902L114.17 116.127L128.259 116.06C128.381 118.087 129.25 119.911 130.594 121.259C132.045 122.716 134.052 123.617 136.267 123.617C138.483 123.617 140.489 122.716 141.941 121.259C143.392 119.803 144.291 117.789 144.291 115.567C144.291 114.988 144.23 114.423 144.114 113.878C144.662 113.664 145.242 113.558 145.82 113.561C146.353 113.563 146.886 113.658 147.394 113.844C147.257 114.409 147.183 115.003 147.183 115.615C147.183 117.507 147.883 119.222 149.014 120.466C150.156 121.722 151.735 122.498 153.483 122.498C155.23 122.498 156.809 121.722 157.95 120.466C159.081 119.222 159.78 117.507 159.78 115.615C159.78 113.723 159.081 112.008 157.95 110.764C156.809 109.508 155.23 108.732 153.483 108.732C151.736 108.732 150.156 109.508 149.014 110.764C148.444 111.39 147.984 112.137 147.667 112.966C147.071 112.752 146.447 112.644 145.824 112.642C145.162 112.638 144.5 112.754 143.87 112.988C143.47 111.802 142.803 110.74 141.94 109.874C140.489 108.418 138.483 107.517 136.267 107.517Z" fill="white"/>
<path fill-rule="evenodd" clip-rule="evenodd" d="M113.384 114.766C110.265 114.766 108.039 118.019 108.413 122.032C108.786 126.044 111.617 129.298 114.736 129.298C117.855 129.298 120.081 126.044 119.708 122.032C119.334 118.019 116.503 114.766 113.384 114.766Z" fill="#FAC1A0"/>
<path fill-rule="evenodd" clip-rule="evenodd" d="M112.872 117.625C110.981 117.625 109.631 119.598 109.857 122.031C110.083 124.464 111.8 126.438 113.692 126.438C115.583 126.438 116.933 124.465 116.707 122.031C116.481 119.598 114.764 117.625 112.872 117.625Z" fill="#F08248"/>
<path fill-rule="evenodd" clip-rule="evenodd" d="M114.479 119.322C113.413 119.322 112.653 120.433 112.78 121.804C112.908 123.174 113.875 124.285 114.941 124.285C116.006 124.285 116.766 123.174 116.639 121.804C116.511 120.433 115.543 119.322 114.479 119.322Z" fill="#C73A1A"/>
<path fill-rule="evenodd" clip-rule="evenodd" d="M152.62 113.912C152.003 113.912 151.503 114.626 151.503 115.506C151.503 116.386 152.003 117.1 152.62 117.1C153.237 117.1 153.737 116.387 153.737 115.506C153.737 114.626 153.237 113.912 152.62 113.912Z" fill="#1A1A1A"/>
<path d="M145.475 115.185C145.355 114.867 145.515 114.513 145.832 114.394C146.148 114.274 146.501 114.435 146.62 114.752L149.235 121.721C150.141 123.163 150.385 124.362 149.967 125.316C149.541 126.285 148.472 126.912 146.761 127.198C146.428 127.253 146.111 127.027 146.056 126.692C146.001 126.358 146.227 126.041 146.559 125.986C147.834 125.773 148.595 125.383 148.844 124.82C149.09 124.259 148.87 123.435 148.182 122.351C148.152 122.309 148.128 122.263 148.108 122.212C148.104 122.2 147.281 120 145.475 115.185Z" fill="#C73A1A"/>
<path d="M141.245 132.071C140.968 131.878 140.9 131.495 141.094 131.217C141.287 130.94 141.668 130.872 141.945 131.066C143.014 131.815 144.261 132.179 145.503 132.162C146.744 132.145 147.979 131.745 149.026 130.967C149.297 130.765 149.681 130.822 149.882 131.094C150.084 131.366 150.027 131.751 149.756 131.953C148.498 132.888 147.011 133.367 145.518 133.389C144.027 133.409 142.528 132.971 141.245 132.071Z" fill="#C73A1A"/>
<path d="M142.9 134.733C142.722 134.609 142.678 134.362 142.803 134.184C142.927 134.005 143.173 133.962 143.351 134.086C144.038 134.568 144.842 134.803 145.641 134.791C146.439 134.78 147.235 134.523 147.908 134.023C148.083 133.893 148.33 133.929 148.459 134.105C148.589 134.28 148.552 134.528 148.377 134.658C147.567 135.259 146.611 135.568 145.649 135.582C144.69 135.594 143.726 135.312 142.9 134.733Z" fill="#C73A1A"/>
<path fill-rule="evenodd" clip-rule="evenodd" d="M117.419 127.404C116.173 127.404 115.163 128.418 115.163 129.667C115.163 130.917 116.173 131.931 117.419 131.931C118.666 131.931 119.675 130.918 119.675 129.667C119.675 128.417 118.666 127.404 117.419 127.404Z" fill="white"/>
<path fill-rule="evenodd" clip-rule="evenodd" d="M38.5762 128.508L48.6679 128.559C50.2892 128.567 51.615 129.905 51.615 131.532V161.217C51.615 162.843 50.2892 164.167 48.6679 164.159L38.5762 164.108C36.955 164.099 35.6291 162.762 35.6291 161.135V131.449C35.6291 129.824 36.9558 128.5 38.5762 128.508Z" fill="#D4EF82"/>
<path fill-rule="evenodd" clip-rule="evenodd" d="M40.302 134.188L46.9436 134.22C48.0106 134.225 48.8829 135.105 48.8829 136.174V145.915C48.8829 146.986 48.0098 147.857 46.9436 147.852L40.302 147.82C39.235 147.815 38.3627 146.935 38.3627 145.866V136.125C38.3627 135.054 39.235 134.182 40.302 134.188Z" fill="white"/>
<path fill-rule="evenodd" clip-rule="evenodd" d="M30.3897 273.934C25.0862 267.33 20.4042 260.473 16.4023 253.419L16.395 253.407C16.201 253.064 16.0079 252.721 15.8164 252.377L15.8107 252.366C15.6192 252.022 15.4294 251.677 15.2411 251.332L15.2362 251.324C3.44537 229.699 -1.97416 206.289 0.649185 182.66C1.72514 172.967 4.1075 163.689 7.65425 154.896L69.5776 211.101V310.339C54.3138 299.536 41.0981 287.251 30.4067 273.937L30.3897 273.934Z" fill="#ACC857"/>
<path fill-rule="evenodd" clip-rule="evenodd" d="M208.518 49.2565C222.763 49.2565 234.311 60.8421 234.311 75.1339C234.311 78.532 233.657 81.7762 232.469 84.7494C232.261 85.4055 232.023 86.0674 231.757 86.7342C228.897 93.8813 224.057 100.231 219.7 105.035C215.565 109.594 211.903 112.612 208.278 112.612C204.647 112.612 200.983 109.595 196.844 105.035C192.484 100.232 187.661 93.8813 184.807 86.7342C183.704 83.9817 183.09 81.3106 182.987 78.8063C182.817 77.6063 182.727 76.3811 182.727 75.1347C182.726 60.8429 194.274 49.2565 208.518 49.2565Z" fill="white"/>
<path fill-rule="evenodd" clip-rule="evenodd" d="M213.232 46.863C227.477 46.863 239.024 58.4486 239.024 72.7404C239.024 76.1385 238.37 79.3827 237.183 82.3559C236.974 83.0121 236.737 83.6739 236.47 84.3407C233.609 91.4878 228.77 97.8371 224.413 102.641C220.278 107.201 216.616 110.218 212.992 110.218C209.361 110.218 205.696 107.202 201.556 102.641C197.197 97.8379 192.373 91.4878 189.52 84.3407C188.417 81.5882 187.803 78.9171 187.7 76.412C187.529 75.2128 187.44 73.9868 187.44 72.7404C187.441 58.4486 198.987 46.863 213.232 46.863Z" fill="#ACC857"/>
<path fill-rule="evenodd" clip-rule="evenodd" d="M226.184 50.3588C233.863 54.8413 239.024 63.1851 239.024 72.7396C239.024 76.1377 238.37 79.3827 237.183 82.3551C236.975 83.0112 236.737 83.6731 236.47 84.3399C233.61 91.487 228.77 97.8362 224.413 102.64C220.278 107.2 216.616 110.217 212.992 110.217C209.908 110.217 206.8 108.041 203.397 104.591L226.184 50.3588Z" fill="#CAEB66"/>
<path fill-rule="evenodd" clip-rule="evenodd" d="M213.232 62.4036C218.922 62.4036 223.535 67.0318 223.535 72.7404C223.535 78.449 218.922 83.0772 213.232 83.0772C207.542 83.0772 202.929 78.449 202.929 72.7404C202.929 67.0318 207.542 62.4036 213.232 62.4036Z" fill="white"/>
<path fill-rule="evenodd" clip-rule="evenodd" d="M24.6821 177.176C25.8692 177.176 26.8324 178.141 26.8324 179.332C26.8324 180.523 25.87 181.489 24.6821 181.489C23.4949 181.489 22.5326 180.523 22.5326 179.332C22.5326 178.141 23.4949 177.176 24.6821 177.176Z" fill="white"/>
<path fill-rule="evenodd" clip-rule="evenodd" d="M38.762 178.653C39.5426 178.653 40.1755 179.288 40.1755 180.071C40.1755 180.854 39.5426 181.489 38.762 181.489C37.9814 181.489 37.3493 180.854 37.3493 180.071C37.3493 179.288 37.9814 178.653 38.762 178.653Z" fill="white"/>
<path fill-rule="evenodd" clip-rule="evenodd" d="M32.3801 242.175C33.039 242.175 33.5737 242.712 33.5737 243.373C33.5737 244.035 33.039 244.57 32.3801 244.57C31.7212 244.57 31.1865 244.035 31.1865 243.373C31.1865 242.711 31.7212 242.175 32.3801 242.175Z" fill="white"/>
<path fill-rule="evenodd" clip-rule="evenodd" d="M104.332 272.346C104.742 272.346 105.075 272.68 105.075 273.092C105.075 273.504 104.742 273.838 104.332 273.838C103.921 273.838 103.589 273.504 103.589 273.092C103.589 272.68 103.921 272.346 104.332 272.346Z" fill="white"/>
<path fill-rule="evenodd" clip-rule="evenodd" d="M201.14 311.174C201.551 311.174 201.883 311.508 201.883 311.92C201.883 312.332 201.551 312.665 201.14 312.665C200.73 312.665 200.397 312.332 200.397 311.92C200.397 311.507 200.73 311.174 201.14 311.174Z" fill="white"/>
<path fill-rule="evenodd" clip-rule="evenodd" d="M188.836 112.491C190.023 112.491 190.986 113.457 190.986 114.648C190.986 115.839 190.024 116.804 188.836 116.804C187.649 116.804 186.686 115.839 186.686 114.648C186.686 113.457 187.649 112.491 188.836 112.491Z" fill="white"/>
<path fill-rule="evenodd" clip-rule="evenodd" d="M192.094 157.065C192.688 157.065 193.169 157.547 193.169 158.143C193.169 158.739 192.688 159.222 192.094 159.222C191.5 159.222 191.018 158.739 191.018 158.143C191.019 157.547 191.5 157.065 192.094 157.065Z" fill="white"/>
<path fill-rule="evenodd" clip-rule="evenodd" d="M315.571 244.278C316.165 244.278 316.646 244.761 316.646 245.357C316.646 245.953 316.165 246.436 315.571 246.436C314.977 246.436 314.496 245.953 314.496 245.357C314.496 244.761 314.977 244.278 315.571 244.278Z" fill="white"/>
<path fill-rule="evenodd" clip-rule="evenodd" d="M267.808 21.9308C268.995 21.9308 269.957 22.8963 269.957 24.0873C269.957 25.2784 268.995 26.2439 267.808 26.2439C266.621 26.2439 265.659 25.2784 265.659 24.0873C265.658 22.8963 266.62 21.9308 267.808 21.9308Z" fill="white"/>
<path fill-rule="evenodd" clip-rule="evenodd" d="M152.05 71.6104C152.509 71.6104 152.881 71.9841 152.881 72.4449C152.881 72.9057 152.509 73.2793 152.05 73.2793C151.59 73.2793 151.218 72.9057 151.218 72.4449C151.218 71.9841 151.59 71.6104 152.05 71.6104Z" fill="white"/>
<path fill-rule="evenodd" clip-rule="evenodd" d="M335.801 179.899C336.26 179.899 336.633 180.273 336.633 180.733C336.633 181.194 336.26 181.568 335.801 181.568C335.342 181.568 334.969 181.194 334.969 180.733C334.969 180.273 335.342 179.899 335.801 179.899Z" fill="white"/>
<path fill-rule="evenodd" clip-rule="evenodd" d="M87.6352 167.625C87.2676 200.5 87.0834 216.938 87.0834 216.938C93.1683 215.458 97.9565 210.752 99.5567 204.679C103.115 191.172 92.038 189.109 90.9239 180.585C90.2479 175.413 93.7428 171.566 91.2841 168.816C90.368 167.791 88.9764 167.336 87.6352 167.625Z" fill="#4994DE"/>
<path fill-rule="evenodd" clip-rule="evenodd" d="M66.6492 91.3233C68.6412 90.1966 70.6666 89.1 72.7276 88.0384C78.1236 85.259 83.548 82.9136 88.9927 80.8115V322.642C82.5029 318.962 76.2119 315.002 70.1667 310.753C68.982 309.92 67.8095 309.078 66.6492 308.228V91.3233Z" fill="white"/>
<path fill-rule="evenodd" clip-rule="evenodd" d="M109.15 210.97C109.455 209.996 109.625 209.043 109.657 208.114C109.765 204.981 109.81 202.157 109.79 199.642C109.848 194.206 109.462 189.041 108.631 184.146C107.195 177.132 104.826 172.192 101.525 169.326C99.835 167.813 98.1967 166.801 96.6103 166.288C94.4949 169.284 93.716 173.028 94.4601 176.624C96.4805 186.382 105.874 184.761 107.397 195.718C108.749 205.437 99.8471 208.486 102.935 215.247C104.196 214.824 105.439 214.271 106.664 213.588C107.953 212.912 108.783 212.04 109.15 210.97Z" fill="#B2CAFF"/>
<path fill-rule="evenodd" clip-rule="evenodd" d="M343.35 144.963C343.944 144.963 344.425 145.446 344.425 146.042C344.425 146.637 343.944 147.12 343.35 147.12C342.756 147.12 342.275 146.637 342.275 146.042C342.275 145.446 342.756 144.963 343.35 144.963Z" fill="white"/>
<path fill-rule="evenodd" clip-rule="evenodd" d="M397.593 165.354C398.187 165.354 398.668 165.837 398.668 166.433C398.668 167.029 398.187 167.511 397.593 167.511C396.999 167.511 396.518 167.029 396.518 166.433C396.518 165.837 397 165.354 397.593 165.354Z" fill="white"/>
</svg>
