<svg version="1.2" xmlns="http://www.w3.org/2000/svg" viewBox="496 852 2388 1568.000000000001" width="2388" height="1569">
	<style>
		.s0 { fill: #65a30d } 
		.s1 { fill: #a3e635 } 
	</style>
	<g id="Clip-Path">
		<g>
			<path fill-rule="evenodd" class="s0" d="m2003.48 976.77l-194.26-112.15-618.12 356.87 194.26 112.15z"/>
			<path fill-rule="evenodd" class="s0" d="m2063.49 976.77l194.26-112.15 618.13 356.87-194.27 112.15z"/>
			<path fill-rule="evenodd" class="s1" d="m564.43 1692.43h36.22c27.96 0 50.84 22.87 50.84 50.84 0 27.97-22.88 50.85-50.84 50.85h-36.22c-27.96 0-50.84-22.88-50.84-50.85 0-27.97 22.88-50.84 50.84-50.84zm1439.06-1.91l-194.27-112.16-30-17.33 224.27-129.47-363.86-210.07-224.27 129.47v138.08h-289.85c-27.97 0-50.85 22.88-50.85 50.85v0.01c0 27.97 22.89 50.84 50.85 50.84h289.85 192.93c27.96 0 50.85 22.88 50.85 50.84v0.02c0 27.96-22.89 50.83-50.85 50.83h-192.93-654.05c-27.97 0-50.85 22.88-50.85 50.84 0 27.97 22.88 50.85 50.85 50.85h654.05 311.51 40.16c27.96 0 50.84 22.88 50.84 50.84 0 27.97-22.88 50.85-50.84 50.85h-351.67-273.17c-27.96 0-50.84 22.88-50.84 50.85 0 27.96 22.87 50.84 50.84 50.84h273.17 206.84c27.96 0 50.84 22.88 50.84 50.85 0 27.97-22.88 50.84-50.84 50.84h-147.11-587.58c-27.97 0-50.85 22.88-50.85 50.85 0 27.97 22.88 50.84 50.85 50.84h763.71l352.27 203.39z"/>
			<path fill-rule="evenodd" class="s1" d="m2033.49 2421.59l618.12-356.88v-713.75l-224.26-129.47q-294.06 169.77-588.13 339.54l194.27 112.17z"/>
		</g>
	</g>
</svg>