<svg width="245" height="102" viewBox="0 0 245 102" fill="none" xmlns="http://www.w3.org/2000/svg">
<path d="M0.0303345 99.6575C0.0303345 99.6575 51.5294 101.777 55.8694 100.112C60.2093 98.4464 35.734 93.7027 47.795 93.5513C59.856 93.3999 82.6156 93.526 83.259 91.8229C83.9024 90.1197 84.5332 83.0294 83.9781 82.5248C83.423 82.0202 83.0445 84.1901 83.6248 84.2911C84.2051 84.392 87.8008 83.2691 87.8386 82.9285C87.8765 82.5879 86.0976 63.1716 85.8957 62.0867C85.6939 61.0017 78.427 61.7839 78.0485 61.3044C77.67 60.825 85.984 59.8788 86.7032 60.7115C87.4223 61.5442 88.7848 80.7712 88.7091 81.074C88.6334 81.3767 61.7989 83.0042 61.4204 82.9285C61.0419 82.8529 58.5818 63.2474 58.0519 62.9824C57.5221 62.7175 59.7172 81.9823 59.6794 82.9285C59.6416 83.8747 42.3449 85.313 41.9285 85.0102C41.5122 84.7074 39.0142 51.855 39.5062 51.3251C39.9983 50.7952 51.807 47.8809 52.0341 47.9566C52.2612 48.0323 53.4723 60.7872 54.305 61.3928C55.1376 61.9984 52.7532 47.7295 53.2074 47.2753C53.6616 46.8212 74.9702 45.9128 75.3109 46.0642C75.6515 46.2156 77.3547 60.333 76.7491 60.7494C76.1435 61.1657 59.2253 61.9984 58.0898 62.0741C56.9544 62.1498 40.5281 66.1617 40.1497 66.0482C39.7712 65.9346 38.7114 50.7322 38.7367 50.2023C38.7619 49.6724 41.5879 49.2687 41.9916 48.7388C42.3953 48.209 40.4777 33.9022 40.4777 33.4229C40.4777 32.9434 41.2094 32.8677 41.4113 32.9182C41.6131 32.9687 42.799 48.1585 43.4046 48.2847C44.0102 48.4109 48.6277 47.3259 48.9809 46.7203C49.3342 46.1147 47.6437 33.6248 47.6184 33.1454C47.5932 32.6659 48.123 32.8678 48.5772 33.1454C49.0314 33.4229 49.6117 46.1968 50.4066 46.4428C51.2014 46.6888 55.8189 46.0454 56.0271 45.7047C56.2353 45.3641 54.7592 33.0571 54.9736 32.6407C55.1881 32.2244 55.7054 32.4767 55.8442 32.7038C55.983 32.9309 56.9039 45.6101 57.6104 45.8877C58.3169 46.1652 62.6569 46.0895 63.0606 45.5596C63.4643 45.0298 62.2027 30.5212 61.37 30.067C60.5374 29.6129 36.1377 30.6789 35.7971 30.7925C35.4565 30.906 35.835 31.8333 36.1188 31.8901C36.4027 31.9469 61.1934 31.5494 61.4394 31.0006C61.6855 30.4518 60.5626 16.8201 59.6038 16.3154C58.645 15.8108 34.5481 16.7696 34.3778 16.8453C34.2075 16.921 34.0183 17.9808 34.9266 18.0186C35.835 18.0565 59.4903 17.7537 59.9445 17.0724C60.3987 16.3912 59.9318 8.03925 55.819 3.57315C51.7061 -0.892951 46.912 1.15086 44.7168 1.6555C42.5216 2.16013 22.8152 3.01803 22.4367 2.53864C22.0582 2.0592 21.8311 0.570506 24.9347 0.911149C28.0383 1.25179 31.3437 4.73383 32.4539 10.4363C33.5642 16.1388 38.1059 68.7733 38.3078 71.8264C38.5097 74.8796 40.339 87.5651 40.1687 88.3031C39.9984 89.0412 38.5412 89.0033 38.5034 87.7354C38.4656 86.4674 36.9516 79.3141 35.6837 78.1597C34.4157 77.0053 31.596 77.1378 29.5333 77.9705C27.4705 78.8031 27.685 88.1769 29.3756 89.817C31.0661 91.4571 33.1604 88.5049 32.8576 85.2878C32.5549 82.0707 31.0157 79.7493 29.0476 80.7838C27.0794 81.8183 27.0353 90.801 30.4606 91.9933C33.8859 93.1855 35.0592 88.4923 33.6588 82.5311C32.2584 76.57 28.2654 78.0272 27.2056 80.6577C26.1459 83.2881 26.6568 91.5012 30.2146 93.053C33.7723 94.6048 38.4088 91.7094 38.9197 88.4166C39.4307 85.1238 37.9798 80.91 37.5761 79.6736C37.1724 78.4372 37.349 67.9028 38.2952 66.8051C39.2414 65.7075 40.4147 85.6915 40.8122 86.1078C41.2096 86.5242 52.4505 84.9535 53.0561 85.2562C53.6617 85.559 41.3988 87.2811 41.1528 87.4515C40.9068 87.6218 41.7773 89.1925 42.3072 89.4764C42.837 89.7602 64.1836 87.4704 64.7134 86.9405C65.2433 86.4107 55.0368 87.6471 54.6079 87.1676C54.1789 86.6882 53.4472 85.2247 54.7593 84.9724C56.0714 84.7201 81.9849 82.651 82.2625 82.8277C82.54 83.0043 82.313 83.9883 82.0101 84.1902C81.7074 84.392 66.0886 86.9279 65.7984 87.2181C65.5083 87.5082 66.24 90.5487 70.315 90.5992C74.39 90.6496 75.8661 86.7513 75.8157 86.3349C75.7652 85.9186 75.0966 90.3973 74.6424 90.9272C74.1882 91.4571 67.0979 91.823 65.3569 91.823C63.6159 91.823 72.2453 94.9603 78.9232 94.9603C78.9232 94.9603 102.611 94.9603 103.505 94.9603C104.399 94.9603 104.79 63.3764 105.237 63.097C105.684 62.8177 136.455 61.4396 136.157 61.6879C135.859 61.9362 106.832 63.6495 107.056 63.8978C107.279 64.1461 131.439 69.0376 132.333 69.7825C133.227 70.5274 132.184 97.7909 131.29 98.5358C130.396 99.2807 104.995 94.2899 106.559 93.9174C108.123 93.5449 131.066 98.6871 133.227 98.6115C135.387 98.5358 170.248 94.8858 170.919 93.7684C171.589 92.651 172.558 67.5478 171.962 65.909C171.366 64.2702 133.618 68.1251 133.785 68.8514C133.953 69.5777 173.526 66.1325 173.749 65.4993C173.973 64.8661 138.925 63.786 138.59 63.7116C138.255 63.6371 137.882 44.6048 138.292 44.2696C138.702 43.9344 174.569 43.7109 175.63 43.7668C176.692 43.8226 174.681 65.8345 175.798 65.8718C176.915 65.9091 183.88 63.5253 184.029 63.1529C184.178 62.7804 183.284 44.4015 182.949 43.7582C182.614 43.115 176.381 43.4579 176.704 43.7582C177.027 44.0585 180.323 43.9344 180.435 44.4931C180.547 45.0518 181.347 63.2771 181.198 63.5005C181.049 63.724 173.898 66.4057 174.097 66.6788C174.296 66.9519 196.99 64.4565 197.437 64.829C197.884 65.2014 197.959 89.448 197.065 90.9378C196.171 92.4276 173.302 94.1409 173.6 93.545C173.898 92.949 216.954 88.9266 217.177 88.7031C217.401 88.4796 216.19 63.9909 216.023 63.1529C215.855 62.3149 193.173 63.8792 192.409 64.0095C191.646 64.1399 184.737 62.4452 185.053 62.9108C185.37 63.3764 191.459 64.9965 191.85 63.2833C192.242 61.57 191.106 28.1052 191.478 27.5466C191.85 26.9879 213.564 29.5951 213.862 29.9675C214.16 30.3399 216.209 60.434 215.538 61.2162C214.868 61.9984 213.095 31.1058 212.931 30.4144C212.767 29.723 191.627 27.8445 190.137 27.8445C188.647 27.8445 161.794 31.9415 160.863 32.4256C160.206 32.7671 159.308 37.8219 160.109 40.696C161.151 44.4368 160.659 30.6978 162.476 29.638C164.293 28.5783 189.348 25.0205 191.241 25.4747C193.133 25.9289 214.101 27.3671 215.009 27.8213C215.918 28.2755 218.719 46.8969 221.595 46.14C224.472 45.383 230.679 26.9887 232.874 34.7854C235.069 42.5822 234.312 55.2993 244.153 55.1479" stroke="#067A87" stroke-width="1.5" stroke-miterlimit="10"/>
</svg>
