<svg width="196" height="202" viewBox="0 0 196 202" fill="none" xmlns="http://www.w3.org/2000/svg">
<path d="M0 200.749H73.3255C73.4527 200.749 73.559 200.652 73.5711 200.525L75.3535 181.4C75.371 181.212 75.1799 181.075 75.0076 181.151C72.0451 182.471 52.951 190.932 51.5138 190.474C49.9548 189.978 19.2266 156.486 19.014 155.896C18.8229 155.365 18.8229 149.91 18.8242 148.813C18.8242 148.7 18.7489 148.602 18.6392 148.575C17.2303 148.216 8.26323 145.881 8.2195 144.488C8.1724 142.976 9.61296 142.669 8.2666 141.866C6.92023 141.063 5.952 138.82 7.1093 138.324C8.2666 137.828 5.66873 134.687 7.08575 134.002C8.50276 133.317 3.92068 131.191 7.17995 128.428C10.4392 125.664 23.8787 129.372 24.9653 131.451C26.052 133.529 24.4223 134.521 22.2961 134.805C20.1706 135.088 10.0611 132.632 11.431 133.293C12.8009 133.954 25.9571 137.757 27.6809 140.497C29.4054 143.237 27.4447 144.583 25.6731 143.993C23.9015 143.402 22.2248 141.725 18.3041 140.804C14.3834 139.883 11.1006 139.977 12.1395 139.34C13.1791 138.702 18.9184 139.387 23.2166 141.961C27.5154 144.536 27.6809 147.866 25.7909 148.008C23.9015 148.15 11.2413 143.567 12.4934 143.449C13.7449 143.331 21.9644 145.41 23.8544 147.086C25.7438 148.763 18.9891 148.291 18.8236 148.22C18.6708 148.155 16.3993 114.653 16.0561 109.581C16.0407 109.356 16.3112 109.23 16.4733 109.387C20.4673 113.255 49.0929 140.969 49.2685 140.969C49.4576 140.969 49.1266 189.199 50.9217 189.577C52.6509 189.941 50.084 144.446 49.8936 141.114C49.8869 141.001 49.9589 140.898 50.0665 140.865L116.47 120.229C116.631 120.179 116.794 120.301 116.79 120.469C116.691 124.716 115.698 167.038 115.496 167.375C115.3 167.702 81.6883 178.987 76.6002 180.693C76.3809 180.766 76.1898 180.526 76.3123 180.329C78.2857 177.165 88.0999 162.219 95.5853 165.391C103.947 168.933 89.7753 139.102 101.254 144.346C112.248 149.368 116.492 121.941 116.83 119.616C116.845 119.521 116.801 119.426 116.721 119.374L76.4246 93.0797C76.3681 93.0427 76.2995 93.0306 76.2335 93.0461C73.4708 93.7001 15.6322 107.401 17.4772 108.138C19.3053 108.869 72.0639 96.16 75.4995 95.3317C75.6038 95.3068 75.6791 95.2173 75.6865 95.1104C75.8399 92.9209 77.5779 71.2916 86.6337 66.0017C95.5806 60.7757 111.42 60.2004 113.363 60.1486C113.476 60.1459 113.577 60.2199 113.607 60.3302C113.895 61.4001 115.575 66.7754 120.592 68.3465C120.868 68.4327 120.791 68.8397 120.502 68.8276C113.745 68.5363 113.054 62.3165 113.701 55.9399C114.41 48.9484 110.819 46.0672 111.859 41.107C112.898 36.1468 110.3 30.6671 111.67 30.4309C113.04 30.1948 119.511 35.6273 128.864 33.9264C138.218 32.2261 144.359 28.3525 144.075 28.1164C143.792 27.8802 122.015 15.8813 114.22 16.5905C106.426 17.299 95.703 24.9991 99.0572 25.8489C102.411 26.6993 108.363 27.3607 114.551 30.0528C120.74 32.7455 128.251 32.4623 134.533 30.0057C140.815 27.5491 144.878 28.0215 151.586 29.4863C158.294 30.9504 159.948 14.7953 152.531 7.56761C145.116 0.341235 131.558 -0.273074 122.867 1.75825C114.175 3.78958 114.364 14.7018 115.592 14.4656C116.82 14.2295 128.299 17.2055 135.715 20.7958C143.131 24.3861 145.258 25.1417 145.258 30.7633C145.258 36.385 144.927 38.6996 142.896 41.5807C140.865 44.4625 132.456 57.075 132.74 57.5473C133.024 58.0197 139.211 61.3738 140.817 60.9015C142.424 60.4291 143.415 58.4449 143.179 54.2881C142.943 50.1312 144.502 44.8877 146.627 45.502C148.753 46.1163 147.667 54.3358 149.367 53.8635C151.068 53.3912 156.217 43.9437 156.217 43.7547C156.217 43.5656 150.312 36.9051 150.123 36.0075C149.946 35.1678 151.093 33.5832 152.518 33.5765C152.67 33.5758 152.783 33.4372 152.757 33.2879C152.448 31.5459 152.542 30.1968 152.721 30.1968C152.91 30.1968 153.052 33.409 153.761 33.4561C153.761 33.4561 155.06 33.5503 154.753 35.4874C154.445 37.4245 153.548 38.8886 153.525 38.7938C153.501 38.6996 151.234 35.1092 149.368 34.9202C147.502 34.7311 145.652 39.3293 142.691 43.8637C139.973 48.0272 134.932 56.3726 134.125 57.7108C134.063 57.8151 133.934 57.8575 133.822 57.8111C133.127 57.5258 130.735 56.6444 129.559 57.5002C128.173 58.5082 126.221 60.9641 127.291 61.2796C128.362 61.5945 132.109 62.3817 131.795 61.7836C131.48 61.1854 128.015 60.1143 126.283 61.7203C124.551 63.3264 123.165 67.7665 124.394 66.696C125.622 65.6255 130.063 66.1295 129.401 65.3106C128.74 64.4918 124.52 64.9641 123.89 67.4207C123.26 69.8773 123.386 75.5769 124.835 77.0572C126.283 78.5375 128.551 76.27 127.795 74.7897C127.04 73.3095 126.976 70.9794 128.519 70.9161C130.062 70.8529 130.976 74.7265 130.314 75.5453C129.653 76.3642 127.732 75.8602 128.551 75.5453C129.37 75.2304 130.755 74.8839 130.818 77.183C130.881 79.4821 130.519 81.5922 133.731 86.3156C136.943 91.0396 144.052 98.5742 149.154 109.415C154.256 120.256 160.349 129.609 166.585 135.845C172.82 142.08 177.851 149.025 183.945 144.135C190.039 139.246 190.18 133.578 190.605 129.043C191.031 124.508 191.739 119.973 187.842 116.571C183.945 113.17 177.072 114.659 178.135 115.934C179.198 117.209 183.804 123.941 184.654 123.019C185.505 122.098 178.277 114.304 173.459 111.186C168.64 108.068 150.004 90.496 146.745 82.985C143.486 75.474 145.651 67.5142 146.375 64.113C147.099 60.7117 148.454 58.885 149.336 57.5628C150.218 56.24 148.674 54.099 149.871 54.5713C151.068 55.0437 152.17 62.4127 153.241 65.0583C154.311 67.704 147.51 81.718 146.722 80.332C145.934 78.9466 146.344 66.6012 147.477 65.5939C148.611 64.586 150.028 62.9483 149.934 60.6815C149.84 58.414 152.705 64.0195 157.051 67.5156C161.397 71.011 176.93 78.0261 178.419 79.939C179.907 81.8519 171.829 96.6613 170.554 95.3862C169.278 94.1105 177.214 79.2305 179.34 80.223C181.465 81.2147 186.496 92.3396 188.268 100.204C190.04 108.069 189.544 116.218 188.693 114.518C187.843 112.818 183.546 110.188 180.261 112.038C176.976 113.887 168.357 104.598 168.782 104.527C169.208 104.456 179.127 99.7086 177.285 97.7957C175.443 95.8828 168.074 104.244 164.177 111.4C160.28 118.556 155.697 149.711 152.863 157.457C150.029 165.204 129.811 181.832 129.434 175.785C129.055 169.739 152.863 152.922 153.997 158.968C155.075 164.716 154.103 197.291 154.005 200.496C154.001 200.636 154.113 200.75 154.251 200.75H195.189" stroke="#03373D" stroke-width="1.5" stroke-miterlimit="10"/>
</svg>
