<svg width="620" height="491" viewBox="0 0 620 491" fill="none" xmlns="http://www.w3.org/2000/svg">
<g clip-path="url(#clip0_2077_2322)">
<path d="M125.181 217.33H93.5171V222.523H125.181V217.33Z" fill="black"/>
<path d="M86.5205 217.33H31.0537V222.523H86.5205V217.33Z" fill="black"/>
<path d="M157.278 217.33H136.505V222.523H157.278V217.33Z" fill="black"/>
<path d="M122.522 313.105H148.975V308.767H122.522V313.105Z" fill="#8FA748"/>
<path d="M154.82 313.105H201.159V308.767H154.82V313.105Z" fill="#8FA748"/>
<path d="M95.7071 313.105H113.062V308.767H95.7071V313.105Z" fill="#8FA748"/>
<path d="M142.98 342.064H116.526V346.402H142.98V342.064Z" fill="#CAEB66"/>
<path d="M110.681 342.064H64.3428V346.402H110.681V342.064Z" fill="#CAEB66"/>
<path d="M169.795 342.064H152.44V346.402H169.795V342.064Z" fill="#CAEB66"/>
<path d="M150.271 262.981H176.724V258.643H150.271V262.981Z" fill="#CAEB66"/>
<path d="M182.569 262.981H228.908V258.643H182.569V262.981Z" fill="#CAEB66"/>
<path d="M123.456 262.981H140.811V258.643H123.456V262.981Z" fill="#CAEB66"/>
<path d="M97.5449 198.759H123.998V194.42H97.5449V198.759Z" fill="#CAEB66"/>
<path d="M129.843 198.759H176.182V194.42H129.843V198.759Z" fill="#CAEB66"/>
<path d="M70.7301 198.759H88.0845V194.42H70.7301V198.759Z" fill="#CAEB66"/>
<path d="M390.259 200.24L381.381 197.196L383.004 187.842L382.627 184.84L402.92 191.905L395.22 199.616L390.259 200.24Z" fill="#F46A44"/>
<path d="M386.981 199.599C386.981 199.599 387.799 187.517 399.9 190.98C412.001 194.443 416.564 198.272 414.458 204.049C412.432 209.607 404.392 214.218 399.267 211.391C399.267 211.391 403.954 209.323 401.732 207.085C398.088 203.413 396.3 205.804 396.3 205.804C396.3 205.804 389.614 206.708 386.981 199.599Z" fill="#F46A44"/>
<path d="M144.759 240.53H250.218L250.339 175.125L144.881 174.875L144.759 240.53Z" fill="#8FA748"/>
<path d="M139.492 175.479L255.725 175.757L255.77 152.924L139.534 152.649L139.492 175.479Z" fill="#8FA748"/>
<path opacity="0.5" d="M239.463 230.016C246.4 225.095 242.63 180.659 242.63 180.659L144.88 175.494L145.948 174.88L250.339 175.125L250.218 240.53H144.759C144.759 240.53 232.525 234.934 239.463 230.016Z" fill="#DEC196"/>
<path d="M139.534 152.649L218.002 152.836C215.974 152.831 151.021 152.726 147.229 155.753C143.372 158.83 146.429 169.325 146.429 169.325C146.429 169.325 255.732 172.672 255.725 175.757L139.493 175.479L139.534 152.649Z" fill="#8FA748"/>
<path d="M250.978 155.841C250.978 155.841 192.643 154.913 189.564 155.851C186.482 156.797 246.164 155.381 247.697 158.699C249.229 162.02 250.196 169.572 250.196 169.572L250.978 155.841Z" fill="#ACC857"/>
<path d="M537.723 418.435C537.723 423.668 455.089 427.912 353.151 427.912C251.212 427.912 168.572 423.668 168.572 418.435C168.572 413.204 251.212 408.959 353.151 408.959C455.089 408.959 537.723 413.204 537.723 418.435Z" fill="#CED1D2"/>
<path d="M177.419 368.331C177.419 396.003 199.851 418.436 227.524 418.436C255.195 418.436 277.629 396.003 277.629 368.331C277.629 340.664 255.195 318.229 227.524 318.229C199.851 318.229 177.419 340.664 177.419 368.331Z" fill="#231F20"/>
<path d="M195.24 368.331C195.24 386.163 209.695 400.618 227.524 400.618C245.353 400.618 259.81 386.163 259.81 368.331C259.81 350.501 245.353 336.048 227.524 336.048C209.695 336.048 195.24 350.501 195.24 368.331Z" fill="#8C8F92"/>
<path d="M200.619 368.331C200.619 383.191 212.666 395.236 227.524 395.236C242.381 395.236 254.429 383.191 254.429 368.331C254.429 353.474 242.381 341.431 227.524 341.431C212.666 341.431 200.619 353.474 200.619 368.331Z" fill="#59595B"/>
<path d="M214.345 368.331C214.345 375.611 220.246 381.51 227.523 381.51C234.8 381.51 240.7 375.611 240.7 368.331C240.7 361.055 234.8 355.158 227.523 355.158C220.246 355.158 214.345 361.055 214.345 368.331Z" fill="#6D6E71"/>
<path d="M334.747 367.535L328.189 377.405C328.189 377.405 326.218 380.881 320.353 381.196C314.486 381.511 280.961 383.312 280.961 383.312C280.961 383.312 272.579 383.763 266.557 381.145C260.531 378.526 258.787 377.781 252.944 378.095C247.102 378.409 230.874 379.281 230.874 379.281C230.874 379.281 225.347 380.695 219.524 374.002C214.939 368.736 210.91 362.282 210.91 362.282L257.004 359.806C257.004 359.806 285.809 371.846 334.747 367.535Z" fill="#2D2D2D"/>
<path d="M440.184 219.927C449.178 219.927 456.468 212.637 456.468 203.644C456.468 194.651 449.178 187.361 440.184 187.361C431.191 187.361 423.9 194.651 423.9 203.644C423.9 212.637 431.191 219.927 440.184 219.927Z" fill="#FFE25F"/>
<path d="M451.227 214.898C439.394 214.898 430.307 204.069 428.199 192.944C428.169 192.88 428.133 192.818 428.103 192.753C425.499 195.64 423.9 199.45 423.9 203.643C423.9 212.636 431.191 219.926 440.184 219.926C444.819 219.926 448.99 217.981 451.955 214.873C451.712 214.877 451.471 214.898 451.227 214.898Z" fill="#F5CA31"/>
<path d="M475.408 307.885C475.408 307.885 476.557 301.4 472.509 289.257C468.461 277.114 448.799 272.198 448.799 272.198L424.655 219.288L438.39 220.155V186.327H422.776C422.776 186.327 398.941 195.923 401.56 202.751C404.178 209.579 433.185 285.209 433.185 285.209C433.185 356.335 388.946 349.396 388.946 349.396C388.946 349.396 365.928 349.396 349.447 349.396C332.965 349.396 305.207 349.396 305.207 317.302C305.207 285.209 339.905 273.065 339.905 273.065H237.546C186.367 273.933 162.069 341.664 162.069 341.664C157.154 352.221 155.14 368.478 155.14 368.478H338.17C371.422 368.478 407.182 367.828 420.505 362.173C426.299 334.842 447.964 313.377 475.408 307.885Z" fill="#73863A"/>
<path d="M422.395 207.289C419.603 207.682 422.718 213.712 424.708 219.291L438.39 220.155V204.172" fill="#5B6A2E"/>
<path d="M266.75 363.274C266.75 363.274 354.588 368.605 389.235 359.804C423.882 351.004 434.92 312.387 433.185 285.209C433.185 356.335 388.946 349.396 388.946 349.396C388.946 349.396 365.928 349.396 349.447 349.396C332.965 349.396 305.207 349.396 305.207 317.302C305.207 285.209 339.905 273.065 339.905 273.065H237.546C186.367 273.933 162.069 341.664 162.069 341.664C157.154 352.221 155.14 368.478 155.14 368.478H268.336L266.75 363.274Z" fill="#CAEB66"/>
<path d="M207.764 281.74H186.315C186.315 281.74 163.814 291.57 171.332 302.557C171.332 302.557 180.585 309.496 183.476 306.027L207.764 281.74Z" fill="#C91C0F"/>
<path d="M193.076 281.74C191.278 284.744 178.851 300.744 172.647 303.47C175.301 305.227 181.256 308.69 183.476 306.027L207.764 281.74L193.076 281.74Z" fill="#898989"/>
<path d="M227.137 312.292C194.693 312.292 168.391 338.593 168.391 371.036H285.884C285.884 338.593 259.582 312.292 227.137 312.292Z" fill="#3A3A44"/>
<path d="M237.33 313.192C234.017 312.612 230.616 312.292 227.137 312.292C194.693 312.292 168.391 338.593 168.391 371.036H188.775C188.775 342.071 209.746 318.02 237.33 313.192Z" fill="#808285"/>
<path d="M339.905 270.464C320.836 270.464 301.768 270.464 282.7 270.464C267.372 270.464 251.655 269.433 236.355 270.528C187.166 274.048 160.766 325.052 152.63 367.787C152.006 371.066 157.022 372.465 157.649 369.17C165.215 329.429 190.206 277.544 237.374 275.673C271.441 274.321 305.807 275.668 339.905 275.668C343.261 275.668 343.261 270.464 339.905 270.464Z" fill="#5B6A2E"/>
<path d="M440.184 184.317C439.176 184.317 438.358 185.135 438.358 186.143V219.927C438.358 220.935 439.176 221.753 440.184 221.753C441.193 221.753 442.011 220.935 442.011 219.927V213.535L451.446 184.317H440.184Z" fill="#CAEB66"/>
<path d="M438.358 203.102V219.927C438.358 220.935 439.176 221.753 440.184 221.753C441.193 221.753 442.011 220.935 442.011 219.927V213.535L444.765 205.006C442.498 204.744 440.357 204.076 438.358 203.102Z" fill="#5B6A2E"/>
<path d="M436.076 282.153H445.329C445.329 282.153 450.534 297.187 445.329 305.861H436.076C436.076 305.861 440.124 290.248 436.076 282.153Z" fill="#FFE25F"/>
<path d="M439.691 301.111C439.691 301.111 442.45 290.428 441.112 282.153H436.076C440.124 290.248 436.076 305.861 436.076 305.861H445.329C446.192 304.423 446.748 302.802 447.11 301.111H439.691Z" fill="#F5CA31"/>
<path d="M254.679 364.141C254.679 364.86 254.096 365.443 253.377 365.443H195.693C194.974 365.443 194.391 364.86 194.391 364.141C194.391 363.423 194.974 362.84 195.693 362.84H253.377C254.096 362.84 254.679 363.423 254.679 364.141Z" fill="#808285"/>
<path d="M254.679 358.503C254.679 359.222 254.096 359.804 253.377 359.804H195.693C194.974 359.804 194.391 359.222 194.391 358.503C194.391 357.785 194.974 357.202 195.693 357.202H253.377C254.096 357.202 254.679 357.785 254.679 358.503Z" fill="#808285"/>
<path d="M254.679 352.866C254.679 353.584 254.096 354.167 253.377 354.167H195.693C194.974 354.167 194.391 353.584 194.391 352.866C194.391 352.147 194.974 351.564 195.693 351.564H253.377C254.096 351.565 254.679 352.147 254.679 352.866Z" fill="#808285"/>
<path d="M247.499 347.538C247.499 348.085 247.055 348.529 246.508 348.529H202.562C202.015 348.529 201.571 348.085 201.571 347.538C201.571 346.99 202.015 346.546 202.562 346.546H246.508C247.055 346.546 247.499 346.99 247.499 347.538Z" fill="#808285"/>
<path d="M247.499 343.242C247.499 343.79 247.055 344.233 246.508 344.233H202.562C202.015 344.233 201.571 343.79 201.571 343.242C201.571 342.695 202.015 342.251 202.562 342.251H246.508C247.055 342.251 247.499 342.695 247.499 343.242Z" fill="#808285"/>
<path d="M247.499 338.947C247.499 339.495 247.055 339.939 246.508 339.939H202.562C202.015 339.939 201.571 339.495 201.571 338.947C201.571 338.4 202.015 337.956 202.562 337.956H246.508C247.055 337.956 247.499 338.4 247.499 338.947Z" fill="#808285"/>
<path d="M396.364 202.753L415.536 193.69C415.536 193.69 417.967 192.973 419.842 193.69C422.968 194.886 424.6 199.551 421.462 202.753C417.621 206.67 401.244 213.558 401.244 213.558L396.364 202.753Z" fill="#CAEB66"/>
<path d="M398.119 206.639L401.244 213.558C401.244 213.558 417.621 206.67 421.462 202.752C423.309 200.868 423.495 198.482 422.706 196.589C414.885 201.27 406.595 204.164 398.119 206.639Z" fill="#5B6A2E"/>
<path d="M392.98 207.981C392.98 211.446 395.789 214.255 399.255 214.255C402.72 214.255 405.529 211.446 405.529 207.981C405.529 204.516 402.72 201.707 399.255 201.707C395.789 201.707 392.98 204.516 392.98 207.981Z" fill="#B8B8B8"/>
<path d="M384.895 209.066L399.255 204.145C399.255 204.145 403.927 204.271 403.435 207.981C403.435 207.981 402.943 210.215 400.974 210.707L386.7 214.973L384.895 209.066Z" fill="#333333"/>
<path d="M390.309 211.738C390.309 213.525 388.62 214.973 386.536 214.973C384.451 214.973 382.762 213.525 382.762 211.738C382.762 209.952 384.451 208.504 386.536 208.504C388.62 208.504 390.309 209.952 390.309 211.738Z" fill="black"/>
<path d="M210.699 277.329C210.699 277.329 209.99 277.645 208.182 278.591C207.295 279.054 205.987 279.808 205.987 279.808L162.523 241.816L170.212 241.926L210.699 277.329Z" fill="#D4D4D5"/>
<path d="M259.941 239.016H135.321V242.807H259.941V239.016Z" fill="#BABCBE"/>
<path d="M218.322 242.815C218.322 242.815 263.429 245.078 285.979 239.986C308.53 234.893 332.656 232.064 337.378 241.119C342.099 250.172 347.342 265.451 344.195 268.278C341.049 271.111 333.183 272.244 327.938 272.244C322.69 272.244 210.577 272.244 210.577 272.244C210.577 272.244 207.31 272.808 204.687 263.755C202.066 254.702 197.344 239.986 218.322 242.815Z" fill="#414042"/>
<path d="M204.687 263.755C203.079 258.198 200.691 250.522 203.921 246.06C204.206 267.421 218.323 265.451 238.604 263.188C258.883 260.924 307.133 258.659 324.614 257.907C342.088 257.152 339.842 246.331 339.838 246.312C343.663 255.113 346.798 265.944 344.195 268.278C341.05 271.111 333.183 272.244 327.938 272.244C322.69 272.244 210.577 272.244 210.577 272.244C210.577 272.244 207.311 272.808 204.687 263.755Z" fill="#9A9A9A"/>
<path d="M430.691 368.331C430.691 396.003 453.125 418.436 480.796 418.436C508.467 418.436 530.903 396.003 530.903 368.331C530.903 340.664 508.467 318.229 480.796 318.229C453.125 318.229 430.691 340.664 430.691 368.331Z" fill="#231F20"/>
<path d="M448.513 368.331C448.513 386.163 462.969 400.618 480.796 400.618C498.624 400.618 513.085 386.163 513.085 368.331C513.085 350.501 498.624 336.048 480.796 336.048C462.969 336.048 448.513 350.501 448.513 368.331Z" fill="#8C8F92"/>
<path d="M453.893 368.331C453.893 383.191 465.938 395.236 480.796 395.236C495.654 395.236 507.701 383.191 507.701 368.331C507.701 353.474 495.654 341.431 480.796 341.431C465.938 341.431 453.893 353.474 453.893 368.331Z" fill="#59595B"/>
<path d="M467.619 368.331C467.619 375.611 473.523 381.51 480.796 381.51C488.076 381.51 493.975 375.611 493.975 368.331C493.975 361.055 488.076 355.158 480.796 355.158C473.523 355.158 467.619 361.055 467.619 368.331Z" fill="#6D6E71"/>
<path d="M480.846 363.819C481.854 365.541 481.37 367.925 479.77 369.118L479.72 369.158C478.124 370.352 475.7 370.14 474.336 368.686L443.159 335.534C441.795 334.082 441.98 331.917 443.582 330.723L453.138 323.579C454.733 322.388 456.862 322.817 457.87 324.537L480.846 363.819Z" fill="#D4D4D5"/>
<path opacity="0.5" d="M453.138 323.579L443.582 330.723C441.98 331.917 441.795 334.082 443.158 335.534L447.56 340.218C447.56 340.216 451.225 329.56 459.849 336.12C468.48 342.681 475.582 360.011 475.75 363.082C475.913 366.149 470.937 365.073 470.937 365.073L474.336 368.686C475.699 370.14 478.123 370.352 479.719 369.157L479.77 369.118C481.369 367.925 481.853 365.541 480.845 363.819L457.869 324.537C456.862 322.817 454.732 322.388 453.138 323.579Z" fill="#D4D4D5"/>
<path d="M417.15 375.084H446.642C446.642 375.084 465.408 335.16 529.193 335.16C529.193 335.16 522.063 293.44 468.345 306.002C414.633 318.561 417.15 375.084 417.15 375.084Z" fill="#CAEB66"/>
<path d="M429.6 366.114L446.642 375.084H417.151C417.151 375.084 414.633 318.561 468.345 306.002C480.439 303.174 490.152 303.112 497.973 304.688C496.501 304.64 443.869 300.017 429.6 366.114Z" fill="#CACDCE"/>
<path d="M524.159 332.02C524.159 332.02 484.434 332.319 455.339 357.142C455.339 357.142 473.664 331.121 514.367 327.834C514.367 327.834 512.689 313.478 501.779 308.095C501.779 308.095 516.046 311.084 524.159 332.02Z" fill="#5B6A2E"/>
<path d="M263.744 377.351H287.767L285.483 375.853H262.374L263.744 377.351Z" fill="#59595B"/>
<path d="M260.975 374.275H283.118L281.173 373H259.81L260.975 374.275Z" fill="#59595B"/>
<path d="M377.844 331.357C377.844 331.357 378.563 340.766 379.24 343.95C379.24 343.95 406.984 346.223 413.578 344.178C420.173 342.13 419.266 337.809 414.26 335.08C409.259 332.352 395.619 329.809 395.619 329.809C395.619 329.809 382.165 331.812 377.844 331.357Z" fill="#231F20"/>
<path d="M367.983 334.852C367.983 334.852 368.7 344.263 369.379 347.447C369.379 347.447 397.125 349.721 403.717 347.675C410.312 345.628 409.405 341.306 404.403 338.578C399.396 335.853 385.758 333.306 385.758 333.306C385.758 333.306 372.302 335.309 367.983 334.852Z" fill="#414042"/>
<path d="M260.138 211.32C260.138 211.32 250.963 249.634 280.724 255.333C310.489 261.031 342.782 248.046 343.416 254.378C344.052 260.711 377.897 331.513 377.897 331.513C377.897 331.513 388.136 336.406 401.435 330.072C401.435 330.072 373.495 241.081 370.331 234.115C367.163 227.152 347.504 214.813 334.268 218.114C321.035 221.415 307.942 225.252 260.138 211.32Z" fill="#1E5159"/>
<path d="M259.062 211.32C259.062 211.32 250.963 249.634 280.724 255.333C310.489 261.031 342.782 248.046 343.416 254.378C344.052 260.711 366.905 334.852 366.905 334.852C366.905 334.852 380.111 339.744 393.408 333.411C393.408 333.411 373.495 241.081 370.331 234.115C367.163 227.152 347.504 214.813 334.268 218.114C321.035 221.415 308.782 216.069 259.062 211.32Z" fill="#393945"/>
<path opacity="0.5" d="M349.944 256.277C351.21 254.378 350.576 242.982 326.511 248.046C302.449 253.113 279.335 250.898 271.738 244.57C264.138 238.235 259.072 218.285 285.666 224.616C312.254 230.95 334.255 218.121 334.272 218.114C334.272 218.114 334.272 218.114 334.269 218.114C321.036 221.415 308.782 216.069 259.062 211.32C259.062 211.32 250.963 249.634 280.725 255.333C310.489 261.031 342.782 248.046 343.416 254.378C343.932 259.516 363.454 323.081 365.965 331.65C362.49 318.491 348.775 258.026 349.944 256.277Z" fill="#393945"/>
<g opacity="0.5">
<path d="M379.996 336.65C380.094 336.648 380.197 336.646 380.304 336.644C380.197 336.639 380.098 336.654 379.996 336.65Z" fill="#393945"/>
<path d="M381.777 336.567C385.179 336.315 389.135 335.446 393.408 333.411C393.408 333.411 375.491 252.011 371.603 237.998C371.633 238.171 391.493 329.257 390.054 331.659C388.817 333.717 385.389 336.089 381.777 336.567Z" fill="#393945"/>
</g>
<path d="M333.782 158.037C331.408 163.507 331.859 173.33 329.302 178.716C333.72 179.806 338.056 181.269 341.995 183.454C344.389 184.781 346.599 186.354 348.596 188.123L384.023 199.103L389.997 181.054C389.997 181.054 336.255 158.625 333.782 158.037Z" fill="#8FA748"/>
<path d="M331.073 174.999C330.49 176.241 329.896 177.478 329.307 178.717C333.723 179.807 338.057 181.27 341.995 183.454C344.68 184.943 347.134 186.741 349.315 188.779L384.023 199.103L387.011 189.763C369.501 184.816 347.066 179.537 331.073 174.999Z" fill="#8FA748"/>
<path d="M384.2 206.42L375.771 202.292L378.548 193.215V190.188L397.802 199.729L389.2 206.42H384.2Z" fill="#FF8E64"/>
<path d="M388.063 204.163C387.17 204.026 386.505 203.621 386.031 203.082C385.118 202.48 384.507 201.448 384.681 200.021C384.829 198.8 385.197 197.623 385.658 196.487C385.942 195.788 386.417 194.676 386.404 194.314C386.402 194.237 386.411 194.162 386.412 194.085L378.548 190.188V193.214L375.771 202.292L384.2 206.42H389.199L390.807 205.169C389.892 204.663 388.962 204.302 388.063 204.163Z" fill="#F46A44"/>
<path d="M340.952 93.1975L326.278 119.461L305.139 101.442L310.126 81.9648L340.952 93.1975Z" fill="#F46A44"/>
<path d="M298.849 81.2056L349.851 103.984L340.191 114.512L341.351 160.712L386.333 186.567L377.98 204.097L342.619 188.07L342.95 214.492C342.95 214.492 294.184 236.384 259.588 213.651C259.588 213.651 248.893 142.586 297.4 95.0016C299.932 92.5182 296.006 83.5097 298.849 81.2056Z" fill="#ACC857"/>
<path opacity="0.2" d="M342.95 199.607C340.331 200.403 338.734 200.67 335.851 200.677C309.253 200.748 280.849 188.171 274.534 159.924C271.597 146.785 273.138 134.135 277.729 122.569C277.729 122.367 277.718 122.163 277.719 121.96C277.723 121.385 277.775 120.786 277.787 120.206C253.353 158.75 259.588 213.651 259.588 213.651C294.184 236.384 342.95 214.493 342.95 214.493V199.607H342.95Z" fill="#080808"/>
<path d="M309.861 164.231C304.617 160.389 298.346 124.365 298.346 124.365C298.346 124.365 300.588 142.516 300.588 157.977C300.588 172.173 316.326 176.998 316.326 176.998L377.979 204.098L382.197 195.013C356.217 184.017 318.825 170.799 309.861 164.231Z" fill="#8FA748"/>
<path d="M386.333 186.567L332.657 156.625L327.519 112.678C327.519 112.678 326.088 102.729 312.179 99.252" stroke="#8FA748" stroke-width="7.4782" stroke-miterlimit="10"/>
<path d="M381.027 205.376C381.027 205.376 383.345 193.49 394.92 198.435C406.495 203.38 410.545 207.749 407.735 213.218C405.031 218.479 396.479 222.052 391.747 218.608C391.747 218.608 396.656 217.141 394.73 214.643C391.572 210.545 389.5 212.695 389.5 212.695C389.5 212.695 382.753 212.757 381.027 205.376Z" fill="#FF8E64"/>
<path d="M397.199 211.419C395.451 208.5 391.531 204.697 388.063 204.163C387.171 204.026 386.505 203.62 386.031 203.082C385.118 202.48 384.507 201.448 384.681 200.021C384.729 199.623 384.808 199.231 384.899 198.842C381.84 201.216 381.027 205.375 381.027 205.375C382.753 212.756 389.5 212.694 389.5 212.694C389.5 212.694 391.572 210.545 394.73 214.642C396.655 217.14 391.747 218.607 391.747 218.607C393.958 220.216 397 220.281 399.892 219.37C399.241 216.608 398.613 213.78 397.199 211.419Z" fill="#F46A44"/>
<path d="M373.135 76.3368C373.135 76.3368 368.438 70.2824 367.928 67.3858C367.631 65.7077 369.025 62.2386 369.152 60.5391C369.418 56.9421 368.972 47.5493 368.972 47.5493L345.229 41.479L337.234 56.0372L335.373 78.2578C335.373 78.2578 333.749 82.8149 338.416 88.9284C340.959 92.2593 347.187 95.2586 352.913 97.2343C355.611 98.165 358.278 99.4998 360.248 99.3738C361.785 99.2749 364.152 97.2504 364.589 96.2155C365.308 94.5097 364.654 92.9697 365.102 91.1736C365.762 88.5186 366.814 89.0677 365.946 88.5485C365.744 88.4281 365.527 88.2977 365.303 88.1632C362.087 87.4209 366.959 87.2416 368.047 85.9656C368.291 85.6782 368.399 83.6947 368.404 82.4713C368.407 81.6337 368.417 79.6443 368.417 79.6443C368.417 79.6443 370.585 79.089 371.272 78.8086C373.527 77.8923 373.135 76.3368 373.135 76.3368Z" fill="#FFB287"/>
<path d="M367.36 47.5703C366.41 47.4221 352.186 45.901 357.138 47.567C362.09 49.2332 367.146 53.766 369.202 54.3652C369.148 51.724 369.042 49.1496 368.996 48.0746C368.322 47.8229 367.699 47.6231 367.36 47.5703Z" fill="#ED8366"/>
<path d="M371.494 53.4362C371.414 53.3877 375.529 50.7731 375.529 50.7731C375.529 50.7731 370.455 48.4411 365.891 44.6C361.326 40.7589 348.198 51.8849 348.198 51.8849C348.198 51.8849 352.994 53.407 358.674 55.8677C363.157 57.8094 367.149 59.8025 369.046 59.9782C371.223 60.1796 373.325 59.8923 374.814 58.0662C376.814 55.6127 377.545 52.3563 377.545 52.3563C377.545 52.3563 373.824 54.855 371.494 53.4362Z" fill="black"/>
<path d="M328.748 72.6917C331.548 77.8262 333.239 81.049 336.618 79.4434C340.001 77.8365 336.094 74.987 337.274 69.4991C339.286 60.1454 333.48 60.2551 330.271 62.1811C327.024 64.1302 326.774 69.0725 328.748 72.6917Z" fill="#FFB287"/>
<path d="M354.638 64.0834C356.164 62.8114 362.669 62.2826 365.062 63.0034C365.735 63.2066 364.539 67.991 363.191 67.5843C360.084 66.648 357.669 67.9152 355.813 68.0692C355.18 68.1226 351.96 66.3164 354.638 64.0834Z" fill="#ED8366"/>
<path d="M362.378 66.4287C359.694 63.7497 356.635 66.2815 355.724 67.6737C355.452 68.0883 354.697 68.3926 359.641 69.781C360.391 69.9916 361.238 69.9729 361.519 70.0093C362.34 70.1158 362.159 69.3948 362.441 68.8775C362.857 68.117 363.272 67.3214 362.378 66.4287Z" fill="white"/>
<path d="M361.943 66.1464C362.962 66.189 362.807 66.0939 362.984 66.6145C363.397 66.7712 363.623 65.9533 363.069 65.3914C361.232 63.5283 358.017 64.2754 354.82 67.6224C354.277 68.1909 355.258 68.3716 355.655 68.8927C357.02 67.5872 359.871 66.0598 361.943 66.1464Z" fill="#FFB287"/>
<path d="M363.149 68.132C363.08 69.2398 362.397 70.0992 361.623 70.0506C360.853 70.0036 360.059 69.0438 360.128 67.9362C360.198 66.8266 361.102 65.988 361.873 66.0351C362.647 66.0841 363.217 67.0218 363.149 68.132Z" fill="#6D362D"/>
<path d="M362.358 68.0835C362.329 68.5646 362.03 68.9378 361.694 68.9159C361.359 68.8964 361.11 68.488 361.14 68.0074C361.171 67.5238 361.467 67.1476 361.802 67.1704C362.139 67.1913 362.39 67.6002 362.358 68.0835Z" fill="#211F1F"/>
<path d="M356.383 67.8095C360.744 65.7669 362.627 66.0324 363.182 66.6052" stroke="#9B5843" stroke-width="5.9999" stroke-miterlimit="10" stroke-linecap="round" stroke-linejoin="round"/>
<path d="M353.963 64.0967C353.695 64.3779 353.765 65.5404 354.511 64.8428C355.257 64.1452 359.544 61.9394 365.503 63.5807C365.503 63.5807 366.588 62.2931 366.478 61.6413C366.367 60.9898 358.83 58.9991 353.963 64.0967Z" fill="#6D2925"/>
<path d="M335.075 77.826C333.921 77.9431 332.336 75.0365 330.657 71.9588L330.528 71.7211C329.103 69.1095 329.076 65.2632 331.315 63.9195C331.974 63.5235 332.746 63.2566 333.432 63.1867C334.173 63.1112 334.715 63.2586 335.043 63.6251C335.387 64.0098 336.101 65.3107 335.292 69.0731C334.655 72.0355 335.254 74.3176 335.692 75.9838C335.825 76.4906 336.003 77.1668 336.006 77.467C335.958 77.5007 335.877 77.5509 335.748 77.6121C335.49 77.7348 335.264 77.8068 335.076 77.826H335.075Z" fill="#ED8366"/>
<path d="M335.943 71.4456C335.632 70.9221 335.121 69.9246 335.074 71.294C335.028 72.6633 335.417 75.1125 334.23 75.1723C333.042 75.2321 332.687 73.76 331.74 72.7876C331.131 72.1613 330.136 71.7871 329.637 69.418C329.637 69.418 329.188 69.626 329.107 68.362C329.025 67.0981 328.213 66.7768 328.463 68.5675C328.712 70.3583 329.794 72.7383 330.62 74.1111C331.445 75.4838 332.684 78.8936 334.112 78.9537C335.539 79.0139 337.665 78.8045 337.812 78.4378C337.959 78.0711 338.504 77.1895 338.438 76.7789C338.371 76.3684 338.453 75.0088 338.041 74.3237C337.629 73.6387 335.943 71.4456 335.943 71.4456Z" fill="#FFB287"/>
<path d="M335.464 68.1221C335.263 69.0084 334.254 69.3308 334.563 70.7315C334.873 72.1321 335.076 71.9911 335.098 72.9708C335.12 73.9505 335.735 73.2115 335.75 73.755C335.75 73.755 337.135 73.0297 337.071 72.399C337.006 71.7684 337.068 70.9472 336.943 69.875C336.817 68.8028 335.665 67.2357 335.464 68.1221Z" fill="#FFB287"/>
<path d="M370.049 78.3488C367.851 78.6446 366.576 77.5669 365.758 78.3214C364.939 79.0761 366.123 80.0223 368.416 79.6441C368.417 79.6436 370.584 79.0886 371.271 78.8084C373.527 77.8922 373.134 76.3369 373.134 76.3369C373.139 76.8792 373.326 77.9079 370.049 78.3488Z" fill="#ED8366"/>
<path d="M361.418 54.3655C363.391 54.2308 370.526 54.0346 372.334 49.0148C372.334 49.0148 367.902 49.7308 361.841 45.5122C355.781 41.2933 354.463 48.5156 354.463 48.5156L358.424 52.2855L361.418 54.3655Z" fill="#6D2925"/>
<path d="M359.385 85.125C359.385 85.125 362.772 88.7494 365.464 89.2997C366.453 89.5019 366.924 88.2899 366.512 87.141L359.385 85.125Z" fill="#FF8A54"/>
<path d="M357.989 84.1245C362.199 85.2287 365.032 85.1479 366.75 85.2566C367.645 85.3131 368.261 85.1905 368.273 85.2893C368.315 85.6352 367.725 87.2558 366.468 87.3427C365.501 87.4095 360.951 85.7745 359.026 84.9284C358.449 84.6747 357.989 84.1245 357.989 84.1245Z" fill="#E27961"/>
<path d="M358.083 84.0859C358.787 86.1972 361.019 85.0509 358.638 86.6695C356.258 88.2879 354.753 84.4514 354.753 84.4514L358.083 84.0859Z" fill="#FFB287"/>
<path d="M308.569 82.2504C308.569 82.2504 297.024 77.2682 298.472 56.8921C299.214 46.4571 305.751 30.125 324.067 23.7854C334.753 20.0866 353.653 19.4299 368.212 33.647C368.212 33.647 379.952 46.5609 378.309 57.5965C378.309 57.5965 355.87 49.8625 351.54 61.5882C349.736 66.4716 349.192 72.1542 354.123 82.2505C354.123 82.2505 359.054 93.6383 343.732 97.4644C340.582 98.2511 337.157 98.0996 327.276 91.9556L308.569 82.2504Z" fill="#8FA748"/>
</g>
<defs>
<clipPath id="clip0_2077_2322">
<rect width="620" height="491" fill="white"/>
</clipPath>
</defs>
</svg>
