<svg width="579" height="485" viewBox="0 0 579 485" fill="none" xmlns="http://www.w3.org/2000/svg">
<path d="M481.605 424.789C481.605 424.789 494.353 424.789 494.353 413.105C494.353 401.421 478.419 404.607 473.107 390.267C467.795 375.927 449.206 362.119 434.333 377.521C419.461 392.922 422.648 396.64 404.588 393.985C386.53 391.329 386.53 401.421 389.186 407.263C391.841 413.105 372.72 403.013 370.595 412.573C368.471 422.133 375.907 424.257 389.717 424.257C403.526 424.257 481.605 424.789 481.605 424.789Z" fill="#50930F"/>
<path opacity="0.2" d="M297.071 450.165C402.701 450.165 488.33 447.014 488.33 443.128C488.33 439.242 402.701 436.092 297.071 436.092C191.442 436.092 105.812 439.242 105.812 443.128C105.812 447.014 191.442 450.165 297.071 450.165Z" fill="#3E495B"/>
<path d="M29.7731 234.175C32.2022 230.885 36.7144 229.877 40.9786 231.289C41.024 226.507 43.1764 222.163 47.1353 219.92C52.4546 216.904 59.3424 218.623 63.9894 223.651C66.7915 218.734 71.9054 215.242 77.9762 214.757C87.6887 213.986 96.1935 221.201 97.0256 230.893C101.725 229.189 106.771 230.398 109.179 234.144C112.06 238.624 110.058 248.448 101.69 248.448C84.6633 248.448 54.4064 248.933 36.9889 248.933C26.1113 248.933 26.6033 238.455 29.7731 234.175Z" fill="#8ACDE8"/>
<path d="M438.076 162.526C440.458 159.3 444.883 158.311 449.063 159.696C449.109 155.006 451.219 150.747 455.101 148.547C460.318 145.59 467.073 147.275 471.629 152.206C474.377 147.384 479.392 143.959 485.345 143.484C494.869 142.727 503.209 149.804 504.026 159.308C508.635 157.636 513.583 158.822 515.944 162.495C518.769 166.889 516.805 176.522 508.601 176.522C491.903 176.522 462.232 176.999 445.151 176.999C434.484 176.999 434.967 166.723 438.076 162.526Z" fill="#8ACDE8"/>
<path d="M399.181 405.615C330.261 430.511 305.922 350.55 247.427 376.827C188.933 403.104 127.202 415.554 98.5345 315.772C69.8669 215.989 123.729 163.646 211.665 184.724C300.472 206.011 323.352 122.951 406.689 144.267C522.813 173.971 512.631 364.634 399.181 405.615Z" fill="#84DCF7"/>
<path d="M179.265 424.789C179.265 424.789 192.013 424.789 192.013 413.105C192.013 401.421 176.078 404.607 170.767 390.267C165.455 375.927 146.865 362.119 131.993 377.521C117.12 392.922 120.308 396.64 102.248 393.985C84.1893 391.329 84.1893 401.421 86.8452 407.263C89.501 413.105 70.3796 403.013 68.2551 412.573C66.1306 422.133 73.5663 424.257 87.376 424.257C101.186 424.257 179.265 424.789 179.265 424.789Z" fill="#50930F"/>
<mask id="mask0_2078_2638" style="mask-type:luminance" maskUnits="userSpaceOnUse" x="90" y="140" width="400" height="271">
<path d="M399.181 405.615C330.261 430.511 305.922 350.55 247.427 376.827C188.933 403.104 127.202 415.554 98.5345 315.772C69.8669 215.989 123.729 163.646 211.665 184.724C300.472 206.011 323.352 122.951 406.689 144.267C522.813 173.971 512.631 364.634 399.181 405.615Z" fill="white"/>
</mask>
<g mask="url(#mask0_2078_2638)">
<path d="M282.862 414.605L282.257 241.933H306.625V248.578H312.072V243.414L313.184 226.405H334.486L335.598 243.414V261.043H341.46V206.747H361.297V256.308H371.542V245.289H377.54V238.652H391.346V245.289H397.009V267.292H403.023V237.911H405.482V230.421H405.516L406.598 217.766H427.899L428.981 230.421H429.011V237.911H431.095V246.04H435.457V203.882H442.89V197.237H467.262V203.882H474.283V230.134L496.867 230.441V257.461H503.837V204.799H534.588V247.108H542.274V414.605H282.862Z" fill="#53C6E0"/>
<path d="M347.306 416.865L347.9 286.362H324.002V292.879H318.66V287.814L317.568 271.134H296.677L295.586 287.814V305.104H289.838V251.854H270.382V300.46H260.334V289.654H254.452V283.144H240.912V289.654H235.358V311.232H229.461V282.418H227.048V275.071H227.015L225.954 262.66H205.063L204.002 275.071H203.972V282.418H201.928V290.391H197.651V249.044H190.36V242.526H166.458V249.044H159.573V274.79L137.423 275.092V301.59H130.588V249.943H100.429V291.437H92.8906V416.865H347.306Z" fill="#3DB1C4"/>
</g>
<path d="M337.543 424.655C337.543 424.655 331.369 425.054 331.369 418.681C331.369 412.308 340.531 413.105 347.303 407.727C354.075 402.35 363.437 399.959 370.408 404.54C377.379 409.121 383.952 388.009 399.488 396.374C415.024 404.739 423.191 412.905 435.54 411.909C447.889 410.913 448.487 424.257 437.731 424.257C430.959 424.257 337.543 424.655 337.543 424.655Z" fill="#73AD04"/>
<path d="M112.726 424.655C112.726 424.655 106.551 425.054 106.551 418.681C106.551 412.308 115.714 413.105 122.486 407.727C129.258 402.35 138.619 399.959 145.591 404.54C152.562 409.121 159.135 388.009 174.671 396.374C190.208 404.739 198.374 412.905 210.723 411.909C223.073 410.913 223.67 424.257 212.914 424.257C206.142 424.257 112.726 424.655 112.726 424.655Z" fill="#73AD04"/>
<path d="M322.189 287.925C322.189 287.925 294.965 285.817 273.301 284.667C273.301 284.667 264.098 283.516 263.523 294.251C262.948 304.987 269.466 363.263 269.466 363.263C269.466 363.263 274.451 364.797 281.353 364.414C281.353 364.414 284.037 337.767 282.311 314.188C282.311 314.188 310.877 308.437 322.189 287.925Z" fill="#161616"/>
<path d="M269.562 363.167L268.987 377.449L285.794 374.95L281.257 364.222L269.562 363.167Z" fill="#ACC857"/>
<path d="M273.291 369.613C273.291 369.613 264.759 374.247 257.8 376.127C250.841 378.008 241.405 380.553 241.405 380.553C241.405 380.553 239.047 382.655 239.872 385.531C240.698 388.408 246.949 389.957 255.441 389.957C263.933 389.957 289.569 389.144 289.896 386.345C290.79 378.682 284.276 368.72 284.276 368.72C284.276 368.72 279.805 375.744 273.291 369.613Z" fill="#161616"/>
<path d="M250.959 377.897C250.959 377.897 258.979 375.132 266.882 369.6C266.882 369.6 266.882 364.068 268.297 363.737C269.713 363.405 275.079 371.146 275.079 371.146C275.079 371.146 271.482 376.57 250.959 377.897Z" fill="#1C1B1B"/>
<path d="M297.646 177.318C297.646 177.318 298.505 186.425 299.707 188.316C299.707 188.316 302.801 199.657 305.551 201.203C308.3 202.75 316.721 194.502 316.721 194.502L313.284 175.084C313.284 175.084 303.317 175.255 297.646 177.318Z" fill="url(#paint0_linear_2078_2638)"/>
<path d="M332.532 200L330.985 182.645L311.737 197.423L317.924 211.17L332.532 200Z" fill="url(#paint1_linear_2078_2638)"/>
<path d="M306.925 187.972L306.648 186.625L310.395 185.179L310.964 187.07L306.925 187.972Z" fill="#5B6A2E"/>
<path d="M313.112 197.853L312.085 196.939L315.864 193.873L316.891 194.787L313.112 197.853Z" fill="#5B6A2E"/>
<path d="M293.349 176.974C293.349 176.974 302.114 174.912 309.332 176.63C309.332 176.63 307.097 188.659 315.347 195.533C323.596 202.406 339.235 187.972 339.235 187.972C339.235 187.972 341.47 156 319.643 154.463C295.239 152.745 293.349 176.974 293.349 176.974Z" fill="#ACC857"/>
<path d="M298.113 181.647C297.963 181.647 297.811 181.592 297.693 181.482C297.442 181.25 297.427 180.861 297.658 180.609C298.653 179.53 301.266 178.029 304.037 180.072C304.312 180.275 304.371 180.663 304.168 180.938C303.965 181.213 303.577 181.272 303.302 181.069C300.741 179.18 298.654 181.357 298.566 181.451C298.444 181.581 298.28 181.647 298.113 181.647Z" fill="#5B6A2E"/>
<path d="M300.048 182.343C300.048 182.343 299.878 183.597 300.539 184.966C300.539 184.966 301.328 185.334 302.335 184.747C302.335 184.747 302.698 184.016 301.906 181.808C301.906 181.808 300.662 181.327 300.048 182.343Z" fill="#5B6A2E"/>
<path d="M298.677 185.394L307.613 186.253C307.613 186.253 306.582 190.893 307.957 193.127C309.332 195.361 313.628 197.423 313.628 197.423C313.628 197.423 310.019 203.781 308.988 204.297C307.957 204.812 303.66 204.125 300.396 200.344C297.13 196.564 297.302 187.8 298.677 185.394Z" fill="#ACC857"/>
<path d="M309.331 176.63C309.331 176.63 296.786 178.52 289.74 181.786L290.084 178.865L293.693 174.912L308.3 174.225L309.331 176.63Z" fill="#5B6A2E"/>
<path d="M202.53 295.539L195.648 297.318C195.648 297.318 186.156 308.826 180.936 321.758L181.41 327.809L202.53 295.539Z" fill="#5B6A2E"/>
<path d="M437.577 399.229H413.7L430.584 382.347L426.221 377.985L409.337 394.866V370.993H403.167V394.866L386.285 377.985L381.922 382.347L398.805 399.229H374.929V405.398H398.805L381.922 422.28L386.285 426.642L403.167 409.761V433.635H409.337V409.761L426.221 426.642L430.584 422.28L413.7 405.398H437.577V399.229Z" fill="#302D2E"/>
<path d="M406.174 360.964C383.31 360.964 364.776 379.496 364.776 402.357C364.776 425.218 383.31 443.751 406.174 443.751C429.037 443.751 447.571 425.218 447.571 402.357C447.571 379.496 429.037 360.964 406.174 360.964ZM406.174 426.505C392.836 426.505 382.024 415.693 382.024 402.357C382.024 389.021 392.836 378.209 406.174 378.209C419.512 378.209 430.323 389.021 430.323 402.357C430.323 415.693 419.512 426.505 406.174 426.505Z" fill="#161616"/>
<path d="M406.174 375.466C391.321 375.466 379.279 387.506 379.279 402.357C379.279 417.209 391.32 429.249 406.174 429.249C421.027 429.249 433.068 417.209 433.068 402.357C433.068 387.506 421.027 375.466 406.174 375.466ZM406.174 426.505C392.836 426.505 382.024 415.693 382.024 402.357C382.024 389.021 392.836 378.209 406.174 378.209C419.512 378.209 430.323 389.021 430.323 402.357C430.323 415.693 419.512 426.505 406.174 426.505Z" fill="#302D2E"/>
<path d="M406.174 386.003C397.14 386.003 389.818 393.325 389.818 402.357C389.818 411.39 397.14 418.712 406.174 418.712C415.207 418.712 422.529 411.39 422.529 402.357C422.53 393.325 415.207 386.003 406.174 386.003ZM406.174 413.497C400.021 413.497 395.033 408.509 395.033 402.357C395.033 396.205 400.021 391.218 406.174 391.218C412.326 391.218 417.314 396.205 417.314 402.357C417.314 408.509 412.326 413.497 406.174 413.497Z" fill="#878485"/>
<path d="M207.869 399.229H183.993L200.876 382.347L196.514 377.985L179.631 394.866V370.993H173.461V394.866L156.578 377.985L152.215 382.347L169.098 399.229H145.222V405.398H169.098L152.215 422.28L156.578 426.642L173.461 409.761V433.635H179.631V409.761L196.514 426.642L200.876 422.28L183.993 405.398H207.869V399.229Z" fill="#302D2E"/>
<path d="M176.466 360.964C153.603 360.964 135.068 379.496 135.068 402.357C135.068 425.218 153.603 443.751 176.466 443.751C199.33 443.751 217.864 425.218 217.864 402.357C217.864 379.496 199.33 360.964 176.466 360.964ZM176.466 426.505C163.128 426.505 152.316 415.693 152.316 402.357C152.316 389.021 163.128 378.209 176.466 378.209C189.804 378.209 200.616 389.021 200.616 402.357C200.616 415.693 189.804 426.505 176.466 426.505Z" fill="#161616"/>
<path d="M176.467 375.466C161.613 375.466 149.573 387.506 149.573 402.357C149.573 417.209 161.613 429.249 176.467 429.249C191.32 429.249 203.361 417.209 203.361 402.357C203.361 387.506 191.32 375.466 176.467 375.466ZM176.467 426.505C163.129 426.505 152.316 415.693 152.316 402.357C152.316 389.021 163.129 378.209 176.467 378.209C189.804 378.209 200.616 389.021 200.616 402.357C200.616 415.693 189.804 426.505 176.467 426.505Z" fill="#302D2E"/>
<path d="M224.006 272.047L228.616 268.887C230.941 267.292 233.883 266.889 236.552 267.8L245.23 270.76C249.266 272.137 251.469 276.478 250.198 280.548L234.398 331.143C233.97 332.515 234.036 333.993 234.583 335.322L252.135 377.852C253.206 380.451 255.74 382.145 258.55 382.145H296.263C299.299 382.145 301.983 380.172 302.888 377.276L309.672 355.57L300.559 337.872C299.067 334.972 301.119 331.509 304.379 331.427L400.558 328.995L369.235 390.331L242.278 397.568L200.987 333.74L224.006 272.047Z" fill="#302D2E"/>
<path d="M226.455 270.689L238.913 274.425L242.116 268.197L231.26 261.612L226.455 270.689Z" fill="#161616"/>
<path d="M247.752 256.689H229.955L225.802 263.808C225.802 263.808 225.209 266.773 228.412 266.773L241.345 269.502C241.345 269.502 243.362 267.604 245.854 267.604H248.108L247.752 256.689Z" fill="#302D2E"/>
<path d="M253.579 257.703C253.579 261.082 250.841 263.82 247.462 263.82C244.084 263.82 241.345 261.082 241.345 257.703C241.345 254.326 244.084 251.588 247.462 251.588C250.841 251.588 253.579 254.326 253.579 257.703Z" fill="#161616"/>
<path d="M255.227 259.654C255.227 259.654 248.456 254.343 247.462 254.343C245.606 254.343 244.102 255.848 244.102 257.703C244.102 258.91 245.023 260.07 245.972 260.782L252.498 266.18L255.227 259.654Z" fill="#302D2E"/>
<path d="M257.667 263.028C257.667 265.009 256.061 266.616 254.079 266.616C252.098 266.616 250.491 265.009 250.491 263.028C250.491 261.047 252.098 259.441 254.079 259.441C256.061 259.441 257.667 261.047 257.667 263.028Z" fill="#302D2E"/>
<path d="M218.928 264.044H223.548C223.548 264.044 226.158 259.418 231.853 259.418H238.142V252.537H232.09L234.701 243.164C234.701 243.164 233.514 240.792 231.141 240.792L218.828 255.506C217.357 257.264 216.573 259.493 216.62 261.784C216.646 263.039 217.671 264.044 218.928 264.044Z" fill="#161616"/>
<path d="M356.42 335.401L416.457 315.945C416.457 315.945 419.849 310.776 415.972 302.306C414.344 298.748 410.534 296.711 406.647 297.173L370.42 301.471C370.42 301.471 344.835 311.794 308.07 312.361C306.089 312.392 304.249 313.394 303.145 315.037L294.218 328.335C293.362 329.61 293.07 331.219 293.564 332.672C294.068 334.156 295.315 335.639 298.28 335.639L356.42 335.401Z" fill="#161616"/>
<path d="M189.478 355.273C189.478 355.273 164.917 351.892 145.696 371.29L146.273 371.711C148.671 373.463 151.848 373.751 154.505 372.424C156.901 371.228 159.951 369.862 162.604 369.154L170.435 389.264H174.706L183.783 368.086H186.512L191.317 357.764L189.478 355.273Z" fill="#ACC857"/>
<path d="M174.978 355.976C180.612 357.757 181.292 362.214 181.292 362.214L170.387 389.14L170.435 389.264H174.707L183.783 368.086H186.512L191.317 357.765L189.479 355.273C189.479 355.273 183.424 354.443 174.978 355.976Z" fill="#5B6A2E"/>
<path d="M179.389 383.593C179.154 383.593 178.916 383.547 178.687 383.448C177.784 383.06 177.366 382.014 177.754 381.111L187.512 358.375C187.9 357.471 188.947 357.055 189.849 357.441C190.753 357.829 191.17 358.876 190.783 359.779L181.025 382.515C180.735 383.189 180.079 383.593 179.389 383.593Z" fill="#AAAAAA"/>
<path d="M176.467 386.003C167.433 386.003 160.11 393.325 160.11 402.357C160.11 411.39 167.434 418.712 176.467 418.712C185.5 418.712 192.822 411.39 192.822 402.357C192.822 393.325 185.5 386.003 176.467 386.003ZM176.467 413.497C170.314 413.497 165.326 408.509 165.326 402.357C165.326 396.205 170.314 391.218 176.467 391.218C182.619 391.218 187.607 396.205 187.607 402.357C187.607 408.509 182.619 413.497 176.467 413.497Z" fill="#AAAAAA"/>
<path d="M184.249 370.49C182.442 369.713 180.349 370.552 179.574 372.357L164.672 407.079C163.897 408.886 164.733 410.979 166.539 411.754C166.997 411.951 167.474 412.042 167.941 412.042C169.322 412.042 170.636 411.235 171.214 409.887L172.986 405.756C173.87 406.661 175.102 407.224 176.466 407.224C179.154 407.224 181.334 405.045 181.334 402.357C181.334 399.691 179.19 397.529 176.533 397.493L186.116 375.164C186.891 373.358 186.056 371.265 184.249 370.49Z" fill="#161616"/>
<path d="M393.753 378.503L389.069 381.41L400.835 400.363L405.519 397.455L393.753 378.503Z" fill="#161616"/>
<path d="M355.174 407.416L369.768 413.466L411.624 408.338C413.434 408.116 414.796 406.578 414.796 404.754V399.335C414.796 397.39 413.254 395.795 411.311 395.727L363.716 394.069L355.174 407.416Z" fill="#AAAAAA"/>
<path d="M414.796 404.753L369.768 409.017L357.532 403.73L355.173 407.415L369.768 413.465L411.624 408.338C413.434 408.115 414.796 406.578 414.796 404.753Z" fill="#878485"/>
<path d="M224.718 268.607C224.718 268.607 189.834 306.69 176.664 337.299C176.664 337.299 175.952 341.571 180.223 347.621L214.751 400.297C214.751 400.297 229.345 423.076 252.481 423.076C275.618 423.076 338.266 420.228 338.266 420.228C338.266 420.228 352.504 420.94 359.267 408.838L369.234 390.331L251.915 393.383C248.271 393.477 244.825 391.727 242.754 388.728L209.181 340.141C206.968 336.938 206.99 332.694 209.237 329.514L245.296 278.486C246.377 276.956 245.636 274.817 243.84 274.283L224.718 268.607Z" fill="#ACC857"/>
<path d="M350.714 404.071L356.42 394.247L325.57 395.196L333.639 401.84L256.205 404.723C248.863 404.996 241.892 401.491 237.734 395.435L195.53 333.978L236.345 277.98H230.65L189.834 333.978L176.626 337.751C176.574 338.997 176.767 342.725 180.223 347.621L214.751 400.297C214.751 400.297 216.092 402.384 218.592 405.288C224.905 408.861 234.492 412.754 246.312 412.754L342.23 409.169C345.745 409.037 348.948 407.114 350.714 404.071Z" fill="#5B6A2E"/>
<path d="M252.134 377.852L234.583 335.322C234.035 333.993 233.969 332.515 234.398 331.143L250.198 280.548C250.717 278.886 250.648 277.183 250.121 275.652L231.893 326.287C230.877 329.108 228.35 331.108 225.371 331.449L217.776 332.316L242.948 378.179C244.29 380.625 246.86 382.145 249.651 382.145H258.55C255.739 382.145 253.206 380.451 252.134 377.852Z" fill="#161616"/>
<path d="M294.621 385.569L248.804 386.416C250.591 388.799 253.418 390.174 256.396 390.109L298.652 389.184C302.982 389.089 306.782 386.278 308.14 382.167L314.655 362.451L309.672 355.57L301.862 380.169C300.855 383.335 297.944 385.508 294.621 385.569Z" fill="#161616"/>
<path d="M309.196 388.789L355.392 386.981C360.593 386.778 365.307 383.861 367.81 379.298L326.757 384.518L311.332 385.467L309.196 388.789Z" fill="#161616"/>
<path d="M406.174 398.754C404.184 398.754 402.57 400.368 402.57 402.357C402.57 404.347 404.184 405.959 406.174 405.959C408.163 405.959 409.777 404.347 409.777 402.357C409.777 400.368 408.163 398.754 406.174 398.754Z" fill="#161616"/>
<path d="M389.05 367.351L381.187 372.232L390.654 387.481L398.517 382.6L389.05 367.351Z" fill="#302D2E"/>
<path d="M330.185 380.282L433.137 366.66C436.243 366.249 438.994 364.449 440.615 361.768L443.553 356.904C444.414 355.478 444.503 353.715 443.788 352.212L429.034 321.165C429.034 321.165 423.813 313.097 416.219 313.097L353.21 319.477C345.785 320.229 339.308 324.841 336.169 331.611L320.014 366.454C316.765 373.461 322.527 381.295 330.185 380.282Z" fill="#ACC857"/>
<path d="M440.615 361.768L443.553 356.904C444.008 356.151 444.241 355.303 444.26 354.45L332.215 367.672C325.696 368.149 324.079 362.343 323.722 358.458L320.014 366.454C316.765 373.46 322.528 381.295 330.185 380.282L433.137 366.66C436.244 366.249 438.995 364.45 440.615 361.768Z" fill="#5B6A2E"/>
<path d="M425.884 317.508C423.617 315.373 420.253 313.097 416.219 313.097L353.21 319.477C345.785 320.229 339.307 324.841 336.169 331.611L335.433 333.197C339.474 329.637 345.661 325.442 352.86 324.842L425.884 317.508Z" fill="#73863A"/>
<path d="M417.765 234.06H369.452C366.383 234.06 363.894 236.548 363.894 239.617V290.1C363.894 293.169 366.383 295.657 369.452 295.657H417.765C420.834 295.657 423.322 293.169 423.322 290.1V239.617C423.322 236.548 420.834 234.06 417.765 234.06Z" fill="#ACC857"/>
<path d="M417.765 232.933H369.452C366.383 232.933 363.894 235.421 363.894 238.49V264.949C363.894 268.017 366.383 270.505 369.452 270.505H417.765C420.834 270.505 423.322 268.017 423.322 264.949V238.49C423.322 235.421 420.834 232.933 417.765 232.933Z" fill="#F2CE1D"/>
<path d="M368.996 320.808C368.013 320.808 367.216 320.011 367.216 319.029V298.299C367.216 295.273 369.679 292.81 372.706 292.81H413.932C416.959 292.81 419.422 295.273 419.422 298.299V311.051C419.422 312.034 418.625 312.831 417.643 312.831C416.66 312.831 415.863 312.035 415.863 311.051V298.299C415.863 297.235 414.997 296.369 413.932 296.369H372.706C371.641 296.369 370.776 297.235 370.776 298.299V319.029C370.777 320.011 369.98 320.808 368.996 320.808Z" fill="#302D2E"/>
<path d="M382.406 310.459L374.751 319.859L382.513 319.147C384.57 318.959 386.447 317.896 387.666 316.228L391.124 311.495L414.083 310.072L410.643 316.568L414.378 316.225C415.121 316.157 415.839 315.922 416.477 315.534L426.189 309.649C426.85 309.249 427.253 308.531 427.253 307.759C427.253 306.499 426.201 305.493 424.941 305.552L388.833 307.22C386.328 307.337 383.99 308.514 382.406 310.459Z" fill="#ACC857"/>
<path d="M380.273 284.149H378.84C377.466 284.149 376.353 285.263 376.353 286.637V294.352H382.76V286.637C382.76 285.263 381.646 284.149 380.273 284.149Z" fill="#302D2E"/>
<path d="M407.562 284.149H406.129C404.756 284.149 403.642 285.263 403.642 286.637V294.352H410.049V286.637C410.049 285.263 408.936 284.149 407.562 284.149Z" fill="#302D2E"/>
<path d="M381.217 287.412C381.217 288.329 380.474 289.072 379.557 289.072C378.639 289.072 377.895 288.329 377.895 287.412C377.895 286.495 378.639 285.751 379.557 285.751C380.474 285.751 381.217 286.495 381.217 287.412Z" fill="#ACC857"/>
<path d="M408.507 287.412C408.507 288.329 407.764 289.072 406.846 289.072C405.929 289.072 405.185 288.329 405.185 287.412C405.185 286.495 405.929 285.751 406.846 285.751C407.764 285.751 408.507 286.495 408.507 287.412Z" fill="#ACC857"/>
<path d="M375.358 349.189L386.767 347.858L387.482 343.98L373.77 345.58L375.358 349.189ZM380.393 347.221L385.838 346.588L385.918 347.268L380.472 347.903L380.393 347.221Z" fill="#F2CE1D"/>
<path d="M377.624 333.157L367.414 334.346L367.523 335.281L377.733 334.092L377.624 333.157Z" fill="#F2CE1D"/>
<path d="M372.197 345.76C372.009 345.782 371.838 345.648 371.817 345.46L371.697 344.439L371.578 343.419C371.556 343.23 371.691 343.06 371.879 343.038L372.309 342.988L373.108 338.654C373.135 338.506 373.256 338.394 373.406 338.376L377.091 337.947L377.09 334.843L368.325 335.865L371.575 349.627L374.215 349.319L372.626 345.71L372.197 345.76Z" fill="#F2CE1D"/>
<path d="M389.34 347.53L394.154 346.969L394.157 346.02L389.231 346.594L389.34 347.53Z" fill="#F2CE1D"/>
<path d="M389.023 344.807L394.161 344.208L394.163 343.259L388.914 343.872L389.023 344.807Z" fill="#F2CE1D"/>
<path d="M383.658 337.873L374.167 338.979L373.368 343.313C373.34 343.461 373.22 343.574 373.07 343.591L372.73 343.631L372.853 344.68L388.167 342.895L388.045 341.845L387.704 341.885C387.555 341.902 387.412 341.821 387.351 341.683L387.332 341.641L384.14 342.013L384.138 341.496L394.17 340.327L394.173 339.378L386.719 340.246L386.186 339.037L383.825 339.312L383.836 338.794L394.18 337.588L394.183 336.639L383.657 337.866L383.658 337.873Z" fill="#F2CE1D"/>
<path d="M380.071 336.567L394.185 334.921L394.188 333.972L379.961 335.631L380.071 336.567Z" fill="#F2CE1D"/>
<path d="M379.644 332.908L379.753 333.844L394.192 332.161L394.194 331.212L379.644 332.908Z" fill="#F2CE1D"/>
<path d="M434.116 331.86L396.481 336.423L396.42 339.907L435.679 335.147L434.116 331.86Z" fill="#F2CE1D"/>
<path d="M328.502 348.146L367.577 343.422L366.726 340.049L330.209 344.464L328.502 348.146Z" fill="#F2CE1D"/>
<path d="M432.396 327.926L428.008 328.553L433.169 338.34L437.399 338.27C437.895 338.263 438.321 337.899 438.398 337.41C438.6 336.15 438.285 334.847 437.5 333.809L433.353 328.321C433.129 328.024 432.763 327.874 432.396 327.926Z" fill="#F4B11C"/>
<path d="M384.999 262.829L398.174 262.857L399.512 258.537L383.678 258.504L384.999 262.829ZM390.999 261.27L397.288 261.283L397.286 262.069L390.999 262.056L390.999 261.27Z" fill="#ACC857"/>
<path d="M377.966 244.837L377.964 245.917L389.753 245.942L389.755 244.862L377.966 244.837Z" fill="#ACC857"/>
<path d="M381.862 258.498C381.645 258.498 381.469 258.322 381.47 258.104L381.473 256.926L381.475 255.747C381.476 255.529 381.652 255.354 381.869 255.354L382.365 255.355L383.862 250.528C383.912 250.363 384.065 250.251 384.237 250.251L388.494 250.26L388.912 246.724L378.791 246.703L380.632 262.818L383.679 262.824L382.358 258.5L381.862 258.498Z" fill="#ACC857"/>
<path d="M401.149 262.831L406.708 262.842L406.838 261.762L401.151 261.75L401.149 262.831Z" fill="#ACC857"/>
<path d="M401.156 259.687L407.088 259.699L407.22 258.619L401.158 258.606L401.156 259.687Z" fill="#ACC857"/>
<path d="M395.983 251.064L385.024 251.041L383.528 255.869C383.476 256.033 383.324 256.146 383.151 256.146L382.758 256.145L382.755 257.356L400.439 257.393L400.442 256.181H400.049C399.876 256.18 399.725 256.067 399.674 255.903L399.659 255.852L395.973 255.845L396.041 255.255L407.625 255.279L407.757 254.199L399.149 254.181L398.706 252.731L395.979 252.725L396.061 252.136L408.006 252.161L408.138 251.08L395.983 251.056V251.064Z" fill="#ACC857"/>
<path d="M392.074 249.091L408.371 249.125L408.503 248.044L392.076 248.01L392.074 249.091Z" fill="#ACC857"/>
<path d="M392.082 244.867L392.079 245.948L408.753 245.983L408.884 244.902L392.082 244.867Z" fill="#ACC857"/>
<path d="M289.788 376.682L297.296 390.423L307.81 388.568L303.592 373.615L289.788 376.682Z" fill="#ACC857"/>
<path d="M294.067 382.702C294.067 382.702 284.69 387.794 277.041 389.862C269.393 391.928 259.021 394.725 259.021 394.725C259.021 394.725 256.428 397.036 257.336 400.198C258.243 403.359 265.114 405.061 274.448 405.061C283.782 405.061 311.96 404.168 312.318 401.092C313.301 392.669 306.141 381.719 306.141 381.719C306.141 381.719 301.227 389.44 294.067 382.702Z" fill="#161616"/>
<path d="M269.522 391.807C269.522 391.807 278.338 388.767 287.024 382.687C287.024 382.687 287.024 376.608 288.579 376.242C290.135 375.877 296.032 384.387 296.032 384.387C296.032 384.387 292.079 390.348 269.522 391.807Z" fill="#1C1B1B"/>
<path d="M321.039 287.925C321.039 287.925 297.648 289.459 272.15 293.293C272.15 293.293 261.031 295.402 261.031 305.945C261.031 316.488 272.725 348.31 290.363 378.023C290.363 378.023 298.799 378.983 304.359 374.764C304.359 374.764 297.84 353.294 294.773 340.259C291.705 327.223 287.871 318.022 287.871 318.022C287.871 318.022 295.157 321.472 319.505 321.472C343.853 321.472 353.822 321.472 353.822 321.472C353.822 321.472 368.392 320.323 365.708 302.302C365.708 302.302 340.594 300.385 321.039 287.925Z" fill="#302D2E"/>
<path d="M317.971 255.72C317.971 255.72 317.204 271.823 323.914 282.367C323.914 282.367 324.489 285.434 321.039 287.926C321.039 287.926 337.142 304.029 367.242 302.686L365.516 297.319C365.516 297.319 364.174 254.57 357.656 233.1C351.138 211.63 335.418 202.045 335.418 202.045L332.542 197.444C332.542 197.444 319.888 198.019 314.712 210.288L318.354 214.505L317.971 255.72Z" fill="#ACC857"/>
<path d="M327.365 282.845C327.365 282.845 338.293 265.592 343.182 245.464C348.071 225.335 342.031 212.396 342.031 212.396L318.242 263.368C318.769 268.943 320.187 276.51 323.914 282.366C323.914 282.366 324.489 285.433 321.039 287.925C321.039 287.925 331.889 298.761 352.41 301.911C346.218 299.688 336.411 294.551 327.365 282.845Z" fill="#5B6A2E"/>
<path d="M269.257 261.144L264.735 259.66C264.735 259.66 254.875 253.847 254.198 253.837C253.52 253.828 245.997 259.733 245.748 260.082C245.5 260.431 247.288 267.599 247.637 267.847C247.986 268.096 252.502 268.998 253.633 268.593C253.633 268.593 253.944 266.604 252.592 265.325C252.592 265.325 259.677 267.793 261.76 268.119C263.843 268.445 267.78 268.092 267.78 268.092L269.257 261.144Z" fill="url(#paint2_linear_2078_2638)"/>
<path d="M291.274 181.388L294.869 207.076C294.869 207.076 300.374 207.459 306.422 204.767C310.464 202.968 312.464 198.373 311.032 194.187L307.522 183.929L314.951 179.256C315.821 178.709 316.198 177.634 315.861 176.663C315.52 175.685 314.554 175.074 313.525 175.196C309.776 175.64 301.651 177.525 291.274 181.388Z" fill="url(#paint3_linear_2078_2638)"/>
<path d="M308.576 203.29C302.528 205.982 296.499 205.255 296.499 205.255L292.425 182.347C300.591 178.548 310.204 176.118 314.686 175.38C314.332 175.219 313.935 175.147 313.525 175.196C309.776 175.64 300.501 177.046 290.124 180.909L294.869 207.076C294.869 207.076 300.374 207.458 306.422 204.766C307.318 204.367 308.107 203.825 308.788 203.185C308.717 203.219 308.649 203.258 308.576 203.29Z" fill="#5B6A2E"/>
<path d="M321.87 222.599C318.111 245.259 311.121 255.267 311.121 255.267C295.348 261.087 266.015 258.404 266.015 258.404C264.008 261.413 264.673 269.522 264.673 269.522C290.991 274.618 320.463 272.973 320.463 272.973C335.233 256.821 340.908 237.481 343.34 225.164C343.34 225.164 346.402 210.285 337.638 208.299C329.005 206.343 323.739 211.339 321.87 222.599Z" fill="#ACC857"/>
<path d="M257.667 263.028C257.667 265.009 256.061 266.616 254.079 266.616C252.098 266.616 250.491 265.009 250.491 263.028C250.491 261.047 252.098 259.441 254.079 259.441C256.061 259.441 257.667 261.047 257.667 263.028Z" fill="#302D2E"/>
<path d="M315.095 177.555C315.095 178.058 314.687 178.465 314.184 178.465C313.681 178.465 313.274 178.058 313.274 177.555C313.274 177.052 313.681 176.644 314.184 176.644C314.687 176.644 315.095 177.052 315.095 177.555Z" fill="#ACC857"/>
<path d="M321.648 190.499L328.683 188.506L328.74 185.997L320.284 188.392L321.648 190.499ZM324.613 188.752L327.971 187.801L328.09 188.221L324.732 189.172L324.613 188.752Z" fill="#F2CE1D"/>
<path d="M321.462 180.181L315.166 181.964L315.33 182.541L321.626 180.758L321.462 180.181Z" fill="#F2CE1D"/>
<path d="M319.314 188.664C319.198 188.697 319.077 188.629 319.045 188.514L318.866 187.884L318.688 187.255C318.655 187.139 318.722 187.018 318.838 186.985L319.103 186.91L319.166 184.106C319.168 184.01 319.232 183.927 319.324 183.901L321.598 183.257L321.283 181.306L315.877 182.837L319.314 191.157L320.942 190.697L319.578 188.589L319.314 188.664Z" fill="#F2CE1D"/>
<path d="M330.267 188.039L333.236 187.198L333.141 186.602L330.104 187.461L330.267 188.039Z" fill="#F2CE1D"/>
<path d="M329.792 186.36L332.96 185.463L332.866 184.866L329.628 185.783L329.792 186.36Z" fill="#F2CE1D"/>
<path d="M325.717 182.546L319.865 184.203L319.802 187.007C319.8 187.103 319.736 187.186 319.643 187.213L319.433 187.272L319.617 187.919L329.061 185.245L328.877 184.598L328.667 184.658C328.575 184.684 328.477 184.646 328.425 184.566L328.409 184.542L326.441 185.099L326.388 184.774L332.574 183.022L332.479 182.426L327.883 183.727L327.425 183.021L325.97 183.433L325.923 183.106L332.302 181.3L332.208 180.704L325.717 182.541L325.717 182.546Z" fill="#F2CE1D"/>
<path d="M323.331 182.088L332.034 179.623L331.939 179.027L323.167 181.511L323.331 182.088Z" fill="#F2CE1D"/>
<path d="M322.692 179.832L322.855 180.409L331.759 177.888L331.664 177.292L322.692 179.832Z" fill="#F2CE1D"/>
<path d="M338.916 178.812L333.629 180.335L333.944 182.53L339.126 181.038C339.073 180.328 339.004 179.586 338.916 178.812Z" fill="#F2CE1D"/>
<path d="M316.174 187.663L315.296 185.629L309.994 187.155C310.198 187.844 310.443 188.537 310.734 189.227L316.174 187.663Z" fill="#F2CE1D"/>
<path d="M336.695 208.128C335.882 207.989 335.096 207.905 334.346 207.896C338.219 233.585 317.174 260.569 314.651 263.69C290.312 268.933 270.771 264.893 264.702 263.327C264.629 264.124 264.593 264.919 264.578 265.665C268.796 266.72 277.975 268.589 290.174 268.589C297.655 268.589 306.265 267.883 315.533 265.853L315.914 265.77L316.166 265.471C316.422 265.167 322.496 257.916 328.099 247.071C333.168 237.259 338.68 222.64 336.695 208.128Z" fill="#F2CE1D"/>
<path d="M65.373 288.975C65.373 287.032 65.3978 285.094 65.4463 283.162" stroke="#ACC857" stroke-width="7.9913" stroke-miterlimit="10"/>
<path d="M66.0215 271.723C74.836 154.95 172.385 62.9448 291.424 62.9448C412.4 62.9448 511.18 157.967 517.187 277.44" stroke="#ACC857" stroke-width="7.9913" stroke-miterlimit="10" stroke-dasharray="47.22 47.22"/>
<path d="M517.404 283.162C517.452 285.094 517.476 287.032 517.476 288.975" stroke="#ACC857" stroke-width="7.9913" stroke-miterlimit="10"/>
<path d="M380.178 141.49C383.643 136.806 390.067 135.369 396.136 137.381C396.204 130.569 399.27 124.385 404.91 121.19C412.483 116.894 422.294 119.343 428.909 126.504C432.903 119.499 440.181 114.527 448.829 113.837C462.661 112.738 474.773 123.014 475.959 136.816C482.647 134.389 489.834 136.112 493.264 141.447C497.37 147.826 494.518 161.816 482.607 161.816C458.351 161.816 415.266 162.508 390.458 162.508C374.967 162.508 375.663 147.587 380.178 141.49Z" fill="#E3F7FF"/>
<path d="M56.0681 208.55C59.226 204.281 65.0815 202.971 70.6142 204.805C70.6758 198.595 73.4706 192.958 78.6111 190.046C85.5147 186.13 94.4575 188.363 100.487 194.889C104.128 188.505 110.761 183.973 118.645 183.343C131.254 182.342 142.293 191.708 143.375 204.29C149.47 202.078 156.022 203.648 159.148 208.511C162.891 214.326 160.292 227.077 149.434 227.077C127.324 227.077 88.051 227.708 65.4375 227.708C51.3181 227.708 51.953 214.107 56.0681 208.55Z" fill="#E3F7FF"/>
<path d="M544.112 286.741C537.504 278.061 527.398 273.138 516.513 273.138C505.629 273.138 495.523 278.061 488.915 286.741C479.456 299.179 479.456 316.411 488.915 328.848L516.513 364.864L544.112 328.848C553.57 316.41 553.57 299.179 544.112 286.741Z" fill="#ACC857"/>
<path d="M516.513 288.814C526.49 288.814 534.653 296.977 534.653 306.952C534.653 316.928 526.49 325.091 516.513 325.091C506.537 325.091 498.374 316.928 498.374 306.952C498.374 296.977 506.537 288.814 516.513 288.814Z" fill="#F2CE1D"/>
<path d="M99.3229 286.741C92.7146 278.061 82.6082 273.138 71.7245 273.138C60.8404 273.138 50.7342 278.061 44.126 286.741C34.6673 299.179 34.6673 316.411 44.126 328.848L71.7245 364.864L99.3229 328.848C108.782 316.41 108.782 299.179 99.3229 286.741Z" fill="#F2CE1D"/>
<path d="M71.7247 288.814C81.7013 288.814 89.8644 296.977 89.8644 306.952C89.8644 316.928 81.7013 325.091 71.7247 325.091C61.7475 325.091 53.5845 316.928 53.5845 306.952C53.5845 296.977 61.7475 288.814 71.7247 288.814Z" fill="#ACC857"/>
<path d="M320.062 64.1678C320.062 47.9683 306.928 34.8354 290.727 34.8354C274.526 34.8354 261.392 47.9683 261.392 64.1678C261.392 80.3675 274.525 93.4998 290.727 93.4998C293.116 93.4998 295.436 93.2074 297.66 92.6681L307.2 101.957L309.14 86.9953C315.8 81.6183 320.062 73.3927 320.062 64.1678Z" fill="#ACC857"/>
<path d="M281.282 58.2228H275.793C275.233 58.2228 274.779 58.676 274.779 59.2357V75.4912C274.779 76.0509 275.233 76.5041 275.793 76.5041H281.282C281.842 76.5041 282.295 76.0509 282.295 75.4912V59.2357C282.295 58.6765 281.842 58.2228 281.282 58.2228ZM278.529 74.7392C277.589 74.7392 276.826 73.977 276.826 73.0364C276.826 72.096 277.589 71.3333 278.529 71.3333C279.47 71.3333 280.233 72.0955 280.233 73.0364C280.233 73.9766 279.47 74.7392 278.529 74.7392ZM308.035 60.3949C308.237 58.12 306.116 57.4562 305.274 57.4562C302.013 57.4558 298.75 57.4567 295.488 57.4538C295.957 56.4319 296.53 53.7227 295.809 49.9899C295.524 48.5143 294.654 47.5327 293.544 47.5525C292.65 47.5681 291.796 48.257 291.707 49.1162C291.609 50.061 291.377 51.4066 291.157 52.3262C290.455 55.2677 286.696 59.1508 284.32 60.5059V74.874C285.932 75.7854 287.68 76.1038 289.547 76.0684C292.497 76.0121 300.923 76.0616 302.449 76.0514C303.53 76.0444 304.608 75.529 305.126 74.2246C305.835 72.4442 304.009 71.5535 304.009 71.5535C304.009 71.5535 306.007 71.6519 306.464 69.8599C306.932 68.0203 305.094 67.2928 305.094 67.2928C306.337 67.157 307.133 66.8335 307.434 65.7131C307.788 64.3932 306.939 63.4023 305.595 62.8291C305.798 62.8082 307.851 62.4765 308.035 60.3949Z" fill="white"/>
<defs>
<linearGradient id="paint0_linear_2078_2638" x1="306.599" y1="176.564" x2="308.468" y2="206.469" gradientUnits="userSpaceOnUse">
<stop stop-color="#F78C58"/>
<stop offset="1" stop-color="#FABD9B"/>
</linearGradient>
<linearGradient id="paint1_linear_2078_2638" x1="321.738" y1="193.705" x2="323.209" y2="208.049" gradientUnits="userSpaceOnUse">
<stop stop-color="#FF7F3B"/>
<stop offset="1" stop-color="#FAB58B"/>
</linearGradient>
<linearGradient id="paint2_linear_2078_2638" x1="258.597" y1="269.513" x2="256.728" y2="254.704" gradientUnits="userSpaceOnUse">
<stop stop-color="#F78C58"/>
<stop offset="1" stop-color="#FABD9B"/>
</linearGradient>
<linearGradient id="paint3_linear_2078_2638" x1="302.769" y1="175.414" x2="307.937" y2="207.957" gradientUnits="userSpaceOnUse">
<stop stop-color="white"/>
<stop offset="1" stop-color="white"/>
</linearGradient>
</defs>
</svg>
