<svg width="474" height="450" viewBox="0 0 474 450" fill="none" xmlns="http://www.w3.org/2000/svg">
<path d="M410.419 416.892L393.686 418.456L393.84 420.105L410.573 418.541L410.419 416.892Z" fill="#282828"/>
<path d="M425.859 423.887L394.827 424.977L394.885 426.631L425.917 425.542L425.859 423.887Z" fill="#282828"/>
<path d="M446.027 432.759L396.464 434.377L396.518 436.032L446.081 434.414L446.027 432.759Z" fill="#282828"/>
<path d="M456.126 349.204H412.437V347.548H454.471V317.568H456.126V349.204Z" fill="#282828"/>
<path d="M470.78 349.204H462.026V317.568H463.682V347.548H470.78V349.204Z" fill="#282828"/>
<path d="M456.126 398.639H454.471V355.49H408.827V353.834H456.126V398.639Z" fill="#282828"/>
<path d="M463.682 393.395H462.026V353.834H473.457V355.49H463.682V393.395Z" fill="#282828"/>
<path d="M213.399 104.754H174.323V103.098H211.743V55.0317H213.399V104.754Z" fill="#282828"/>
<path d="M220.469 55.0317H218.813V103.921H220.469V55.0317Z" fill="#282828"/>
<path d="M212.571 111.917H167.286V113.573H212.571V111.917Z" fill="#282828"/>
<path d="M26.2768 103.302H0V101.647H24.621V47.5532H26.2768V103.302Z" fill="#282828"/>
<path d="M80.2211 103.302H33.551V47.5532H35.2067V101.647H80.2211V103.302Z" fill="#282828"/>
<path d="M26.2768 165.801H5.0611V164.145H24.621V110.444H6.69477V108.788H26.2768V165.801Z" fill="#282828"/>
<path d="M35.2067 161.557H33.551V108.788H70.0989V110.444H35.2067V161.557Z" fill="#282828"/>
<path d="M26.2768 237.071H24.621V173.7H6.09869V172.044H26.2768V237.071Z" fill="#282828"/>
<path d="M35.2067 231.618H33.551V172.044H60.1975V173.7H35.2067V231.618Z" fill="#282828"/>
<path d="M25.449 251.856H10.7514V253.512H25.449V251.856Z" fill="#282828"/>
<path d="M460.299 282.548H338.877V417.58C350.508 417.579 361.662 412.958 369.886 404.734C378.11 396.51 382.731 385.356 382.732 373.725V293.587H460.299V282.548Z" fill="white"/>
<path d="M338.877 418.684H337.773V281.444H461.403V294.69H383.836V373.725C383.822 385.644 379.08 397.071 370.652 405.5C362.224 413.928 350.797 418.669 338.877 418.684ZM339.981 283.652V416.46C351.12 416.16 361.703 411.527 369.48 403.547C377.257 395.567 381.615 384.868 381.629 373.725V292.483H459.195V283.652H339.981Z" fill="#282828"/>
<path d="M176.117 370.441C172.838 337.166 181.001 304.167 195.025 283.873C230.067 233.168 301.247 240.216 304.261 240.542V282.548C303.781 282.498 250.559 279.457 231.347 308.979C217.985 329.505 220.369 369.332 220.381 370.242L176.117 370.441Z" fill="#CAEB66"/>
<path d="M175.118 371.551L175.018 370.552C171.845 338.336 179.158 304.874 194.115 283.25C229.548 231.982 301.341 239.096 304.377 239.449L305.365 239.554V283.763L304.15 283.647C294.325 283.287 284.489 284.009 274.821 285.799C260.759 288.432 241.96 294.696 232.269 309.582C220.281 328.005 221.159 363.04 221.473 369.878C221.473 370.072 221.473 370.193 221.473 370.237V371.341L175.118 371.551ZM292.516 241.116C270.439 241.116 222.605 245.896 195.93 284.486C181.415 305.492 174.24 337.911 177.121 369.316L219.232 369.139C218.818 358.437 218.68 326.382 230.42 308.362C238.456 296.038 253.722 287.477 274.628 283.614C284.037 281.903 293.597 281.163 303.157 281.406V241.558C301.418 241.398 297.671 241.116 292.516 241.116Z" fill="#282828"/>
<path d="M220.143 354.629H175.394V356.837H220.143V354.629Z" fill="#282828"/>
<path d="M196.67 355.81C196.642 355.44 194.385 318.55 217.052 288.432C228.979 272.581 252.105 265.478 269.402 262.31C280.912 260.23 292.586 259.187 304.283 259.191L304.239 261.399C303.604 261.399 240.89 260.422 218.813 289.757C196.659 319.201 198.845 355.297 198.872 355.661L196.67 355.81Z" fill="#282828"/>
<path d="M328.827 302.87H254.87V407.734H328.827V302.87Z" fill="#282828"/>
<path d="M327.839 33.8435V406.636L92.7772 406.327V224.393L209.717 33.8435H327.839ZM338.877 22.8052H203.541L81.7389 221.275V417.354L338.877 417.685V22.8052Z" fill="white"/>
<path d="M339.981 418.789H338.877L80.6351 418.452V220.965L202.945 21.7012H339.981V418.789ZM82.8428 416.25L337.773 416.581V23.9088H204.16L82.8428 221.589V416.25ZM328.943 407.74H327.839L91.6735 407.431V224.078L209.099 32.7395H328.943V407.74ZM93.8812 405.228L326.735 405.526V34.9472H210.336L93.8812 224.702V405.228Z" fill="#282828"/>
<path d="M327.723 282.548H241.795V303.974H327.723V282.548Z" fill="#94C6CB"/>
<path d="M328.827 305.077H240.691V281.444H328.827V305.077ZM242.899 302.87H326.619V283.652H242.899V302.87Z" fill="#282828"/>
<path d="M224.426 370.105C224.426 370.105 200.252 367.13 178.424 371.893C156.595 376.656 139.238 392.507 139.238 392.507H224.426V370.105Z" fill="#CAEB66"/>
<path d="M224.426 393.611H139.243C139.021 393.61 138.805 393.542 138.622 393.417C138.439 393.291 138.298 393.114 138.218 392.907C138.137 392.7 138.121 392.474 138.171 392.258C138.221 392.042 138.335 391.846 138.498 391.695C138.675 391.535 156.242 375.607 178.192 370.816C199.949 366.064 224.316 368.978 224.553 369.006C224.821 369.04 225.068 369.171 225.246 369.374C225.424 369.578 225.521 369.84 225.519 370.11V392.507C225.519 392.798 225.404 393.077 225.199 393.283C224.995 393.49 224.717 393.608 224.426 393.611ZM142.262 391.403H223.322V371.092C218.614 370.612 197.608 368.835 178.661 372.974C161.828 376.65 147.61 387.076 142.262 391.403Z" fill="#282828"/>
<path d="M225.53 391.403H138.139V407.066H225.53V391.403Z" fill="#282828"/>
<path d="M182.695 370.125L181.267 371.809L191.788 380.735L193.216 379.051L182.695 370.125Z" fill="#282828"/>
<path d="M172.294 372.753L170.866 374.437L181.39 383.361L182.818 381.677L172.294 372.753Z" fill="#282828"/>
<path d="M162.929 376.571L161.501 378.255L172.024 387.179L173.452 385.496L162.929 376.571Z" fill="#282828"/>
<path d="M182.607 370.441C179.323 337.149 187.492 304.167 201.51 283.873C236.557 233.168 307.732 240.216 310.751 240.542V282.548C310.266 282.498 257.05 279.457 237.832 308.979C224.476 329.505 226.86 369.332 226.871 370.242L182.607 370.441Z" fill="white"/>
<path d="M181.608 371.55L181.509 370.551C178.33 338.336 185.648 304.873 200.605 283.249C236.061 231.982 307.81 239.118 310.867 239.46L311.855 239.565V283.773L310.641 283.658C300.817 283.302 290.983 284.027 281.318 285.821C267.249 288.454 248.451 294.718 238.765 309.603C226.777 328.026 227.666 363.062 227.964 369.9C227.964 370.093 227.964 370.215 227.964 370.259V371.363L181.608 371.55ZM299.007 241.116C276.93 241.116 229.095 245.895 202.421 284.485C187.906 305.491 180.731 337.911 183.612 369.315L225.723 369.139C225.309 358.437 225.171 326.382 236.91 308.361C244.941 296.037 260.229 287.477 281.114 283.613C290.524 281.903 300.086 281.163 309.648 281.406V241.557C307.909 241.397 304.162 241.116 299.007 241.116Z" fill="#282828"/>
<path d="M226.634 354.629H181.884V356.837H226.634V354.629Z" fill="#282828"/>
<path d="M203.161 355.81C203.133 355.44 200.876 318.55 223.537 288.432C235.47 272.581 258.595 265.478 275.892 262.31C287.403 260.23 299.077 259.187 310.773 259.191L310.724 261.399C310.095 261.399 247.38 260.422 225.304 289.757C203.15 319.201 205.335 355.297 205.363 355.661L203.161 355.81Z" fill="#282828"/>
<path d="M338.579 373.427C326.873 373.44 315.65 378.096 307.372 386.374C299.095 394.652 294.439 405.874 294.426 417.581H307.042C307.042 409.217 310.365 401.195 316.279 395.281C322.194 389.367 330.215 386.044 338.579 386.044C346.943 386.044 354.964 389.367 360.879 395.281C366.793 401.195 370.116 409.217 370.116 417.581H382.732C382.719 405.874 378.063 394.652 369.786 386.374C361.508 378.096 350.285 373.44 338.579 373.427Z" fill="white"/>
<path d="M383.836 418.684H369.012V417.58C369.012 409.509 365.805 401.769 360.098 396.061C354.391 390.354 346.65 387.148 338.579 387.148C330.508 387.148 322.767 390.354 317.06 396.061C311.353 401.769 308.146 409.509 308.146 417.58V418.684H293.322V417.58C293.322 405.577 298.09 394.066 306.577 385.579C315.065 377.091 326.576 372.323 338.579 372.323C350.582 372.323 362.093 377.091 370.581 385.579C379.068 394.066 383.836 405.577 383.836 417.58V418.684ZM371.203 416.477H381.612C381.612 405.059 377.076 394.109 369.003 386.036C360.93 377.963 349.98 373.427 338.562 373.427C327.145 373.427 316.195 377.963 308.122 386.036C300.048 394.109 295.513 405.059 295.513 416.477H305.928C306.198 408.004 309.753 399.969 315.842 394.071C321.93 388.174 330.075 384.876 338.551 384.876C347.028 384.876 355.172 388.174 361.261 394.071C367.35 399.969 370.905 408.004 371.175 416.477H371.203Z" fill="#282828"/>
<path d="M338.579 384.703C332.122 384.702 325.81 386.615 320.44 390.202C315.071 393.788 310.886 398.887 308.414 404.852C305.942 410.817 305.295 417.381 306.554 423.714C307.813 430.047 310.922 435.865 315.487 440.431C320.053 444.997 325.87 448.107 332.203 449.367C338.535 450.627 345.1 449.981 351.065 447.51C357.031 445.039 362.13 440.855 365.717 435.486C369.305 430.118 371.219 423.806 371.219 417.349C371.211 408.694 367.769 400.396 361.65 394.276C355.531 388.156 347.234 384.713 338.579 384.703Z" fill="#CAEB66"/>
<path d="M338.877 436.556C349.546 436.556 358.194 427.907 358.194 417.238C358.194 406.57 349.546 397.921 338.877 397.921C328.208 397.921 319.56 406.57 319.56 417.238C319.56 427.907 328.208 436.556 338.877 436.556Z" fill="white"/>
<path d="M244.168 301.408L255.593 293.261L268.475 287.869L281.169 284.707L292.477 283.111L299.967 282.56L311.75 283.663C311.75 283.663 286.412 284.282 273.856 288.747C257.729 294.486 249.307 303.759 249.307 303.759L244.577 303.974L244.168 301.408Z" fill="#282828"/>
<path d="M468.042 447.792H26.5086V450H468.042V447.792Z" fill="#282828"/>
<path d="M190.803 201.207C191.068 201.146 217.77 194.893 239.703 175.819C260.345 157.881 266.223 128.525 266.283 128.216L301.843 133.735C301.634 134.839 299.636 145.055 294.117 158.312C290.936 166.02 287.057 173.421 282.526 180.422C277.16 188.767 270.659 196.325 263.209 202.879C234.178 228.118 200.009 235.889 198.569 236.204L190.842 201.174L190.803 201.207Z" fill="#94C6CB"/>
<path d="M197.752 237.54L189.771 201.433L190.787 201.207L190.544 200.131C190.809 200.07 217.279 193.844 238.969 174.991C259.324 157.291 265.461 127.222 265.5 126.924L267.663 127.344C267.602 127.653 261.427 158.389 240.415 176.658C220.833 193.679 197.492 200.583 192.155 201.996L199.43 234.89C205.606 233.367 236.182 224.956 262.503 202.062C269.874 195.581 276.308 188.106 281.621 179.853C286.108 172.911 289.951 165.573 293.101 157.931C298.565 144.773 300.546 134.679 300.756 133.569L302.925 133.978C302.715 135.109 300.717 145.414 295.143 158.775C291.938 166.544 288.031 174.004 283.47 181.062C278.045 189.491 271.477 197.127 263.954 203.751C234.703 229.139 200.28 237.004 198.828 237.324L197.752 237.54Z" fill="#282828"/>
<path d="M204.025 197.053L201.88 197.576L210.441 232.642L212.586 232.118L204.025 197.053Z" fill="#282828"/>
<path d="M310.751 241.795H268.05L256.934 125.197H310.751V241.795Z" fill="#CAEB66"/>
<path d="M310.751 242.898H268.072C267.796 242.9 267.53 242.798 267.326 242.613C267.122 242.428 266.994 242.174 266.968 241.899L255.836 125.301C255.821 125.148 255.839 124.993 255.888 124.847C255.936 124.701 256.015 124.566 256.119 124.452C256.223 124.338 256.35 124.248 256.491 124.186C256.633 124.124 256.785 124.092 256.94 124.093H310.757C311.05 124.093 311.33 124.209 311.537 124.416C311.744 124.623 311.861 124.904 311.861 125.197V241.795C311.861 241.94 311.832 242.084 311.776 242.218C311.72 242.353 311.639 242.475 311.536 242.577C311.432 242.68 311.31 242.761 311.176 242.816C311.041 242.871 310.897 242.899 310.751 242.898ZM269.049 240.691H309.648V126.317H258.137L269.049 240.691Z" fill="#282828"/>
<path d="M310.751 226.799H266.725V229.007H310.751V226.799Z" fill="#282828"/>
<path d="M304.526 111.747H290.176V125.202H304.526V111.747Z" fill="white"/>
<path d="M305.63 126.318H289.072V110.643H305.63V126.318ZM291.28 124.11H303.422V112.851H291.28V124.11Z" fill="#282828"/>
<path d="M271.03 61.2134L276.444 63.5701H310.785L316.348 61.3679L271.03 61.2134Z" fill="#282828"/>
<path d="M310.785 69.5639V61.125C310.785 56.6503 309.007 52.3588 305.843 49.1947C302.679 46.0305 298.387 44.2529 293.912 44.2529C289.438 44.2529 285.146 46.0305 281.982 49.1947C278.818 52.3588 277.04 56.6503 277.04 61.125C277.04 61.125 270.561 87.3963 270.561 89.7254C270.561 92.0545 274.711 93.8206 277.04 93.8206V103.17C277.04 105.445 277.944 107.626 279.552 109.235C281.161 110.843 283.342 111.747 285.617 111.747H302.213C303.339 111.747 304.454 111.525 305.495 111.094C306.535 110.663 307.48 110.031 308.276 109.234C309.072 108.438 309.703 107.492 310.134 106.452C310.564 105.411 310.785 104.296 310.785 103.17V86.436C311.911 86.4648 313.031 86.2679 314.08 85.8568C315.128 85.4458 316.084 84.8291 316.891 84.0429C317.697 83.2566 318.338 82.3169 318.776 81.2791C319.214 80.2412 319.439 79.1263 319.439 77.9999C319.439 76.8735 319.214 75.7586 318.776 74.7207C318.338 73.6829 317.697 72.7432 316.891 71.9569C316.084 71.1707 315.128 70.554 314.08 70.143C313.031 69.7319 311.911 69.535 310.785 69.5639Z" fill="white"/>
<path d="M302.213 112.851H285.617C283.05 112.848 280.59 111.827 278.775 110.012C276.96 108.197 275.939 105.737 275.936 103.17V94.8582C273.21 94.4332 269.457 92.5733 269.457 89.753C269.457 87.3908 275.136 64.2655 275.936 61.0202C275.954 56.2527 277.865 51.6874 281.248 48.3287C284.632 44.97 289.211 43.0929 293.979 43.1105C298.746 43.128 303.311 45.0388 306.67 48.4223C310.029 51.8059 311.906 56.3851 311.888 61.1526V68.5483C314.213 68.8178 316.358 69.9324 317.915 71.6802C319.472 73.4279 320.332 75.6869 320.332 78.0275C320.332 80.3681 319.472 82.6271 317.915 84.3748C316.358 86.1226 314.213 87.2372 311.888 87.5067V103.198C311.88 105.759 310.857 108.213 309.044 110.022C307.23 111.831 304.774 112.848 302.213 112.851ZM293.934 45.3568C289.754 45.3626 285.747 47.0258 282.791 49.9816C279.835 52.9375 278.172 56.9448 278.166 61.125V61.263L278.133 61.39C275.644 71.4956 271.687 88.1248 271.687 89.7254C271.687 91.1107 274.943 92.7168 277.062 92.7168H278.166V103.17C278.169 105.151 278.957 107.05 280.358 108.451C281.759 109.852 283.658 110.64 285.639 110.643H302.235C304.216 110.64 306.114 109.852 307.514 108.451C308.914 107.05 309.701 105.151 309.703 103.17V85.3321H310.807C311.786 85.359 312.762 85.1893 313.675 84.8329C314.588 84.4765 315.42 83.9407 316.123 83.2572C316.825 82.5737 317.384 81.7563 317.765 80.8533C318.146 79.9503 318.343 78.9801 318.343 77.9999C318.343 77.0197 318.146 76.0495 317.765 75.1465C317.384 74.2436 316.825 73.4262 316.123 72.7427C315.42 72.0591 314.588 71.5234 313.675 71.167C312.762 70.8106 311.786 70.6408 310.807 70.6677H309.703V61.125C309.698 56.9406 308.033 52.929 305.072 49.9722C302.111 47.0154 298.097 45.3553 293.912 45.3568H293.934Z" fill="#282828"/>
<path d="M316.088 78.0028H313.881C313.881 77.1757 313.552 76.3826 312.967 75.7978C312.383 75.213 311.589 74.8844 310.762 74.8844V72.6768C312.175 72.6782 313.528 73.2398 314.527 74.2383C315.525 75.2368 316.087 76.5907 316.088 78.0028Z" fill="#282828"/>
<path d="M286.837 72.185C286.547 71.8946 286.203 71.6643 285.824 71.5071C285.445 71.3499 285.039 71.269 284.629 71.269C284.219 71.269 283.813 71.3499 283.434 71.5071C283.055 71.6643 282.711 71.8946 282.421 72.185L280.859 70.6231C281.859 69.6268 283.212 69.0674 284.624 69.0674C286.035 69.0674 287.388 69.6268 288.388 70.6231L286.837 72.185Z" fill="#282828"/>
<path d="M284.629 81.474C284.044 81.474 283.482 81.2414 283.068 80.8274C282.654 80.4134 282.422 79.8519 282.422 79.2664V76.7331C282.422 76.1475 282.654 75.586 283.068 75.172C283.482 74.758 284.044 74.5254 284.629 74.5254C285.215 74.5254 285.776 74.758 286.19 75.172C286.604 75.586 286.837 76.1475 286.837 76.7331V79.2664C286.837 79.8519 286.604 80.4134 286.19 80.8274C285.776 81.2414 285.215 81.474 284.629 81.474Z" fill="#282828"/>
<path d="M287.015 97.5305L276.887 99.0332L277.211 101.217L287.339 99.7143L287.015 97.5305Z" fill="#282828"/>
<path d="M304.526 117.233L290.176 120.903V111.747H304.526V117.233Z" fill="#282828"/>
<path d="M168.905 221.68L159.149 211.923L100.609 270.463L110.366 280.22L168.905 221.68Z" fill="white"/>
<path d="M110.367 281.781L99.0471 270.462L159.145 210.363L170.465 221.683L110.367 281.781ZM102.171 270.462L110.367 278.646L167.341 221.683L159.145 213.487L102.171 270.462Z" fill="#282828"/>
<path d="M131.412 406.454H92.7828V224.321L131.412 259.031V406.454Z" fill="white"/>
<path d="M131.411 407.552H92.7772C92.4844 407.552 92.2037 407.436 91.9966 407.229C91.7896 407.022 91.6733 406.741 91.6733 406.448V224.316C91.6738 224.102 91.7361 223.894 91.8527 223.715C91.9692 223.536 92.135 223.395 92.33 223.309C92.525 223.223 92.7408 223.195 92.9515 223.228C93.1621 223.262 93.3584 223.356 93.5167 223.499L132.151 258.209C132.266 258.313 132.358 258.44 132.421 258.581C132.483 258.723 132.516 258.876 132.515 259.031V406.448C132.515 406.741 132.399 407.022 132.192 407.229C131.985 407.436 131.704 407.552 131.411 407.552ZM93.881 405.344H130.308V259.522L93.881 226.794V405.344Z" fill="#282828"/>
<path d="M81.4408 373.317C69.7346 373.33 58.5117 377.986 50.2342 386.264C41.9566 394.541 37.3006 405.764 37.2874 417.47H49.9042C49.849 413.293 50.624 409.147 52.1842 405.272C53.7444 401.397 56.0587 397.871 58.9929 394.897C61.9271 391.924 65.4226 389.563 69.2766 387.952C73.1306 386.341 77.2663 385.511 81.4435 385.511C85.6208 385.511 89.7565 386.341 93.6105 387.952C97.4645 389.563 100.96 391.924 103.894 394.897C106.828 397.871 109.143 401.397 110.703 405.272C112.263 409.147 113.038 413.293 112.983 417.47H125.594C125.581 405.764 120.925 394.541 112.647 386.264C104.37 377.986 93.1469 373.33 81.4408 373.317Z" fill="white"/>
<path d="M126.698 418.574H111.879V417.47C111.933 413.439 111.186 409.437 109.681 405.697C108.176 401.956 105.943 398.553 103.111 395.683C100.28 392.813 96.906 390.534 93.1864 388.978C89.4668 387.423 85.4753 386.622 81.4436 386.622C77.4119 386.622 73.4204 387.423 69.7008 388.978C65.9812 390.534 62.6077 392.813 59.7761 395.683C56.9445 398.553 54.7113 401.956 53.2062 405.697C51.701 409.437 50.9539 413.439 51.0081 417.47V418.574H36.1837V417.47C36.1837 405.467 40.9518 393.956 49.4392 385.468C57.9266 376.981 69.4379 372.213 81.4409 372.213C93.4438 372.213 104.955 376.981 113.443 385.468C121.93 393.956 126.698 405.467 126.698 417.47V418.574ZM114.065 416.366H124.479C124.195 405.141 119.536 394.471 111.496 386.633C103.457 378.794 92.6723 374.407 81.4436 374.407C70.2149 374.407 59.4306 378.794 51.3908 386.633C43.351 394.471 38.6922 405.141 38.4079 416.366H48.8226C49.1136 407.909 52.678 399.895 58.7638 394.015C64.8497 388.135 72.9813 384.849 81.4436 384.849C89.906 384.849 98.0376 388.135 104.123 394.015C110.209 399.895 113.774 407.909 114.065 416.366Z" fill="#282828"/>
<path d="M80.9994 385.034C74.6297 385.033 68.4028 386.92 63.1061 390.458C57.8094 393.996 53.6808 399.026 51.2425 404.91C48.8042 410.795 48.1656 417.27 49.4076 423.517C50.6496 429.765 53.7163 435.504 58.22 440.008C62.7236 444.512 68.4619 447.58 74.7091 448.823C80.9563 450.066 87.4318 449.429 93.3167 446.992C99.2016 444.554 104.232 440.427 107.77 435.13C111.309 429.834 113.198 423.608 113.198 417.238C113.189 408.701 109.794 400.515 103.758 394.478C97.7217 388.44 89.5369 385.044 80.9994 385.034Z" fill="#CAEB66"/>
<path d="M81.4409 436.556C92.1094 436.556 100.758 427.907 100.758 417.238C100.758 406.57 92.1094 397.921 81.4409 397.921C70.7723 397.921 62.1238 406.57 62.1238 417.238C62.1238 427.907 70.7723 436.556 81.4409 436.556Z" fill="white"/>
<path d="M198.955 230.657L150.171 181.874C149.431 181.118 148.548 180.517 147.573 180.105C146.599 179.692 145.553 179.477 144.495 179.472C143.437 179.467 142.388 179.672 141.41 180.074C140.432 180.477 139.543 181.069 138.795 181.818C138.047 182.566 137.455 183.455 137.053 184.433C136.651 185.412 136.447 186.46 136.453 187.518C136.458 188.576 136.674 189.622 137.086 190.597C137.499 191.571 138.101 192.453 138.857 193.193L187.635 241.977C188.378 242.721 189.261 243.31 190.232 243.712C191.203 244.115 192.244 244.322 193.295 244.322C194.346 244.322 195.387 244.115 196.358 243.712C197.329 243.31 198.212 242.721 198.955 241.977C199.698 241.234 200.288 240.352 200.69 239.381C201.092 238.409 201.299 237.369 201.299 236.317C201.299 235.266 201.092 234.225 200.69 233.254C200.288 232.283 199.698 231.401 198.955 230.657Z" fill="#282828"/>
<path d="M153.333 217.743L156.297 234.289L168.903 221.683L159.145 211.925L153.333 217.743Z" fill="#282828"/>
<path d="M195.036 200.197L185.019 202.405L172.905 194.391C171.988 193.786 170.869 193.569 169.793 193.789C168.717 194.009 167.773 194.647 167.167 195.564C166.562 196.48 166.346 197.599 166.566 198.675C166.786 199.751 167.424 200.696 168.34 201.301L173.766 204.888L158.66 208.2C156.424 208.691 155.05 211.053 155.58 213.476C156.11 215.899 158.339 217.461 160.591 216.97C158.356 217.461 156.982 219.823 157.517 222.246C158.052 224.669 160.277 226.231 162.523 225.734C160.315 226.231 158.913 228.593 159.449 231.01C159.984 233.428 162.208 234.995 164.46 234.504C162.253 234.995 160.851 237.358 161.381 239.78C161.91 242.203 164.14 243.765 166.392 243.274L182.558 239.709L202.774 235.249L207.499 234.272L199.7 199.253L195.036 200.197Z" fill="white"/>
<path d="M200.539 197.978L194.821 199.115L185.24 201.223L173.512 193.497C172.937 193.117 172.294 192.854 171.618 192.723C170.942 192.592 170.246 192.595 169.572 192.733C168.897 192.87 168.256 193.139 167.685 193.525C167.115 193.91 166.625 194.404 166.246 194.979C165.866 195.553 165.603 196.196 165.472 196.872C165.341 197.548 165.344 198.244 165.482 198.918C165.619 199.593 165.889 200.234 166.274 200.805C166.659 201.376 167.153 201.865 167.728 202.244L170.978 204.391L158.422 207.151C155.596 207.775 153.841 210.727 154.504 213.741C154.683 214.582 155.049 215.371 155.574 216.051C156.099 216.732 156.771 217.285 157.539 217.671C157.053 218.291 156.698 219.004 156.496 219.766C156.293 220.528 156.247 221.323 156.361 222.103C156.474 222.883 156.745 223.632 157.156 224.305C157.567 224.977 158.111 225.559 158.753 226.016C158.982 226.175 159.221 226.317 159.471 226.441C158.943 227.116 158.571 227.9 158.382 228.736C158.192 229.572 158.189 230.44 158.374 231.277C158.559 232.115 158.926 232.901 159.449 233.58C159.973 234.259 160.64 234.814 161.403 235.205C161.228 235.421 161.069 235.65 160.928 235.889C160.205 237.147 159.982 238.631 160.304 240.045C160.547 241.273 161.199 242.383 162.155 243.191C163.111 243.999 164.313 244.459 165.564 244.494C165.922 244.493 166.279 244.455 166.629 244.378L202.995 236.358L208.818 235.15L200.539 197.978ZM202.531 234.189L166.155 242.22C164.499 242.579 162.843 241.386 162.462 239.565C162.259 238.693 162.393 237.776 162.838 236.999C163.024 236.667 163.275 236.376 163.575 236.143C163.876 235.91 164.22 235.739 164.587 235.641L177.938 232.567L177.447 230.414L164.201 233.461C162.573 233.82 160.889 232.633 160.509 230.806C160.293 230.006 160.392 229.154 160.785 228.424C161.178 227.694 161.836 227.143 162.622 226.882L175.901 223.808L175.405 221.655L162.264 224.68C161.872 224.763 161.468 224.762 161.076 224.68C160.684 224.597 160.314 224.434 159.99 224.2C159.261 223.681 158.754 222.906 158.571 222.031C158.168 220.204 159.173 218.427 160.807 218.068L174.246 214.977L173.749 212.825L160.359 215.91C158.704 216.263 157.076 215.077 156.673 213.255C156.27 211.434 157.274 209.657 158.908 209.292L176.569 205.429L168.969 200.407C168.303 199.961 167.839 199.269 167.681 198.483C167.522 197.697 167.681 196.88 168.123 196.211C168.565 195.541 169.254 195.074 170.039 194.911C170.824 194.748 171.642 194.902 172.314 195.34L184.826 203.619L195.285 201.317L198.878 200.6L206.202 233.472L202.531 234.189Z" fill="#282828"/>
<path d="M199.7 199.269C199.965 199.209 226.667 192.955 248.6 173.881C269.231 155.944 275.131 126.576 275.191 126.278L310.751 131.797C310.536 132.901 308.544 143.112 303.024 156.374C299.842 164.08 295.963 171.479 291.434 178.479C286.066 186.825 279.565 194.384 272.117 200.942C243.086 226.181 208.923 233.946 207.482 234.266L199.755 199.236L199.7 199.269Z" fill="#CAEB66"/>
<path d="M206.66 235.597L198.679 199.491L199.695 199.264L199.452 198.188C199.717 198.128 226.187 191.902 247.871 173.048C268.232 155.348 274.363 125.285 274.408 124.982L276.571 125.401C276.51 125.71 270.334 156.447 249.323 174.715C229.747 191.736 206.4 198.641 201.063 200.059L208.332 232.953C214.514 231.425 245.09 223.019 271.411 200.125C278.781 193.636 285.213 186.154 290.524 177.894C295.014 170.951 298.858 163.611 302.009 155.967C307.473 142.814 309.454 132.714 309.664 131.61L311.833 132.019C311.623 133.123 309.625 143.455 304.051 156.817C300.84 164.586 296.925 172.046 292.356 179.103C286.932 187.535 280.364 195.172 272.84 201.798C243.589 227.186 209.166 235.045 207.714 235.365L206.66 235.597Z" fill="#282828"/>
<path d="M449.26 194.275H338.877V282.582H449.26V194.275Z" fill="#CAEB66"/>
<path d="M450.364 283.685H337.773V193.171H450.364V283.685ZM339.981 281.478H448.157V195.379H339.981V281.478Z" fill="#282828"/>
<path d="M338.877 83.8915V194.275H427.184V83.8915H338.877Z" fill="white"/>
<path d="M428.288 195.379H337.773V82.7876H428.288V195.379ZM339.981 193.171H426.08V84.9953H339.981V193.171Z" fill="#282828"/>
<path d="M413.8 0H345.362V84.9952H413.8V0Z" fill="#282828"/>
<path d="M400.968 194.275H387.17V282.549H400.968V194.275Z" fill="white"/>
<path d="M402.072 283.652H386.066V193.171H402.072V283.652ZM388.274 281.445H399.864V195.379H388.274V281.445Z" fill="#282828"/>
<path d="M338.894 231.529V245.327H449.261V231.529H338.894Z" fill="white"/>
<path d="M450.364 246.431H337.773V230.425H450.364V246.431ZM339.981 244.223H448.157V232.633H339.981V244.223Z" fill="#282828"/>
<path d="M386.48 1.104H372.682V28.6999H386.48V1.104Z" fill="white"/>
<path d="M338.877 132.184V145.982H427.184V132.184H338.877Z" fill="#CAEB66"/>
<path d="M428.288 147.086H337.773V131.08H428.288V147.086ZM339.981 144.878H426.08V133.288H339.981V144.878Z" fill="#282828"/>
<path d="M327.839 111.487V282.582H310.729V128.597C310.729 124.059 312.532 119.707 315.741 116.499C318.949 113.29 323.301 111.487 327.839 111.487Z" fill="#94C6CB"/>
<path d="M328.943 283.685H309.625V128.597C309.625 123.766 311.544 119.133 314.96 115.718C318.376 112.302 323.008 110.383 327.839 110.383H328.943V283.685ZM311.833 281.478H326.735V112.624C322.694 112.903 318.909 114.705 316.143 117.665C313.378 120.625 311.837 124.524 311.833 128.574V281.478Z" fill="#282828"/>
<path d="M315.288 60.3025C315.344 57.4528 314.833 54.6204 313.784 51.9702C312.735 49.3199 311.169 46.9048 309.178 44.8654C307.187 42.826 304.81 41.203 302.186 40.0909C299.561 38.9789 296.742 38.4 293.892 38.3879C291.041 38.3758 288.217 38.9308 285.584 40.0206C282.95 41.1103 280.559 42.7131 278.551 44.7356C276.542 46.7581 274.956 49.1598 273.885 51.8011C272.814 54.4423 272.278 57.2703 272.31 60.1204L315.288 60.3081V60.3025Z" fill="#CAEB66"/>
<path d="M316.392 61.4173L271.201 61.2241V60.1203C271.234 54.1475 273.628 48.4303 277.86 44.2151C282.091 39.9999 287.818 37.6288 293.791 37.6187H293.885C299.874 37.6522 305.605 40.0587 309.823 44.3107C314.041 48.5627 316.401 54.3133 316.386 60.3025L316.392 61.4173ZM273.447 59.022L314.157 59.1986C313.909 53.9817 311.667 49.0591 307.895 45.4466C304.123 41.8341 299.109 39.8074 293.886 39.7848C288.663 39.7621 283.631 41.7452 279.828 45.3248C276.025 48.9045 273.741 53.8074 273.447 59.022Z" fill="#282828"/>
<path d="M315.352 50.39L272.131 50.3447L272.121 60.1468L315.342 60.192L315.352 50.39Z" fill="#CAEB66"/>
<path d="M316.447 61.2795L271.024 61.2353V49.2256L316.447 49.2697V61.2795ZM273.232 59.0331L314.245 59.0718V51.4774L273.232 51.4333V59.0331Z" fill="#282828"/>
<path d="M212.927 195.118L210.782 195.642L219.343 230.707L221.488 230.183L212.927 195.118Z" fill="#282828"/>
<path d="M310.751 125.197V282.581L306.877 282.543L310.751 125.197Z" fill="#282828"/>
<path d="M277.134 61.2353L310.348 60.3081V64.7345L277.134 61.2353Z" fill="#282828"/>
<path d="M338.877 83.8916L338.579 373.427L343.193 373.863L338.877 83.8916Z" fill="#282828"/>
<path d="M92.7828 224.321V374.79L98.6552 376.81L92.7828 224.321Z" fill="#282828"/>
<path d="M122.774 249.864L131.411 259.031L134.585 256.001L122.774 249.864Z" fill="#282828"/>
<path d="M264.727 206.964L280.871 192.343L290.253 180.284L297.787 167.617L303.902 154.222L307.81 143.145L309.659 140.783C309.659 140.783 305.172 161.27 294.144 180.284C282.869 199.722 265.389 214.012 265.389 214.012L264.727 206.964Z" fill="#282828"/>
<path d="M276.416 206.153L274.855 207.714L295.679 228.538L297.241 226.977L276.416 206.153Z" fill="#282828"/>
<path d="M301.062 240.694L280.034 261.721L281.595 263.282L302.623 242.255L301.062 240.694Z" fill="#282828"/>
<path d="M338.877 194.275H427.184L338.877 198.591V194.275Z" fill="#282828"/>
<path d="M200.573 198.015L189.658 200.415L197.723 237.097L208.638 234.697L200.573 198.015Z" fill="#282828"/>
<path d="M199.043 226.01C203.997 226.01 208.012 221.995 208.012 217.041C208.012 212.088 203.997 208.073 199.043 208.073C194.09 208.073 190.075 212.088 190.075 217.041C190.075 221.995 194.09 226.01 199.043 226.01Z" fill="white"/>
<path d="M199.082 227.114C198.591 227.114 198.1 227.079 197.614 227.009C195.641 226.726 193.797 225.864 192.314 224.533C190.831 223.201 189.777 221.46 189.284 219.529C188.791 217.598 188.882 215.564 189.545 213.685C190.209 211.806 191.415 210.166 193.011 208.972C194.287 208.018 195.772 207.381 197.343 207.113C198.913 206.844 200.525 206.952 202.046 207.428C203.567 207.904 204.953 208.733 206.091 209.849C207.229 210.964 208.086 212.334 208.591 213.845C209.097 215.356 209.237 216.965 209 218.541C208.762 220.117 208.155 221.613 207.227 222.909C206.298 224.204 205.076 225.26 203.66 225.991C202.244 226.722 200.675 227.107 199.082 227.114ZM194.335 210.76C192.887 211.855 191.862 213.417 191.435 215.182C191.008 216.946 191.206 218.805 191.995 220.44C192.784 222.075 194.115 223.387 195.762 224.151C197.408 224.916 199.269 225.086 201.028 224.633C202.786 224.18 204.333 223.132 205.405 221.667C206.478 220.203 207.01 218.411 206.911 216.598C206.812 214.785 206.087 213.063 204.861 211.724C203.635 210.385 201.983 209.512 200.186 209.254C199.159 209.105 198.114 209.162 197.109 209.42C196.105 209.679 195.162 210.134 194.335 210.76Z" fill="#282828"/>
<path d="M204.254 216.396L197.78 216.448L197.798 218.656L204.272 218.604L204.254 216.396Z" fill="#282828"/>
<path d="M199.976 212.126L197.768 212.144L197.812 217.525L200.019 217.507L199.976 212.126Z" fill="#282828"/>
<path d="M125.086 405.433L119.672 395.393L114.153 387.821L107.569 381.882L100.129 377.467L92.7938 374.796V370.011C92.7938 370.011 105.223 373.974 112.663 381.706C122.084 391.491 125.086 405.433 125.086 405.433Z" fill="#282828"/>
<path d="M376.904 393.611L370.894 388.058L363.719 381.717L356.307 376.849L347.724 374.713L338.584 373.427V367.356C338.584 367.356 352.515 369.713 361.312 375.889C372.737 383.941 376.904 393.611 376.904 393.611Z" fill="#282828"/>
<path d="M339.992 84.8242L338.877 194.275H344.236L339.992 84.8242Z" fill="#282828"/>
<path d="M340.56 198.326L338.877 282.548H345.274L340.56 198.326Z" fill="#282828"/>
<path d="M326.763 112.575L327.723 303.974H323.175L326.763 112.575Z" fill="#282828"/>
<path d="M94.9353 416.134H67.3395V418.342H94.9353V416.134Z" fill="#282828"/>
<path d="M90.1126 406.7L70.5994 426.213L72.1604 427.774L91.6736 408.261L90.1126 406.7Z" fill="#282828"/>
<path d="M82.2412 403.44H80.0336V431.036H82.2412V403.44Z" fill="#282828"/>
<path d="M72.1604 406.7L70.5994 408.261L90.1126 427.774L91.6736 426.213L72.1604 406.7Z" fill="#282828"/>
<path d="M352.377 416.582H324.781V418.789H352.377V416.582Z" fill="#282828"/>
<path d="M347.556 407.149L328.043 426.662L329.604 428.223L349.117 408.71L347.556 407.149Z" fill="#282828"/>
<path d="M339.683 403.888H337.475V431.484H339.683V403.888Z" fill="#282828"/>
<path d="M329.604 407.154L328.043 408.715L347.556 428.229L349.117 426.667L329.604 407.154Z" fill="#282828"/>
<path d="M81.1373 422.758C84.1855 422.758 86.6565 420.287 86.6565 417.238C86.6565 414.19 84.1855 411.719 81.1373 411.719C78.0892 411.719 75.6182 414.19 75.6182 417.238C75.6182 420.287 78.0892 422.758 81.1373 422.758Z" fill="#CAEB66"/>
<path d="M81.1373 423.861C79.8274 423.861 78.5469 423.473 77.4577 422.745C76.3686 422.017 75.5197 420.983 75.0184 419.773C74.5171 418.563 74.386 417.231 74.6415 415.946C74.8971 414.661 75.5279 413.481 76.4541 412.555C77.3804 411.629 78.5605 410.998 79.8452 410.742C81.1299 410.487 82.4616 410.618 83.6718 411.119C84.882 411.621 85.9164 412.47 86.6441 413.559C87.3719 414.648 87.7603 415.928 87.7603 417.238C87.7603 418.995 87.0625 420.679 85.8205 421.921C84.5784 423.163 82.8938 423.861 81.1373 423.861ZM81.1373 412.823C80.264 412.823 79.4104 413.082 78.6843 413.567C77.9582 414.052 77.3922 414.742 77.0581 415.549C76.7239 416.355 76.6364 417.243 76.8068 418.1C76.9772 418.956 77.3977 419.743 78.0152 420.36C78.6327 420.978 79.4194 421.398 80.2759 421.569C81.1324 421.739 82.0202 421.652 82.827 421.317C83.6338 420.983 84.3233 420.417 84.8085 419.691C85.2937 418.965 85.5526 418.112 85.5526 417.238C85.5526 416.067 85.0874 414.944 84.2594 414.116C83.4314 413.288 82.3083 412.823 81.1373 412.823Z" fill="#282828"/>
<path d="M338.579 423.1C341.627 423.1 344.098 420.629 344.098 417.581C344.098 414.533 341.627 412.062 338.579 412.062C335.531 412.062 333.06 414.533 333.06 417.581C333.06 420.629 335.531 423.1 338.579 423.1Z" fill="#CAEB66"/>
<path d="M338.579 424.204C337.269 424.204 335.989 423.815 334.899 423.087C333.81 422.36 332.961 421.325 332.46 420.115C331.959 418.905 331.828 417.573 332.083 416.288C332.339 415.004 332.97 413.824 333.896 412.897C334.822 411.971 336.002 411.34 337.287 411.085C338.572 410.829 339.903 410.96 341.113 411.462C342.324 411.963 343.358 412.812 344.086 413.901C344.814 414.99 345.202 416.271 345.202 417.581C345.202 419.337 344.504 421.022 343.262 422.264C342.02 423.506 340.335 424.204 338.579 424.204ZM338.579 413.165C337.706 413.165 336.852 413.424 336.126 413.909C335.4 414.394 334.834 415.084 334.5 415.891C334.165 416.698 334.078 417.585 334.248 418.442C334.419 419.298 334.839 420.085 335.457 420.703C336.074 421.32 336.861 421.741 337.718 421.911C338.574 422.081 339.462 421.994 340.269 421.66C341.075 421.326 341.765 420.76 342.25 420.034C342.735 419.307 342.994 418.454 342.994 417.581C342.994 416.41 342.529 415.286 341.701 414.458C340.873 413.63 339.75 413.165 338.579 413.165Z" fill="#282828"/>
<path d="M189.52 355.082L175.131 369.471L176.692 371.032L191.081 356.643L189.52 355.082Z" fill="#282828"/>
<path d="M201.712 355.082L187.323 369.471L188.884 371.032L203.273 356.643L201.712 355.082Z" fill="#282828"/>
<path d="M213.9 355.08L199.511 369.469L201.072 371.03L215.461 356.641L213.9 355.08Z" fill="#282828"/>
<path d="M226.092 355.08L211.703 369.469L213.264 371.03L227.653 356.641L226.092 355.08Z" fill="#282828"/>
<path d="M281.313 226.986L266.924 241.375L268.485 242.937L282.874 228.548L281.313 226.986Z" fill="#282828"/>
<path d="M293.505 226.986L279.116 241.375L280.677 242.937L295.066 228.548L293.505 226.986Z" fill="#282828"/>
<path d="M305.693 226.99L291.304 241.379L292.865 242.94L307.254 228.551L305.693 226.99Z" fill="#282828"/>
<path d="M281.476 49.5805L271.532 59.5244L273.094 61.0855L283.037 51.1415L281.476 49.5805Z" fill="#282828"/>
<path d="M289.899 49.5854L279.955 59.5293L281.516 61.0904L291.46 51.1464L289.899 49.5854Z" fill="#282828"/>
<path d="M298.321 49.5853L288.377 59.5293L289.938 61.0904L299.882 51.1464L298.321 49.5853Z" fill="#282828"/>
<path d="M306.119 49.7977L296.175 59.7417L297.736 61.3028L307.68 51.3588L306.119 49.7977Z" fill="#282828"/>
<path d="M314.541 49.7973L304.597 59.7412L306.158 61.3023L316.102 51.3583L314.541 49.7973Z" fill="#282828"/>
<path d="M377.511 61.5771H352.957V63.7848H377.511V61.5771Z" fill="white"/>
<path d="M387.86 72.0693H352.957V74.277H387.86V72.0693Z" fill="white"/>
<path d="M418.414 173.396H393.859V175.604H418.414V173.396Z" fill="#282828"/>
<path d="M418.419 183.888H383.516V186.095H418.419V183.888Z" fill="#282828"/>
<path d="M372.583 263.546H348.028V265.754H372.583V263.546Z" fill="#282828"/>
<path d="M382.931 274.038H348.028V276.246H382.931V274.038Z" fill="#282828"/>
<path d="M406.018 58.2657H392.965V45.2129H406.018V58.2657ZM395.173 56.0581H403.81V47.4206H395.173V56.0581Z" fill="#CAEB66"/>
<path d="M372.229 96.5469H346.466V105.256H372.229V96.5469Z" fill="#282828"/>
<path d="M434.265 263.601C432.737 263.601 431.243 263.148 429.972 262.299C428.701 261.45 427.711 260.243 427.126 258.831C426.541 257.419 426.388 255.866 426.687 254.367C426.985 252.868 427.721 251.491 428.801 250.411C429.882 249.33 431.259 248.594 432.758 248.296C434.256 247.998 435.81 248.151 437.222 248.736C438.634 249.32 439.841 250.311 440.69 251.582C441.539 252.852 441.992 254.346 441.992 255.874C441.982 257.92 441.164 259.88 439.717 261.327C438.271 262.774 436.311 263.591 434.265 263.601ZM434.265 250.3C433.167 250.294 432.092 250.615 431.176 251.221C430.26 251.827 429.545 252.692 429.121 253.705C428.697 254.718 428.583 255.834 428.794 256.912C429.005 257.99 429.531 258.981 430.305 259.759C431.08 260.537 432.068 261.069 433.145 261.285C434.222 261.501 435.338 261.393 436.354 260.974C437.369 260.555 438.237 259.844 438.847 258.931C439.458 258.018 439.784 256.945 439.784 255.847C439.781 254.381 439.2 252.976 438.166 251.937C437.132 250.899 435.73 250.31 434.265 250.3Z" fill="#282828"/>
<path d="M442.019 267.194H417.316V276.246H442.019V267.194Z" fill="#282828"/>
</svg>
