<svg width="1281" height="174" viewBox="0 0 1281 174" fill="none" xmlns="http://www.w3.org/2000/svg">
<g style="mix-blend-mode:screen">
<path opacity="0.39" d="M1507.04 -137.15C1507.04 -137.15 1320.32 -59.9835 1057.02 -100.442C878.678 -127.856 684.15 -43.8001 522.989 -22.6434C310.606 5.23944 99.6306 -74.3325 9.92871 -105.212" stroke="url(#paint0_linear_2005_443)" stroke-width="1.75287" stroke-linecap="round" stroke-linejoin="round"/>
<path opacity="0.35" d="M1511.4 -129.303C1511.4 -129.303 1329.47 -39.5809 1059.45 -92.7784C881.409 -127.856 684.66 -44.6765 523.804 -16.7122C311.829 20.1592 97.735 -61.6956 7.21785 -110.083" stroke="url(#paint1_linear_2005_443)" stroke-width="1.75287" stroke-linecap="round" stroke-linejoin="round"/>
<path opacity="0.3" d="M1515.76 -121.456C1515.76 -121.456 1338.44 -18.8726 1061.89 -85.0943C884.059 -127.673 685.169 -45.5529 524.639 -10.7605C313.093 35.079 95.8599 -49.0382 4.52739 -114.934" stroke="url(#paint2_linear_2005_443)" stroke-width="1.75287" stroke-linecap="round" stroke-linejoin="round"/>
<path opacity="0.26" d="M1520.15 -113.609C1520.15 -113.609 1347.24 2.10068 1064.34 -77.4305C886.566 -127.408 685.679 -46.4293 525.475 -4.82926C314.336 49.9784 93.9847 -36.3808 1.83693 -119.785" stroke="url(#paint3_linear_2005_443)" stroke-width="1.75287" stroke-linecap="round" stroke-linejoin="round"/>
<path opacity="0.22" d="M1524.51 -105.762C1524.51 -105.762 1355.78 23.3387 1066.76 -69.7467C888.91 -127.021 686.188 -47.2856 526.29 1.10171C315.58 64.8775 92.0891 -23.7442 -0.873932 -124.656" stroke="url(#paint4_linear_2005_443)" stroke-width="1.75287" stroke-linecap="round" stroke-linejoin="round"/>
<path opacity="0.17" d="M1528.87 -97.9146C1528.87 -97.9146 1364.12 44.7605 1069.19 -62.0828C891.111 -126.592 686.678 -48.1821 527.106 7.03317C316.803 79.7771 90.1937 -11.107 -3.58467 -129.527" stroke="url(#paint5_linear_2005_443)" stroke-width="1.75287" stroke-linecap="round" stroke-linejoin="round"/>
<path opacity="0.13" d="M1533.23 -90.0676C1533.23 -90.0676 1372.23 66.3859 1071.62 -54.4192C893.19 -126.124 687.187 -49.0587 527.921 12.9643C318.046 94.6968 88.3185 1.52986 -6.29553 -134.378" stroke="url(#paint6_linear_2005_443)" stroke-width="1.75287" stroke-linecap="round" stroke-linejoin="round"/>
<path opacity="0.09" d="M1537.59 -82.2207C1537.59 -82.2207 1380.12 88.1334 1074.04 -46.7354C895.126 -125.574 687.676 -49.915 528.736 18.8952C319.269 109.596 86.4229 14.1666 -9.00639 -139.25" stroke="url(#paint7_linear_2005_443)" stroke-width="1.75287" stroke-linecap="round" stroke-linejoin="round"/>
<path opacity="0.04" d="M1541.95 -74.3732C1541.95 -74.3732 1387.78 110.004 1076.47 -39.0713C896.92 -125.043 688.166 -50.791 529.552 24.8268C320.512 124.496 84.5273 26.8039 -11.7173 -144.101" stroke="url(#paint8_linear_2005_443)" stroke-width="1.75287" stroke-linecap="round" stroke-linejoin="round"/>
<path opacity="0.05" d="M1545.13 -62.3683C1545.13 -62.3683 1397.12 116.424 1083.58 -37.4001C901.241 -126.857 696.889 -47.8562 533.363 31.6139C321.144 134.748 85.5669 24.7859 -13.9592 -154.822" stroke="url(#paint9_linear_2005_443)" stroke-width="1.75287" stroke-linecap="round" stroke-linejoin="round"/>
<path opacity="0.09" d="M1543.93 -58.2309C1543.93 -58.2309 1398.83 100.974 1088.25 -43.413C903.789 -129.181 705.144 -44.0041 536.318 32.4494C320.594 130.141 88.4408 10.1105 -13.5312 -160.712" stroke="url(#paint10_linear_2005_443)" stroke-width="1.75287" stroke-linecap="round" stroke-linejoin="round"/>
<path opacity="0.14" d="M1542.73 -54.0723C1542.73 -54.0723 1400.4 85.7086 1092.91 -49.4048C906.275 -131.423 713.48 -40.0698 539.294 33.3264C320.125 125.678 91.3758 -4.54369 -13.0828 -166.562" stroke="url(#paint11_linear_2005_443)" stroke-width="1.75287" stroke-linecap="round" stroke-linejoin="round"/>
<path opacity="0.18" d="M1541.55 -49.9148C1541.55 -49.9148 1401.85 70.6049 1097.6 -55.418C908.701 -133.645 721.857 -36.1161 542.29 34.1616C319.738 121.255 94.2701 -19.1989 -12.6548 -172.412" stroke="url(#paint12_linear_2005_443)" stroke-width="1.75287" stroke-linecap="round" stroke-linejoin="round"/>
<path opacity="0.23" d="M1540.34 -45.7768C1540.34 -45.7768 1403.17 55.6245 1102.25 -61.4303C911.024 -135.825 730.255 -32.1003 545.246 34.9977C319.391 116.934 97.1847 -33.8736 -12.2064 -178.281" stroke="url(#paint13_linear_2005_443)" stroke-width="1.75287" stroke-linecap="round" stroke-linejoin="round"/>
<path opacity="0.27" d="M1539.14 -41.6194C1539.14 -41.6194 1404.35 40.8265 1106.92 -67.4232C913.307 -137.884 738.713 -28.0041 548.222 35.8532C319.106 112.694 100.099 -48.5289 -11.7579 -184.152" stroke="url(#paint14_linear_2005_443)" stroke-width="1.75287" stroke-linecap="round" stroke-linejoin="round"/>
<path opacity="0.32" d="M1537.94 -37.4608C1537.94 -37.4608 1405.45 26.2131 1111.58 -73.4353C915.529 -139.902 747.192 -23.8659 551.197 36.7099C318.841 108.537 102.994 -63.2035 -11.33 -190.001" stroke="url(#paint15_linear_2005_443)" stroke-width="1.75287" stroke-linecap="round" stroke-linejoin="round"/>
<path opacity="0.36" d="M1536.76 -33.3034C1536.76 -33.3034 1406.47 11.7616 1116.27 -79.4283C917.689 -141.818 755.712 -19.6678 554.194 37.5654C318.637 104.439 105.908 -77.8588 -10.8815 -195.872" stroke="url(#paint16_linear_2005_443)" stroke-width="1.75287" stroke-linecap="round" stroke-linejoin="round"/>
<path opacity="0.41" d="M1535.55 -29.1654C1535.55 -29.1654 1407.39 -2.52593 1120.94 -85.4406C919.809 -143.652 764.252 -15.4075 557.17 38.4015C318.433 100.445 108.823 -92.5336 -10.4534 -201.741" stroke="url(#paint17_linear_2005_443)" stroke-width="1.75287" stroke-linecap="round" stroke-linejoin="round"/>
<path opacity="0.45" d="M1534.35 -25.0079C1534.35 -25.0079 1408.23 -16.6308 1125.59 -91.4333C921.827 -145.365 772.772 -11.0665 560.125 39.2775C318.27 96.4902 111.717 -107.189 -10.0051 -207.591" stroke="url(#paint18_linear_2005_443)" stroke-width="1.75287" stroke-linecap="round" stroke-linejoin="round"/>
<path opacity="0.5" d="M1533.15 -20.8495C1533.15 -20.8495 1409 -30.5514 1130.25 -97.4456C923.845 -146.974 781.333 -6.68386 563.08 40.1136C318.107 92.6384 114.632 -121.843 -9.55663 -213.461" stroke="url(#paint19_linear_2005_443)" stroke-width="1.75287" stroke-linecap="round" stroke-linejoin="round"/>
<path opacity="0.55" d="M1531.97 -16.7125C1531.97 -16.7125 1409.76 -44.3099 1134.94 -103.459C925.842 -148.463 789.934 -2.2411 566.076 40.9487C317.964 88.8264 117.546 -136.519 -9.12868 -219.332" stroke="url(#paint20_linear_2005_443)" stroke-width="1.75287" stroke-linecap="round" stroke-linejoin="round"/>
<path opacity="0.59" d="M1530.76 -12.5539C1530.76 -12.5539 1410.45 -57.8838 1139.61 -109.451C927.799 -149.787 798.494 2.28432 569.052 41.8053C317.822 85.0971 120.441 -151.173 -8.68021 -225.181" stroke="url(#paint21_linear_2005_443)" stroke-width="1.75287" stroke-linecap="round" stroke-linejoin="round"/>
<path opacity="0.64" d="M1529.56 -8.39651C1529.56 -8.39651 1411.12 -71.2755 1144.28 -115.464C929.735 -150.99 807.075 6.84936 572.028 42.6608C317.679 81.4073 123.355 -165.849 -8.25226 -231.051" stroke="url(#paint22_linear_2005_443)" stroke-width="1.75287" stroke-linecap="round" stroke-linejoin="round"/>
<path opacity="0.68" d="M1528.36 -4.25849C1528.36 -4.25849 1411.77 -84.5234 1148.92 -121.476C931.631 -152.029 815.636 11.4562 574.983 43.4969C317.536 77.7797 126.27 -180.503 -7.80379 -236.921" stroke="url(#paint23_linear_2005_443)" stroke-width="1.75287" stroke-linecap="round" stroke-linejoin="round"/>
<path opacity="0.73" d="M1527.16 -0.100962C1527.16 -0.100962 1412.45 -97.5685 1153.59 -127.469C933.567 -152.886 824.196 16.1436 577.959 44.3525C317.373 74.192 129.164 -195.179 -7.35544 -242.771" stroke="url(#paint24_linear_2005_443)" stroke-width="1.75287" stroke-linecap="round" stroke-linejoin="round"/>
<path opacity="0.77" d="M1525.97 4.05746C1525.97 4.05746 1413.16 -110.45 1158.28 -133.481C935.524 -153.599 832.777 20.8728 580.955 45.1887C317.21 70.6664 132.079 -209.833 -6.92737 -248.641" stroke="url(#paint25_linear_2005_443)" stroke-width="1.75287" stroke-linecap="round" stroke-linejoin="round"/>
<path opacity="0.82" d="M1524.77 8.21491C1524.77 8.21491 1413.89 -123.189 1162.95 -139.474C937.48 -154.109 841.338 25.6824 583.931 46.0646C317.047 67.1805 134.994 -224.509 -6.47903 -254.511" stroke="url(#paint26_linear_2005_443)" stroke-width="1.75287" stroke-linecap="round" stroke-linejoin="round"/>
<path opacity="0.86" d="M1523.57 12.353C1523.57 12.353 1414.67 -135.805 1167.62 -145.486C939.457 -154.434 849.878 30.4932 586.887 46.9008C316.843 63.7365 137.908 -239.163 -6.05096 -260.36" stroke="url(#paint27_linear_2005_443)" stroke-width="1.75287" stroke-linecap="round" stroke-linejoin="round"/>
<path opacity="0.91" d="M1522.37 16.5109C1522.37 16.5109 1415.5 -148.238 1172.28 -151.499C941.495 -154.577 858.418 35.3645 589.862 47.7364C316.639 60.3326 140.803 -253.818 -5.6026 -266.23" stroke="url(#paint28_linear_2005_443)" stroke-width="1.75287" stroke-linecap="round" stroke-linejoin="round"/>
<path opacity="0.95" d="M1521.18 20.669C1521.18 20.669 1416.46 -160.549 1176.95 -157.492C943.595 -154.516 866.938 40.297 592.838 48.6129C316.436 56.9696 143.717 -268.493 -5.15414 -272.08" stroke="url(#paint29_linear_2005_443)" stroke-width="1.75287" stroke-linecap="round" stroke-linejoin="round"/>
<path d="M1519.98 24.8065C1519.98 24.8065 1417.48 -172.758 1181.62 -163.504C945.755 -154.251 875.437 45.2498 595.814 49.4485C316.191 53.6268 146.632 -283.148 -4.72607 -277.95" stroke="url(#paint30_linear_2005_443)" stroke-width="1.75287" stroke-linecap="round" stroke-linejoin="round"/>
<path opacity="0.95" d="M1519.33 17.2042C1519.43 17.4488 1412.14 -161.853 1176.05 -155.086C939.967 -148.319 872.461 45.9023 591.187 51.6501C309.913 57.3978 143.758 -271.835 -5.86746 -269.756" stroke="url(#paint31_linear_2005_443)" stroke-width="1.75287" stroke-linecap="round" stroke-linejoin="round"/>
<path opacity="0.91" d="M1518.68 9.60182C1518.86 10.091 1406.8 -150.948 1170.49 -146.689C934.158 -142.408 869.485 46.5343 586.561 53.8515C303.615 61.1687 140.905 -260.503 -7.00885 -261.562" stroke="url(#paint32_linear_2005_443)" stroke-width="1.75287" stroke-linecap="round" stroke-linejoin="round"/>
<path opacity="0.86" d="M1518.01 1.99853C1518.29 2.73229 1401.46 -140.065 1164.9 -138.272C928.349 -136.478 866.489 47.1654 581.913 56.052C297.338 64.9387 138.051 -249.171 -8.17065 -253.37" stroke="url(#paint33_linear_2005_443)" stroke-width="1.75287" stroke-linecap="round" stroke-linejoin="round"/>
<path opacity="0.82" d="M1517.35 -5.60392C1517.72 -4.62558 1396.12 -129.161 1159.34 -129.854C922.561 -130.547 863.534 47.8177 577.287 58.2534C291.06 68.7094 135.198 -237.838 -9.31206 -245.196" stroke="url(#paint34_linear_2005_443)" stroke-width="1.75287" stroke-linecap="round" stroke-linejoin="round"/>
<path opacity="0.77" d="M1516.7 -13.2063C1517.17 -11.9833 1390.78 -118.256 1153.78 -121.436C916.752 -124.615 860.558 48.4498 572.66 60.4753C284.762 72.4804 132.344 -226.526 -10.4738 -237.002" stroke="url(#paint35_linear_2005_443)" stroke-width="1.75287" stroke-linecap="round" stroke-linejoin="round"/>
<path opacity="0.73" d="M1516.05 -20.8091C1516.62 -19.3416 1385.44 -107.352 1148.19 -113.018C910.943 -118.684 857.562 49.1018 568.013 62.6763C278.484 76.2508 129.47 -215.194 -11.6152 -228.809" stroke="url(#paint36_linear_2005_443)" stroke-width="1.75287" stroke-linecap="round" stroke-linejoin="round"/>
<path opacity="0.68" d="M1515.4 -28.4318C1516.05 -26.7401 1380.12 -96.4675 1142.63 -104.62C905.154 -112.773 854.586 49.7338 563.386 64.8777C272.206 80.0217 126.617 -203.861 -12.7566 -220.615" stroke="url(#paint37_linear_2005_443)" stroke-width="1.75287" stroke-linecap="round" stroke-linejoin="round"/>
<path opacity="0.64" d="M1514.74 -36.0341C1515.5 -34.0978 1374.78 -85.5832 1137.06 -96.2023C899.345 -106.842 851.61 50.3659 558.759 67.0792C265.908 83.7926 123.763 -192.549 -13.9184 -212.421" stroke="url(#paint38_linear_2005_443)" stroke-width="1.75287" stroke-linecap="round" stroke-linejoin="round"/>
<path opacity="0.59" d="M1514.07 -43.6369C1514.91 -41.456 1369.42 -74.679 1131.48 -87.7847C893.536 -100.911 848.614 51.0178 554.112 69.2803C259.631 87.5631 120.91 -181.217 -15.0598 -204.228" stroke="url(#paint39_linear_2005_443)" stroke-width="1.75287" stroke-linecap="round" stroke-linejoin="round"/>
<path opacity="0.55" d="M1513.42 -51.2393C1514.36 -48.8138 1364.08 -63.7743 1125.91 -79.3667C887.727 -94.959 845.638 51.6499 549.485 71.5021C253.353 91.334 118.056 -169.884 -16.2012 -196.034" stroke="url(#paint40_linear_2005_443)" stroke-width="1.75287" stroke-linecap="round" stroke-linejoin="round"/>
<path opacity="0.5" d="M1512.77 -58.8426C1513.81 -56.1725 1358.76 -52.8706 1120.35 -70.97C881.939 -89.049 842.683 52.281 544.859 73.6823C247.055 95.1039 115.182 -158.552 -17.363 -187.841" stroke="url(#paint41_linear_2005_443)" stroke-width="1.75287" stroke-linecap="round" stroke-linejoin="round"/>
<path opacity="0.45" d="M1512.11 -66.4449C1513.24 -63.5303 1353.42 -41.9659 1114.78 -62.5519C876.15 -83.1175 839.707 52.9334 540.232 75.9041C240.777 98.8748 112.329 -147.24 -18.5044 -179.647" stroke="url(#paint42_linear_2005_443)" stroke-width="1.75287" stroke-linecap="round" stroke-linejoin="round"/>
<path opacity="0.41" d="M1511.46 -74.0678C1512.69 -70.9085 1348.08 -31.1021 1109.22 -54.1544C870.341 -77.2066 836.731 53.545 535.626 78.0851C234.499 102.625 109.475 -135.907 -19.6662 -171.474" stroke="url(#paint43_linear_2005_443)" stroke-width="1.75287" stroke-linecap="round" stroke-linejoin="round"/>
<path opacity="0.36" d="M1510.81 -81.6701C1512.14 -78.2663 1342.74 -20.1975 1103.64 -45.7363C864.533 -71.2752 833.735 54.1975 530.978 80.2866C228.201 106.396 106.622 -124.575 -20.8076 -163.28" stroke="url(#paint44_linear_2005_443)" stroke-width="1.75287" stroke-linecap="round" stroke-linejoin="round"/>
<path opacity="0.32" d="M1510.16 -89.2729C1511.56 -85.6245 1337.42 -9.2933 1098.07 -37.3188C858.744 -65.3443 830.759 54.829 526.352 82.508C221.924 110.167 103.768 -113.263 -21.949 -155.087" stroke="url(#paint45_linear_2005_443)" stroke-width="1.75287" stroke-linecap="round" stroke-linejoin="round"/>
<path opacity="0.27" d="M1509.49 -96.8752C1510.99 -92.9822 1332.06 1.61139 1092.49 -28.9007C852.915 -59.4128 827.763 55.4815 521.704 84.7095C215.625 113.938 100.894 -101.93 -23.1108 -146.893" stroke="url(#paint46_linear_2005_443)" stroke-width="1.75287" stroke-linecap="round" stroke-linejoin="round"/>
<path opacity="0.23" d="M1508.83 -104.478C1510.42 -100.34 1326.72 12.5161 1086.92 -20.4827C847.126 -53.4814 824.787 56.1339 517.078 86.9314C209.348 117.708 98.0408 -90.5973 -24.2522 -138.699" stroke="url(#paint47_linear_2005_443)" stroke-width="1.75287" stroke-linecap="round" stroke-linejoin="round"/>
<path opacity="0.18" d="M1508.18 -112.08C1509.87 -107.698 1321.38 23.3999 1081.36 -12.0651C841.317 -47.5505 821.832 56.7655 512.451 89.1324C203.07 121.479 95.1873 -79.2651 -25.3936 -130.506" stroke="url(#paint48_linear_2005_443)" stroke-width="1.75287" stroke-linecap="round" stroke-linejoin="round"/>
<path opacity="0.14" d="M1507.53 -119.683C1509.32 -115.056 1316.06 34.3046 1075.79 -3.66741C835.529 -41.6394 818.856 57.3975 507.824 91.3135C196.772 125.25 92.3338 -67.9528 -26.5554 -122.312" stroke="url(#paint49_linear_2005_443)" stroke-width="1.75287" stroke-linecap="round" stroke-linejoin="round"/>
<path opacity="0.09" d="M1506.88 -127.306C1508.75 -122.455 1310.72 45.1886 1070.23 4.73C829.74 -35.7286 815.88 58.009 503.197 93.5147C190.494 129.02 89.4803 -56.6203 -27.6968 -114.118" stroke="url(#paint50_linear_2005_443)" stroke-width="1.75287" stroke-linecap="round" stroke-linejoin="round"/>
<path opacity="0.05" d="M1506.22 -134.908C1508.2 -129.813 1305.38 56.0931 1064.64 13.1478C823.911 -29.7974 812.884 58.6612 498.55 95.716C184.217 132.791 86.6064 -45.2878 -28.8586 -105.945" stroke="url(#paint51_linear_2005_443)" stroke-width="1.75287" stroke-linecap="round" stroke-linejoin="round"/>
</g>
<path d="M660.12 11.6591C882.283 11.6591 1062.38 -26.5217 1062.38 -73.6199C1062.38 -120.718 882.283 -158.899 660.12 -158.899C437.956 -158.899 257.857 -120.718 257.857 -73.6199C257.857 -26.5217 437.956 11.6591 660.12 11.6591Z" fill="url(#paint52_radial_2005_443)" style="mix-blend-mode:color-dodge"/>
<path d="M590.034 113.416C608.234 80.9035 498.643 -15.0609 345.256 -100.927C191.869 -186.792 52.7697 -230.044 34.5694 -197.532C16.3691 -165.02 125.96 -69.0551 279.347 16.8107C432.734 102.676 571.833 145.928 590.034 113.416Z" fill="url(#paint53_radial_2005_443)" style="mix-blend-mode:color-dodge"/>
<path d="M857.123 50.5589C1019.19 -17.5325 1138.86 -100.578 1124.43 -134.929C1110 -169.28 966.92 -141.929 804.858 -73.8372C642.795 -5.74583 523.118 77.3001 537.551 111.651C551.984 146.002 695.061 118.65 857.123 50.5589Z" fill="url(#paint54_radial_2005_443)" style="mix-blend-mode:color-dodge"/>
<defs>
<linearGradient id="paint0_linear_2005_443" x1="9.07266" y1="-76.9823" x2="1507.92" y2="-76.9823" gradientUnits="userSpaceOnUse">
<stop stop-color="#395196" stop-opacity="0.59"/>
<stop offset="0.54" stop-color="#9DB4FA"/>
<stop offset="1" stop-color="#395196"/>
</linearGradient>
<linearGradient id="paint1_linear_2005_443" x1="6.3618" y1="-68.3809" x2="1512.28" y2="-68.3809" gradientUnits="userSpaceOnUse">
<stop stop-color="#3E57A1" stop-opacity="0.64"/>
<stop offset="0.54" stop-color="#96AFFA"/>
<stop offset="1" stop-color="#3E57A1"/>
</linearGradient>
<linearGradient id="paint2_linear_2005_443" x1="3.65096" y1="-59.5758" x2="1516.64" y2="-59.5758" gradientUnits="userSpaceOnUse">
<stop stop-color="#425DAC" stop-opacity="0.68"/>
<stop offset="0.54" stop-color="#8FAAFA"/>
<stop offset="1" stop-color="#425DAC"/>
</linearGradient>
<linearGradient id="paint3_linear_2005_443" x1="0.940114" y1="-53.7261" x2="1521.02" y2="-53.7261" gradientUnits="userSpaceOnUse">
<stop stop-color="#4663B7" stop-opacity="0.73"/>
<stop offset="0.54" stop-color="#88A5FA"/>
<stop offset="1" stop-color="#4663B7"/>
</linearGradient>
<linearGradient id="paint4_linear_2005_443" x1="-1.75037" y1="-51.0155" x2="1525.38" y2="-51.0155" gradientUnits="userSpaceOnUse">
<stop stop-color="#339999" stop-opacity="0.77"/>
<stop offset="0.54" stop-color="#4DB4B4"/>
<stop offset="1" stop-color="#339999"/>
</linearGradient>
<linearGradient id="paint5_linear_2005_443" x1="-4.4611" y1="-48.2432" x2="1529.75" y2="-48.2432" gradientUnits="userSpaceOnUse">
<stop stop-color="#4E6FCE" stop-opacity="0.82"/>
<stop offset="0.54" stop-color="#7B9CFA"/>
<stop offset="1" stop-color="#4E6FCE"/>
</linearGradient>
<linearGradient id="paint6_linear_2005_443" x1="-7.17197" y1="-45.4103" x2="1534.11" y2="-45.4103" gradientUnits="userSpaceOnUse">
<stop stop-color="#339999" stop-opacity="0.86"/>
<stop offset="0.54" stop-color="#339999"/>
<stop offset="1" stop-color="#339999"/>
</linearGradient>
<linearGradient id="paint7_linear_2005_443" x1="-9.88283" y1="-42.5366" x2="1538.47" y2="-42.5366" gradientUnits="userSpaceOnUse">
<stop stop-color="#339999" stop-opacity="0.91"/>
<stop offset="0.54" stop-color="#339999"/>
<stop offset="1" stop-color="#339999"/>
</linearGradient>
<linearGradient id="paint8_linear_2005_443" x1="-12.5733" y1="-39.6216" x2="1542.85" y2="-39.6216" gradientUnits="userSpaceOnUse">
<stop stop-color="#339999" stop-opacity="0.95"/>
<stop offset="0.54" stop-color="#339999"/>
<stop offset="1" stop-color="#339999"/>
</linearGradient>
<linearGradient id="paint9_linear_2005_443" x1="-14.8561" y1="-41.7211" x2="1546.01" y2="-41.7211" gradientUnits="userSpaceOnUse">
<stop stop-color="#339999"/>
<stop offset="0.54" stop-color="#339999"/>
<stop offset="1" stop-color="#339999"/>
</linearGradient>
<linearGradient id="paint10_linear_2005_443" x1="-14.4076" y1="-46.5926" x2="1544.81" y2="-46.5926" gradientUnits="userSpaceOnUse">
<stop stop-color="#339999"/>
<stop offset="0.54" stop-color="#339999"/>
<stop offset="1" stop-color="#339999"/>
</linearGradient>
<linearGradient id="paint11_linear_2005_443" x1="-13.9593" y1="-51.2596" x2="1543.61" y2="-51.2596" gradientUnits="userSpaceOnUse">
<stop stop-color="#339999"/>
<stop offset="0.54" stop-color="#339999"/>
<stop offset="1" stop-color="#339999"/>
</linearGradient>
<linearGradient id="paint12_linear_2005_443" x1="-13.5312" y1="-55.7441" x2="1542.42" y2="-55.7441" gradientUnits="userSpaceOnUse">
<stop stop-color="#339999"/>
<stop offset="0.54" stop-color="#4AF3F3"/>
<stop offset="1" stop-color="#339999"/>
</linearGradient>
<linearGradient id="paint13_linear_2005_443" x1="-13.0828" y1="-60.0647" x2="1541.22" y2="-60.0647" gradientUnits="userSpaceOnUse">
<stop stop-color="#4969C1"/>
<stop offset="0.54" stop-color="#83A3FB"/>
<stop offset="1" stop-color="#4969C1"/>
</linearGradient>
<linearGradient id="paint14_linear_2005_443" x1="-12.6547" y1="-64.2028" x2="1540.02" y2="-64.2028" gradientUnits="userSpaceOnUse">
<stop stop-color="#4563B6"/>
<stop offset="0.54" stop-color="#8BA8FB"/>
<stop offset="1" stop-color="#4563B6"/>
</linearGradient>
<linearGradient id="paint15_linear_2005_443" x1="-12.2064" y1="-68.1768" x2="1538.82" y2="-68.1768" gradientUnits="userSpaceOnUse">
<stop stop-color="#415DAA"/>
<stop offset="0.54" stop-color="#92AEFC"/>
<stop offset="1" stop-color="#415DAA"/>
</linearGradient>
<linearGradient id="paint16_linear_2005_443" x1="-11.7579" y1="-71.9888" x2="1537.63" y2="-71.9888" gradientUnits="userSpaceOnUse">
<stop stop-color="#3C579F"/>
<stop offset="0.54" stop-color="#99B3FC"/>
<stop offset="1" stop-color="#3C579F"/>
</linearGradient>
<linearGradient id="paint17_linear_2005_443" x1="-11.3299" y1="-75.6571" x2="1536.43" y2="-75.6571" gradientUnits="userSpaceOnUse">
<stop stop-color="#385094"/>
<stop offset="0.54" stop-color="#A0B9FC"/>
<stop offset="1" stop-color="#385094"/>
</linearGradient>
<linearGradient id="paint18_linear_2005_443" x1="-10.8815" y1="-79.1837" x2="1535.23" y2="-79.1837" gradientUnits="userSpaceOnUse">
<stop stop-color="#344A88"/>
<stop offset="0.54" stop-color="#A8BEFC"/>
<stop offset="1" stop-color="#344A88"/>
</linearGradient>
<linearGradient id="paint19_linear_2005_443" x1="-10.4534" y1="-82.5871" x2="1534.03" y2="-82.5871" gradientUnits="userSpaceOnUse">
<stop stop-color="#2F447D"/>
<stop offset="0.54" stop-color="#AFC4FD"/>
<stop offset="1" stop-color="#2F447D"/>
</linearGradient>
<linearGradient id="paint20_linear_2005_443" x1="-10.0051" y1="-85.8895" x2="1532.84" y2="-85.8895" gradientUnits="userSpaceOnUse">
<stop stop-color="#2B3E72"/>
<stop offset="0.54" stop-color="#B6C9FD"/>
<stop offset="1" stop-color="#2B3E72"/>
</linearGradient>
<linearGradient id="paint21_linear_2005_443" x1="-9.55664" y1="-89.0686" x2="1531.64" y2="-89.0686" gradientUnits="userSpaceOnUse">
<stop stop-color="#273866"/>
<stop offset="0.54" stop-color="#BECEFD"/>
<stop offset="1" stop-color="#273866"/>
</linearGradient>
<linearGradient id="paint22_linear_2005_443" x1="-9.12869" y1="-92.1468" x2="1530.44" y2="-92.1468" gradientUnits="userSpaceOnUse">
<stop stop-color="#23315B"/>
<stop offset="0.54" stop-color="#C5D4FD"/>
<stop offset="1" stop-color="#23315B"/>
</linearGradient>
<linearGradient id="paint23_linear_2005_443" x1="-8.68022" y1="-95.1425" x2="1529.24" y2="-95.1425" gradientUnits="userSpaceOnUse">
<stop stop-color="#1E2B50"/>
<stop offset="0.54" stop-color="#CCD9FD"/>
<stop offset="1" stop-color="#1E2B50"/>
</linearGradient>
<linearGradient id="paint24_linear_2005_443" x1="-8.23187" y1="-98.0576" x2="1528.05" y2="-98.0576" gradientUnits="userSpaceOnUse">
<stop stop-color="#1A2544"/>
<stop offset="0.54" stop-color="#D3DFFE"/>
<stop offset="1" stop-color="#1A2544"/>
</linearGradient>
<linearGradient id="paint25_linear_2005_443" x1="-7.8038" y1="-100.911" x2="1526.85" y2="-100.911" gradientUnits="userSpaceOnUse">
<stop stop-color="#161F39"/>
<stop offset="0.54" stop-color="#DBE4FE"/>
<stop offset="1" stop-color="#161F39"/>
</linearGradient>
<linearGradient id="paint26_linear_2005_443" x1="-7.35547" y1="-103.683" x2="1525.65" y2="-103.683" gradientUnits="userSpaceOnUse">
<stop stop-color="#11192D"/>
<stop offset="0.54" stop-color="#E2E9FE"/>
<stop offset="1" stop-color="#11192D"/>
</linearGradient>
<linearGradient id="paint27_linear_2005_443" x1="-6.9274" y1="-106.393" x2="1524.45" y2="-106.393" gradientUnits="userSpaceOnUse">
<stop stop-color="#0D1322"/>
<stop offset="0.54" stop-color="#E9EFFE"/>
<stop offset="1" stop-color="#0D1322"/>
</linearGradient>
<linearGradient id="paint28_linear_2005_443" x1="-6.47903" y1="-109.064" x2="1523.26" y2="-109.064" gradientUnits="userSpaceOnUse">
<stop stop-color="#090C17"/>
<stop offset="0.54" stop-color="#F0F4FF"/>
<stop offset="1" stop-color="#090C17"/>
</linearGradient>
<linearGradient id="paint29_linear_2005_443" x1="-6.03058" y1="-111.672" x2="1522.06" y2="-111.672" gradientUnits="userSpaceOnUse">
<stop stop-color="#04060B"/>
<stop offset="0.54" stop-color="#F8FAFF"/>
<stop offset="1" stop-color="#04060B"/>
</linearGradient>
<linearGradient id="paint30_linear_2005_443" x1="-5.60251" y1="-114.261" x2="1520.86" y2="-114.261" gradientUnits="userSpaceOnUse">
<stop/>
<stop offset="0.54" stop-color="white"/>
<stop offset="1"/>
</linearGradient>
<linearGradient id="paint31_linear_2005_443" x1="-6.7439" y1="-109.023" x2="1520.21" y2="-109.023" gradientUnits="userSpaceOnUse">
<stop stop-color="#030106"/>
<stop offset="0.54" stop-color="#F7F4FA"/>
<stop offset="1" stop-color="#030106"/>
</linearGradient>
<linearGradient id="paint32_linear_2005_443" x1="-7.90567" y1="-103.805" x2="1519.55" y2="-103.805" gradientUnits="userSpaceOnUse">
<stop stop-color="#07020D"/>
<stop offset="0.54" stop-color="#EFEAF5"/>
<stop offset="1" stop-color="#07020D"/>
</linearGradient>
<linearGradient id="paint33_linear_2005_443" x1="-9.04709" y1="-98.5671" x2="1518.9" y2="-98.5671" gradientUnits="userSpaceOnUse">
<stop stop-color="#0A0313"/>
<stop offset="0.54" stop-color="#E6DFEF"/>
<stop offset="1" stop-color="#0A0313"/>
</linearGradient>
<linearGradient id="paint34_linear_2005_443" x1="-10.1885" y1="-93.3288" x2="1518.23" y2="-93.3288" gradientUnits="userSpaceOnUse">
<stop stop-color="#0D0419"/>
<stop offset="0.54" stop-color="#DED4EA"/>
<stop offset="1" stop-color="#0D0419"/>
</linearGradient>
<linearGradient id="paint35_linear_2005_443" x1="-11.3503" y1="-88.0903" x2="1517.58" y2="-88.0903" gradientUnits="userSpaceOnUse">
<stop stop-color="#110520"/>
<stop offset="0.54" stop-color="#D6CAE5"/>
<stop offset="1" stop-color="#110520"/>
</linearGradient>
<linearGradient id="paint36_linear_2005_443" x1="-12.4917" y1="-82.832" x2="1516.92" y2="-82.832" gradientUnits="userSpaceOnUse">
<stop stop-color="#140526"/>
<stop offset="0.54" stop-color="#CEBFE0"/>
<stop offset="1" stop-color="#140526"/>
</linearGradient>
<linearGradient id="paint37_linear_2005_443" x1="-13.6331" y1="-77.5732" x2="1516.27" y2="-77.5732" gradientUnits="userSpaceOnUse">
<stop stop-color="#18062D"/>
<stop offset="0.54" stop-color="#C5B4DA"/>
<stop offset="1" stop-color="#18062D"/>
</linearGradient>
<linearGradient id="paint38_linear_2005_443" x1="-14.7949" y1="-72.3144" x2="1515.62" y2="-72.3144" gradientUnits="userSpaceOnUse">
<stop stop-color="#1B0733"/>
<stop offset="0.54" stop-color="#BDAAD5"/>
<stop offset="1" stop-color="#1B0733"/>
</linearGradient>
<linearGradient id="paint39_linear_2005_443" x1="-15.9363" y1="-67.0357" x2="1514.97" y2="-67.0357" gradientUnits="userSpaceOnUse">
<stop stop-color="#1E0839"/>
<stop offset="0.54" stop-color="#B59FD0"/>
<stop offset="1" stop-color="#1E0839"/>
</linearGradient>
<linearGradient id="paint40_linear_2005_443" x1="-17.098" y1="-61.7361" x2="1514.32" y2="-61.7361" gradientUnits="userSpaceOnUse">
<stop stop-color="#220940"/>
<stop offset="0.54" stop-color="#AD94CB"/>
<stop offset="1" stop-color="#220940"/>
</linearGradient>
<linearGradient id="paint41_linear_2005_443" x1="-18.2395" y1="-56.4375" x2="1513.66" y2="-56.4375" gradientUnits="userSpaceOnUse">
<stop stop-color="#250A46"/>
<stop offset="0.54" stop-color="#A489C5"/>
<stop offset="1" stop-color="#250A46"/>
</linearGradient>
<linearGradient id="paint42_linear_2005_443" x1="-19.3809" y1="-51.1175" x2="1512.99" y2="-51.1175" gradientUnits="userSpaceOnUse">
<stop stop-color="#280B4C"/>
<stop offset="0.54" stop-color="#9C7FC0"/>
<stop offset="1" stop-color="#280B4C"/>
</linearGradient>
<linearGradient id="paint43_linear_2005_443" x1="-20.5427" y1="-45.7977" x2="1512.34" y2="-45.7977" gradientUnits="userSpaceOnUse">
<stop stop-color="#2C0C53"/>
<stop offset="0.54" stop-color="#9474BB"/>
<stop offset="1" stop-color="#2C0C53"/>
</linearGradient>
<linearGradient id="paint44_linear_2005_443" x1="-21.6841" y1="-40.4573" x2="1511.69" y2="-40.4573" gradientUnits="userSpaceOnUse">
<stop stop-color="#2F0D59"/>
<stop offset="0.54" stop-color="#8C69B6"/>
<stop offset="1" stop-color="#2F0D59"/>
</linearGradient>
<linearGradient id="paint45_linear_2005_443" x1="-22.8255" y1="-35.0971" x2="1511.03" y2="-35.0971" gradientUnits="userSpaceOnUse">
<stop stop-color="#320E5F"/>
<stop offset="0.54" stop-color="#845FB1"/>
<stop offset="1" stop-color="#320E5F"/>
</linearGradient>
<linearGradient id="paint46_linear_2005_443" x1="-23.9873" y1="-29.7364" x2="1510.38" y2="-29.7364" gradientUnits="userSpaceOnUse">
<stop stop-color="#360F66"/>
<stop offset="0.54" stop-color="#7B54AB"/>
<stop offset="1" stop-color="#360F66"/>
</linearGradient>
<linearGradient id="paint47_linear_2005_443" x1="-25.1286" y1="-24.3553" x2="1509.73" y2="-24.3553" gradientUnits="userSpaceOnUse">
<stop stop-color="#390F6C"/>
<stop offset="0.54" stop-color="#7349A6"/>
<stop offset="1" stop-color="#390F6C"/>
</linearGradient>
<linearGradient id="paint48_linear_2005_443" x1="-26.2904" y1="-18.9339" x2="1509.08" y2="-18.9339" gradientUnits="userSpaceOnUse">
<stop stop-color="#3D1073"/>
<stop offset="0.54" stop-color="#6B3FA1"/>
<stop offset="1" stop-color="#3D1073"/>
</linearGradient>
<linearGradient id="paint49_linear_2005_443" x1="-27.4318" y1="-13.512" x2="1508.43" y2="-13.512" gradientUnits="userSpaceOnUse">
<stop stop-color="#401179"/>
<stop offset="0.54" stop-color="#63349C"/>
<stop offset="1" stop-color="#401179"/>
</linearGradient>
<linearGradient id="paint50_linear_2005_443" x1="-28.5732" y1="-14.6534" x2="1507.75" y2="-14.6534" gradientUnits="userSpaceOnUse">
<stop stop-color="#43127F"/>
<stop offset="0.54" stop-color="#5A2996"/>
<stop offset="1" stop-color="#43127F"/>
</linearGradient>
<linearGradient id="paint51_linear_2005_443" x1="-29.735" y1="-17.0789" x2="1507.1" y2="-17.0789" gradientUnits="userSpaceOnUse">
<stop stop-color="#471386"/>
<stop offset="0.54" stop-color="#521F91"/>
<stop offset="1" stop-color="#471386"/>
</linearGradient>
<radialGradient id="paint52_radial_2005_443" cx="0" cy="0" r="1" gradientUnits="userSpaceOnUse" gradientTransform="translate(657.207 -79.3699) scale(401.398 84.6486)">
<stop stop-color="#339999"/>
<stop offset="1" stop-opacity="0"/>
</radialGradient>
<radialGradient id="paint53_radial_2005_443" cx="0" cy="0" r="1" gradientUnits="userSpaceOnUse" gradientTransform="translate(312.83 -50.1605) rotate(29.24) scale(317.625 66.9821)">
<stop stop-color="#339999"/>
<stop offset="1" stop-opacity="0"/>
</radialGradient>
<radialGradient id="paint54_radial_2005_443" cx="0" cy="0" r="1" gradientUnits="userSpaceOnUse" gradientTransform="translate(828.579 -11.3719) rotate(-22.79) scale(317.595 66.9758)">
<stop stop-color="#339999"/>
<stop offset="1" stop-opacity="0"/>
</radialGradient>
</defs>
</svg>
