<svg width="532" height="300" viewBox="0 0 532 300" fill="none" xmlns="http://www.w3.org/2000/svg">
<g clip-path="url(#clip0_2005_441)">
<path d="M0.789612 267.419C0.789612 267.419 8.03737 225.804 47.3151 254.327C86.5928 282.85 87.995 247.547 93.8406 249.418C99.685 251.288 190.632 302.956 196.243 298.982C201.854 295.008 203.491 214.349 200.217 212.244C196.944 210.14 94.0741 172.264 93.1389 175.07C92.2038 177.875 94.3076 242.286 94.7758 243.339C95.2439 244.391 190.632 294.19 195.308 295.242C199.984 296.294 399.295 282.033 400.58 280.746C401.866 279.461 406.191 215.693 399.703 212.185C393.216 208.678 240.197 222.999 239.378 222.999C238.56 222.999 133.527 173.201 132.533 173.142C131.54 173.084 94.9509 173.434 96.6461 174.078C98.3412 174.721 132.592 174.896 132.592 174.546C132.592 174.195 127.156 174.137 126.104 169.52C125.052 164.902 123.065 86.9317 126.104 87.8668C129.143 88.802 244.697 125.391 244.697 127.32C244.697 129.248 246.451 208.856 243.996 208.506C241.54 208.155 240.78 129.6 241.717 129.132C242.652 128.663 463.588 114.519 463.121 114.052C462.654 113.585 322.104 78.9834 319.765 78.8277C317.427 78.6721 301.334 78.8083 300.574 79.4516C299.814 80.0948 292.86 95.1157 291.924 94.9406C290.989 94.7655 259.836 47.8897 259.603 27.4319C259.369 6.97516 294.555 -11.9626 313.609 12.0012C332.664 35.965 293.892 88.335 290.542 87.322C287.19 86.309 270.699 42.0968 272.929 30.5876C276.612 11.5914 298.297 8.37732 303.439 29.6524C308.583 50.9275 281.346 45.4917 281.755 34.445C282.163 23.3982 293.269 14.865 300.692 26.4372C308.115 38.0105 293.795 79.6839 291.574 80.6774C289.354 81.671 129.145 85.2949 132.184 86.8149C135.223 88.335 246.042 123.871 252.823 123.871C259.604 123.871 463.706 111.597 464.524 113.233C465.343 114.87 468.615 197.984 465.576 202.192C462.537 206.401 360.837 209.673 358.498 209.673C356.16 209.673 355.224 165.72 358.498 164.316C361.772 162.913 455.29 157.965 456.925 161.258C458.562 164.551 448.275 210.375 462.303 213.18C476.33 215.986 480.772 136.495 504.619 169.46C528.467 202.425 504.151 154.029 531.039 156.368" stroke="#33929D" stroke-width="2" stroke-miterlimit="10"/>
</g>
<defs>
<clipPath id="clip0_2005_441">
<rect width="531.106" height="300" fill="white"/>
</clipPath>
</defs>
</svg>
